<svg xmlns="http://www.w3.org/2000/svg" version="1.0" width="1000" height="1000">
    <g fill="#fff">
        <path d="M1068.615 627.427c-4.206-.841-6.483-1.935-10.513-4.879-2.278-1.598-2.891-2.691-2.891-4.878 0-1.85 1.051-4.458 2.89-7.066 2.454-3.617 3.155-4.205 5.783-4.205 2.365 0 3.592.673 6.308 3.7 1.84 2.02 4.993 4.29 6.92 5.047 3.242 1.262 3.855 1.262 6.746.084 4.03-1.598 6.133-3.448 7.885-6.644 2.19-4.038 0-6.645-11.652-14.3-13.404-8.831-14.718-10.514-15.156-19.598-.263-6.224 0-7.57 2.103-11.607 2.453-4.963 7.71-9.673 12.966-11.776 8.497-3.364 20.762-2.27 24.705 2.271 1.84 2.103 2.19 3.365 2.19 7.739 0 6.644-2.103 9.757-6.57 9.757-2.454 0-3.154-.505-4.556-3.113-1.752-3.28-6.483-6.98-8.936-6.98-2.103 0-6.833 3.027-8.498 5.466-2.278 3.365-.438 5.552 10.6 12.617 6.396 4.122 10.689 7.486 12.353 9.757 2.453 3.365 2.54 4.038 2.54 12.449 0 10.346-1.138 13.542-7.27 19.177-6.22 5.804-18.486 8.916-27.947 6.982zM1126.786 618.679c-9.287-3.28-9.812-6.813-7.009-47.44l1.49-22.12 5.782-3.365c3.504-1.935 6.92-3.28 8.585-3.28 2.453 0 2.803.252 2.803 2.355.088 1.261-1.401 13.878-3.241 28.009-3.592 28.262-3.504 30.785.788 33.813 2.015 1.43 2.716 1.514 4.906.673 3.592-1.43 9.637-7.486 13.317-13.206l3.066-4.878 1.314-22.29 1.314-22.374 5.257-3.112c3.504-2.019 6.307-3.112 8.585-3.112l3.242-.084v3.7c0 2.02-1.402 12.87-3.067 24.14-1.664 11.272-3.153 22.459-3.153 24.898-.176 4.374 1.401 9.505 2.803 9.505.35 0 2.365-1.85 4.468-4.206 3.066-3.364 4.293-4.205 6.57-4.205 4.293 0 5.52.757 5.52 3.532 0 2.86-7.272 13.542-12.003 17.496-2.54 2.187-3.679 2.523-8.06 2.523-5.781 0-8.76-1.598-10.6-5.804l-1.051-2.523-4.118 4.037c-2.277 2.271-5.957 4.963-8.06 6.056-4.818 2.355-14.63 3.028-19.448 1.262zM1194.506 606.651c0-8.243 4.205-65.692 4.906-66.785.263-.42 4.03-.757 8.41-.757h7.973l-.614 5.299c-.35 2.86-.788 6.897-1.051 9l-.438 3.785 3.154-5.467c6.395-10.682 7.096-11.103 15.243-9.589 4.206.841 3.768 4.374-1.138 9.757-3.943 4.374-11.302 16.99-14.543 25.065-1.928 5.047-6.57 21.87-7.534 27.421-.263 1.935-.789 3.87-1.14 4.29-.963 1.598-7.884 4.458-10.6 4.458h-2.628zM1243.741 603.455c-4.993-5.383-5.256-8.327-3.504-39.701 1.226-22.458.175-20.692 10.6-18.168 4.819 1.177 5.87 1.766 5.87 3.196 0 .925-.964 9.505-2.19 19.093-2.103 15.813-2.19 17.58-.964 20.355.701 1.683 1.665 3.028 2.19 3.028.438 0 2.453-1.934 4.468-4.29 3.505-3.953 3.943-4.205 7.36-3.953 3.504.253 3.591.337 3.854 3.365.263 2.692-.438 4.206-4.293 9.505-6.658 9.252-8.498 10.514-15.243 10.514-5.17 0-5.695-.169-8.148-2.944zM1041.018 536.922l-6.833-3.87v-6.476c0-3.532-.263-8.411-.526-10.766l-.613-4.458h3.242c1.752 0 3.153.336 3.153.673 0 .84 12.09 8.495 17.347 11.019 3.241 1.598 3.68 2.102 3.68 4.794 0 2.103-1.052 4.374-3.68 7.906-4.644 6.393-6.396 6.477-15.77 1.178zM1080.967 530.361c-7.096-3.028-8.41-9.757-8.06-43.402l.263-25.654 4.819-3.112c3.504-2.271 5.782-3.112 8.235-3.196h3.416l-.613 7.822c-.35 4.206-1.226 15.645-2.015 25.318-1.051 14.047-1.139 18.505-.35 22.037 1.577 6.73 2.715 7.066 6.92 1.683l3.593-4.542 6.745-.59 6.658-.588 3.68 3.28c7.008 6.477 12.44 6.561 18.397.169 5.607-5.888 4.206-8.328-9.198-15.898-4.906-2.86-10.163-5.887-11.564-6.897-3.855-2.607-5.87-7.57-5.87-14.551 0-7.486 2.54-13.038 8.235-17.832 5.607-4.71 11.038-6.393 19.8-5.972 6.22.252 7.183.505 9.548 2.692 2.54 2.355 2.716 2.944 2.716 8.495 0 7.234-1.402 9.673-5.52 9.673-2.365 0-3.153-.589-4.905-3.28-2.628-4.038-6.395-6.309-9.462-5.552-3.329.757-6.307 2.944-7.797 5.551-1.139 2.272-1.139 2.524 1.14 4.879 1.4 1.43 5.781 4.29 9.899 6.477 9.987 5.215 13.491 8.074 15.769 12.616 1.665 3.28 1.927 4.795 1.577 11.103-.438 8.832-3.066 14.468-8.76 18.925-7.01 5.468-8.937 6.057-19.1 6.057-8.41 0-9.723-.253-14.016-2.356-3.592-1.85-4.819-2.102-5.432-1.261-.438.589-1.577 2.355-2.54 3.869-3.242 4.878-9.988 6.56-16.208 4.037zM1168.574 514.38c-3.592-1.514-6.132-5.636-7.271-11.776-.613-2.944-.964-15.813-.964-31.121l.088-26.16 5.256-3.111c3.417-2.103 6.308-3.197 8.235-3.197 3.592 0 3.505-.757 2.19 14.72-2.54 30.87-2.803 37.766-1.576 41.636.7 2.102 1.84 3.869 2.54 4.037.701.084 2.804-1.682 4.643-4.037 3.242-4.038 3.592-4.29 7.009-4.038 3.504.253 3.592.337 3.855 3.617.175 2.86-.526 4.458-4.906 10.935-3.067 4.626-6.045 7.99-7.447 8.663-3.154 1.346-8.235 1.262-11.652-.168zM1198.01 475.268v-36l4.819-3.112c3.241-2.103 5.782-3.028 7.972-3.028h3.154l-.35 11.27-.263 11.188 3.153-6.393c1.753-3.533 4.38-7.99 5.958-9.925 2.365-3.196 3.154-3.617 6.132-3.617 6.57 0 8.323 5.551 3.33 10.85-7.185 7.655-15.244 27.253-18.223 44.243-3.066 17.748-2.54 16.318-6.746 18.59-2.015 1.093-4.906 2.018-6.307 2.018h-2.629zM1245.581 498.567c-4.468-4.626-4.906-6.981-5.344-28.178l-.35-19.598h2.978c2.103 0 3.767.841 6.133 2.944 1.752 1.598 3.854 2.944 4.555 2.944 1.665 0 1.665-.42.438 11.523-.876 9.337-.35 13.879 1.84 17.075.788 1.094 1.227.925 3.066-1.01 2.716-3.027 7.009-3.28 7.797-.42 1.577 5.804.35 9.925-4.555 15.14-2.015 2.02-2.891 2.271-8.06 2.271-5.432 0-5.957-.168-8.498-2.691z"/>
    </g>
    <path d="M236.5 567.2c0-.7-.6-1.9-1.4-2.5-.8-.7-2.1-3.4-3-6.2-.9-2.8-3.1-8-4.8-11.7-1.7-3.7-3.2-7.4-3.4-8.2-.1-.8-1.1-4.6-2.1-8.5-1.1-3.8-2.8-9.9-3.7-13.5-.9-3.6-2.1-7.8-2.6-9.5-.4-1.6-1.3-6.1-2-10-.7-3.8-1.8-8.5-2.6-10.2-.7-1.8-1-3.3-.6-3.3.5 0 .3-5.1-.4-11.2-2.6-22.8-1.5-54.2 2.6-80.3.6-3.8 1.4-8.9 1.7-11.3.3-2.3 1-4.5 1.4-4.8.5-.3.9-1.4.9-2.5 0-3.9 7.3-28.5 11-37.4 3.1-7.2 4.8-11.5 6-15.2.7-2.4 1.7-4.3 2.2-4.3.5 0 .6-.5.2-1.2-.4-.6-.1-1.6.7-2.2 1.9-1.5 3.9-5.2 3.9-7.1 0-.8.5-1.5 1-1.5.6 0 1-.8 1-1.7 0-.9.6-2.4 1.4-3.2 1.3-1.5 5.2-8.3 8.3-14.3.8-1.6 1.9-2.8 2.4-2.8s1.1-1.1 1.5-2.5c.3-1.3 1.3-3 2.1-3.6.8-.7 2-2.6 2.7-4.3.7-1.7 2.7-4.4 4.4-6.1 1.7-1.6 3.7-4.2 4.4-5.6 1.3-2.5 5.2-7.5 11-14.2 1.5-1.8 2.8-3.8 2.8-4.4 0-.7 1.2-1.9 2.8-2.7 1.5-.8 5.6-4.7 9.1-8.5 3.6-3.9 7.1-7.1 7.8-7.1.7 0 1.3-.7 1.3-1.5s.7-1.5 1.5-1.5 1.9-.9 2.5-2c.6-1.1 1.6-2 2.3-2 .7 0 3.7-2.5 6.7-5.5s6-5.4 6.6-5.5c.7 0 1.4-.7 1.8-1.5.3-.8 1.2-1.5 2.1-1.5.8 0 3.2-1.6 5.2-3.6 2.1-2 5.7-4.5 7.9-5.5 2.3-1.1 5.9-3.6 8-5.5 2.2-1.9 5.1-3.8 6.7-4.1 1.5-.3 3-1 3.3-1.4.3-.5 1.4-.9 2.5-.9 1 0 1.9-.7 1.9-1.5s.9-1.5 2-1.5 2-.5 2-1.1c0-.6.6-.9 1.4-.6.8.3 1.7-.1 2-1 .4-.8 1.3-1.3 2.1-.9.8.3 1.8-.1 2.2-.8.8-1.2 3.8-2.9 5.8-3.1 2.7-.3 8.5-2.8 9.5-4.1.7-.7 2.3-1.4 3.6-1.4 1.4 0 2.4-.6 2.4-1.5 0-1 1.6-1.6 5-2.1 2.8-.4 5.3-1.1 5.6-1.5.3-.5 1.8-.9 3.3-.9 3.2 0 9.6-2.4 10.6-4 .4-.6 1.6-.8 2.6-.5 1.1.4 2.7.1 3.6-.7.9-.7 3-1.3 4.7-1.4 5.3-.2 11-1.6 12.7-3 1-.9 2.7-1.2 4.6-.8 1.9.4 3.5.1 4.4-.8.9-.8 4.1-1.3 8.8-1.4 4-.1 7.6-.6 8-1.1.3-.5 15.2-.9 36.1-.9 27.8.1 36 .4 37.9 1.4 1.3.8 3.8 1.2 5.7 1 1.9-.2 3.5 0 3.7.5.1.4 3.1 1 6.6 1.2 3.5.2 6.9.9 7.7 1.5.7.7 2.3 1 3.6.9 1.3-.1 3.4.2 4.8.8 4.7 2 9.6 3.3 12.2 3.3 1.3 0 2.8.3 3.1.7.9.8 22.4 8.3 26 9 1.5.3 2.7.8 2.7 1.2 0 .8 8 4.3 9.4 4.1.5-.1 1.2.3 1.6 1 .4.6 1.4 1.2 2.2 1.4.9.1 2.2.7 2.9 1.3.8.6 2.5 1.4 3.9 1.8 1.4.4 2.8 1.2 3.1 1.7.3.5 1.3 1 2.1 1.2.9.1 2.3.8 3.2 1.5.9.7 1.6 1.1 1.6.7 0-.3 1.9.7 4.2 2.4 2.2 1.6 4.5 3 4.9 3 .4 0 4.9 2.8 9.8 6.2 5 3.5 11.2 7.7 13.7 9.5 2.6 1.8 5 3.6 5.3 4 .3.5 3.3 3 6.6 5.5 5.5 4.1 12.1 10 20 17.6 14.3 13.8 40 46.8 46.2 59.2.7 1.4 2.2 4.1 3.4 6 2.1 3.4 11 21.2 16.2 32 3.8 8.2 7.7 19.3 11.2 32.3.8 3.1 2.2 8.3 3.1 11.5 1.8 6.4 4.4 18 4.2 19 0 .4.1.9.2 1.2.2.3 1 6.8 2 14.5 2.1 17.1 2.1 62.3.1 75-2.2 13.3-6 32.2-7.5 36.7-.8 2.4-1.7 5.7-2 7.3-1.2 5.4-3.9 14-4.8 14.9-.4.6-.8 1.6-.8 2.4 0 1.9-4.3 11.2-5.2 11.2-.4 0-4.5-2.4-9-5.3-15.5-9.9-44.7-24.9-66.3-34-14.8-6.2-40.8-15.1-56.7-19.3l-10.8-2.9v-3.6c0-2 .7-7.4 1.7-12 3-15.5 2.2-34.8-2.3-52.1-1.1-4.4-1.2-6.3-.4-7.8.7-1.3.8-3.4.4-5.3-.4-1.8-.9-2.6-1.1-1.9-1.1 3-3.2.5-8.1-9.5-3.8-7.8-5.2-12-5.2-14.9 0-2.5-.6-4.7-1.5-5.4-1.2-1-1.4-3-.9-10.9.5-7.6.3-10.4-1-13.3-2.1-4.9-5.6-7.2-9.5-6.3-4.1.9-4.9 2.5-1.4 2.5 5.2.1 6.5 2.1 6.7 10.2l.1 7.3-3.5.3c-3 .2-4.1-.4-8.4-4.7-3.9-4-4.7-5.3-3.8-6.4 1.7-2-2.1-5.5-4.2-3.8-1.1.9-3.1 0-9.7-4.9-37.2-26.9-83.2-32-124.7-13.8-22.5 9.8-40 23.7-54.8 43.3-6.4 8.5-16.1 27.3-19.3 37.2-2.2 7.2-6.1 25-6.1 28.1 0 2.1-6.1 2.8-9.2 1.1-3-1.6-18.3-15.3-25-22.4-3.4-3.5-5.8-6.9-5.8-8.2 0-2-.2-2.1-3.2-1.1-1.8.6-3.7 1.4-4.1 1.8-1.1.9 6.9 10.4 16.4 19.7 7.3 7.1 24.3 21.1 26.7 22 .6.3 1.2 1.8 1.2 3.4 0 1.5.6 3.2 1.3 3.6 1.3.8 5.6 19.4 6.4 27.8l.4 4-17.8 5.8c-43.5 14-91.6 38.5-124.6 63.4-6 4.5-7.7 5.2-7.7 2.9zm76.4-88.6 2.6-1v-19.7c.1-41.5 2.6-84.1 5.6-95 .6-2 .3-2.3-2.5-2.3h-3.1v-6c0-3.2-.4-9.2-.9-13.2-.6-4-1.5-11.8-2.1-17.3-.7-5.5-1.6-11.7-2.1-13.7l-1-3.8-3.9 2.6c-2.2 1.5-3.7 3-3.5 3.5.3.4 1 3.8 1.5 7.6.5 3.7 1.6 11.8 2.5 17.8 1.4 10.1 3.8 65.1 3 67.8-.2.7-.6 17.5-1 37.5-.6 39.5-.9 37.4 4.9 35.2zm363.1-13c1.5-.7.9-.9-2.6-.9-2.5-.1-6.1-.6-7.9-1.2-2.6-.9-3.4-.9-4.1.2-.5.8-.3 1.6.4 2.1 1.6 1 11.7.9 14.2-.2zm28.5-30.5c1.6-3.7 2.9-14.9 4-33 .6-9.9 1.5-25 2-33.5s1.2-21.1 1.6-28l.6-12.4-2.3 1.6c-1.3.8-2.5 2.5-2.7 3.7-.2 1.1-1 2.1-1.8 2.1-1.1 0-1.2.4-.4 1.9 1.9 3.6.6 23.7-2.3 34.8-1.3 4.8-1.2 5.2.5 5.6 2.1.6 2.2 1.4.8 22.8-1.1 18.9-1.9 39.9-1.3 37.9.3-.8.8-2.4 1.3-3.5zm-31.2-23.4c.9-.5.1-1-2.5-1.4-4.5-.8-8.5-4.5-10.2-9.6-1.4-4.4-1.4-25.7 0-31.8.7-2.7 1.9-7.4 2.9-10.5 2.1-7 1.1-6.7-2.5.9-5 10.5-7.6 20.7-7.6 30.2 0 6.2.4 8.3 2.8 13 1.6 3.2 4.3 6.5 6.2 7.8 3.4 2.3 8.5 3 10.9 1.4zm-283.5-52.1c8.7-16.7 12.2-29.5 12-44-.2-15.1-3.9-23.8-13-30.7-4.6-3.5-11.8-3.7-17.8-.5l-4 2.1 6.6.1c8.7 0 12.3 2.4 16.4 10.5 2.9 5.8 3 6.5 3.3 22.2.3 12.3-.1 18.3-1.3 24.5-1.8 8.8-4.7 18.3-6.6 22-.6 1.3-.7 1.9-.1 1.3.6-.5 2.6-3.9 4.5-7.5zm43.7-28.2c1.7-1.9 1.8-2.4.6-4.2-1.8-2.8-4.3-3.2-6.7-1-2.5 2.2-2.4 3.9.3 5.8 2.9 2.1 3.3 2 5.8-.6zm100.4-19.3c1.5-2.3 1.5-2.6-.7-5l-2.2-2.7-2.8 2.2c-3.1 2.5-3.3 3.6-1 6.2 2.2 2.5 4.8 2.3 6.7-.7z" fill="#48fffb"/>
    <path d="M481 738.4c-59.9-6.7-108.2-25-152-57.6-18.8-13.9-30.2-24.5-49.5-45.8-11.4-12.6-28.7-38.3-38.5-57.3-4.5-8.6-5.3-10.9-4.4-12.4.6-1 6.7-5.6 13.6-10.3 35.4-24.2 74.8-43.7 115-56.7 14.5-4.7 17.7-6.1 17.2-7.4-.3-1 .2-1.8 1.3-2.1 17.5-4.9 42.9-10.5 57.8-12.7 30.2-4.4 46.1-5.3 88.1-5 35.7.3 39.2.2 41.7-1.4 1.4-.9 4.4-1.7 6.7-1.7 3.7 0 4 .2 4 2.9 0 2.1.6 3 2.3 3.5 4.8 1.3 8.3.6 10.8-2 5.3-5.8 9.8-7.7 18.1-7.8 6.2-.1 8.2.3 10.4 2 3 2.2 5.2 7.2 5.3 12 .1 3 .4 3.2 5.9 4.5 4.4 1.1 5.8 1.9 6 3.4.2 1.6 2.2 2.5 11 4.9 15.9 4.3 41.9 13.1 56.7 19.3C737.7 523 782 547 782 550.5c0 3.4-12.2 28.9-20.5 43-4.1 7-12.7 19.6-19.8 29-4.4 5.9-15 18.1-22.6 25.9-8.2 8.6-29.2 27.3-33.8 30.3-1.5 1-5.5 3.8-8.8 6.4-16.9 12.9-51.9 30.6-76.5 38.7-15.3 5-37.4 10.3-53.5 12.8-9.5 1.4-56.9 2.8-65.5 1.8zm-47.3-165.6c6-2.2 12.9-8.5 15.8-14.3 1.5-2.9 2-6 2-11.6 0-10.4-2.3-13.7-17.1-23.5-8.1-5.4-11.6-8.4-12.8-10.8-2.1-4.4-2-5.4.4-9.4 6.2-10.2 20.8-9.5 26.3 1.2l2 3.9 2.4-2.7c5.1-6 1.4-14.3-7.3-16.5-12.1-3.1-27.3 6-31.5 18.6-1.7 5.3-.7 12.6 2.4 16.6 1.4 1.9 7.7 6.9 14 11.2 6.3 4.3 12.2 9.1 13.1 10.6 4 6.7.6 15.6-7.4 19.7-8.1 4.1-16.6 2-23.3-5.8-2-2.4-3.8-4.2-4-3.9-.2.2-1.9 2.6-3.7 5.3l-3.3 4.9 2.9 2.4c8.8 7.2 17.3 8.4 29.1 4.1zm66.5-9.9c4.7-2.4 13.1-10.6 15.4-15.1 1.8-3.5 2.6-3 4.3 3.1 1.7 5.7 6 10.1 10 10.1s8.5-4 15-13.4c4.3-6.3 4.8-7.5 3.4-8-1.2-.5-2.8.6-5.6 3.9-4.1 4.8-8.3 7.5-10.5 6.8-.7-.3-2-1.9-2.9-3.6-2.6-4.8-2-15.6 2.2-45 2.1-14.2 3.5-26 3.2-26.3-.3-.3-3.4 1.2-6.8 3.3l-6.4 3.8-1.5 26.6-1.5 26.5-3.5 5.7c-3.9 6.4-9.1 12.1-13.5 14.9-4.3 2.6-10.7 2.4-14.2-.6-2.5-2.2-2.8-3.1-3.1-10.3-.2-4.9 1-18.2 3.3-36.2 1.9-15.6 3.4-28.5 3.2-28.7-.1-.2-3.2 1.4-6.8 3.6l-6.5 3.9-1.7 26.3c-2.1 32.6-2.2 39-.1 43.4 1.9 4 3.3 5.2 8.1 7 4.7 1.8 11 1.1 16.5-1.7zm69.9-10.2c.4-.5 1-2.8 1.3-5.1 1.1-6.6 6.4-26.6 8.6-32.6 3.7-9.6 12.1-24.6 16.6-29.8l4.3-5-3.2-.6c-2.7-.6-3.5-.2-5.3 2-3 3.7-11 19-15 28.7l-3.4 8.2.6-5.5c.3-3 1.3-12.5 2.3-21l1.6-15.5-5.4-.3c-3-.2-5.8.1-6.2.5-.9.9-5.9 66.6-5.9 76.6v4.7l4.3-2.1c2.3-1.2 4.5-2.6 4.8-3.2zm59.7-5.2c1.6-1.3 5.3-5.9 8.2-10 4-5.9 5-7.9 4-8.8-.9-.9-2.2 0-5.8 4-5.1 5.6-8.2 7.6-10.5 6.7-2.1-.8-4.7-7.6-4.7-12.2 0-3 2.5-24.8 4.4-38.7.4-3 .2-3.1-5.3-4.6l-5.8-1.5-1.2 26.1c-1.5 29-1.2 32.1 4 38 3.9 4.4 8.3 4.7 12.7 1z" fill="#1c2173"/>
    <g fill="#fe3147">
        <path d="M382.7 491.3c-1-1.6-4.7-21.4-4.7-25v-3.5l4.8 2.8c2.6 1.5 6.1 3.6 7.8 4.6l3 1.8 4.2-6c2.3-3.2 4.2-6.1 4.2-6.4 0-.3-2.2-1.7-4.8-3-2.6-1.3-7.8-4.5-11.6-7s-7-4.6-7.2-4.6c-.2 0-.4 3.8-.4 8.5s-.3 8.5-.6 8.5c-2 0-21-15.3-30.8-24.8-8.6-8.4-19.6-21.6-19.6-23.6 0-.6 2.1-1.8 4.7-2.5 18.2-4.8 37.1-21.7 47.5-42.4 8-16.1 11.1-30.1 10.6-49-.3-12.3-.5-13.6-3.3-19.2-3.5-7.1-8-10.5-13.6-10.5-19.2 0-41 34.4-49.8 78.5-3 15.3-5 51.9-5.1 92.8V481l-2.7 1.1c-1.5.5-4.7 1.3-7.1 1.6l-4.5.6.7-29.4c1-40.2.8-81.8-.4-97.4-1-12.3-1.5-16.9-4-33.2-2.6-16.3-3-14.3 4-19.1 3.4-2.3 6.5-4.2 6.9-4.2.8 0 2.6 9 4.1 20.5 2.6 21.4 3 25.4 3 30.8 0 9.2 1.3 7.7 6-7.3 1.3-4.1 2.7-7.9 3-8.5.4-.5 1.3-2.6 2-4.5 8.1-21.4 24.2-42.9 37.1-49.7 4.6-2.3 6.6-2.8 13.5-2.8 7.3 0 8.4.3 11.8 2.9 5.2 3.9 9.1 9.6 11.3 16.4 2.5 8 2.5 28-.1 37.7-6.5 24.8-21.7 48.6-41 64.2-4.4 3.6-9.6 7.3-11.6 8.3-6.5 3.3-6.5 3.9-.2 10.5 6.4 6.8 20 19 25 22.4l3.2 2.2v-2.4c0-3.9 3.6-20.9 6.1-29 3.2-9.9 12.9-28.7 19.3-37.2 10.5-14 24-26.3 37.5-34.5 30.2-18.1 62.7-23.7 98.6-17.1 14.2 2.6 35.7 12.2 49.3 22.1l8.3 6 3.7-2.9c2-1.6 5.6-3.5 7.9-4.1 3.6-1.1 4.6-1 8 .6 6.1 3 7.3 6.7 7.1 20.7-.2 12.8-.8 14.9-3 12.1-.7-1.1-2.9-3.2-4.7-4.9l-3.3-3 .4 20.5c.5 22.3 1.1 25.5 6.1 30.8 2.4 2.5 3.9 3.2 6.8 3.2 3.2 0 4.3-.7 7.3-4.2 2-2.3 3.6-4.5 3.6-5 0-.4.4-.8.9-.8 1.1 0 3.2 7.1 5.2 17.5 1.9 10 1.7 35.8-.4 46.4-1 4.7-1.9 8.6-2.1 8.9-.3.2-3.6-.4-7.5-1.3-6.9-1.7-7.1-1.9-7.2-4.9-.4-15.7-15.9-18.9-28.3-5.8-2.6 2.8-3.3 3.1-7.5 2.6-11-1.2-11.1-1.3-11.1-4.4 0-3.6-.9-3.7-6-.5-3.8 2.4-4.2 2.5-13.2 1.5-23-2.4-77.3-.9-107.3 3-14.3 1.8-42.8 7.5-55.5 11-10.3 2.8-13.6 3.4-14.3 2.3zm56.2-31.8c3.2-1.6 14.6-18.8 13.6-20.5-1.2-1.9-2.4-1-6.6 4.5-6.7 8.9-11.6 8.3-14-1.8-1.3-5.4-1-13.9 1.6-47.2.7-9.9 1.2-18.2 1-18.4-.2-.2-3 1.4-6.2 3.5l-5.8 3.9-.3 27.5c-.4 36.7 1.2 45.1 9.2 48.6 3.9 1.7 4.1 1.7 7.5-.1zm44.1-7c14.4-7.3 21.7-23.2 16.1-34.9-2.7-5.4-6.7-8.8-18.1-15-4.7-2.6-9.7-6-11.2-7.6-7.1-7.7.3-19 12.2-19 5.3 0 9 2.2 12.1 7.2l2.4 3.9 1.8-2.2c1-1.3 1.7-3.8 1.7-6.3 0-12.3-18.1-14.3-30.6-3.3-8.5 7.5-11.4 17.7-7.5 26.3 2.1 4.6 3.7 5.9 18 14.4 5.7 3.3 11.1 7 12.1 8.3 7.3 8.8-1.8 22.7-14.9 22.7-5.4 0-8.8-1.6-13.8-6.4-4.7-4.4-4.8-4.4-8.4 2.3l-2.4 4.3 3 2.4c1.7 1.3 4.8 3.1 7 3.9 5.1 1.9 15.8 1.4 20.5-1zm56.5-12.4c4.3-2.6 14.2-18.8 12.6-20.4-1-.9-1.9-.3-4.4 2.8-6.9 8.6-9.9 10.2-13 6.7-4.3-4.8-4.4-12.3-.7-60.7.4-6 .7-11.1.5-11.3-.1-.2-3 1.4-6.3 3.5l-6.1 3.8-.1 28.1c0 36.7 1.5 44.5 9.4 48 4.1 1.7 4.6 1.7 8.1-.5zm34.7-11.7c.4-2.2 1.6-9.3 2.7-15.9 3.4-20.2 12.6-43.5 20.8-52.6l3.3-3.6-2.1-1.9c-2.1-1.9-2.1-1.9-5.1 1.6-3.8 4.5-10.9 19.2-14.4 30-1.5 4.7-3 8.8-3.3 9.2-.3.4-.2-9.4.2-21.8.5-12.4.7-22.8.4-23.1-.3-.2-3 1.2-6.1 3.3l-5.6 3.7V437l4.3-2.4c3.5-2 4.3-3.1 4.9-6.2zm38.2-67.7c-.3-2.3-1.4-4.7-2.3-5.4-2.1-1.6-5.4-1.6-6.9-.1-1 1-.2 2.3 3.5 6 2.5 2.6 5 4.5 5.5 4.2.5-.4.6-2.5.2-4.7z"/>
        <path d="M606 480.8c-4.1-.9-4.3-1.1-2.5-2.4 3.1-2.3 7.3-2.1 9.3.4 2.6 3.4 1.3 3.8-6.8 2zM661.1 469.9c-6.4-1.2-6.7-2-3.6-7.7l2.7-5 5.2 2.4c6.7 3.1 14.7 3.2 19.6.3 11.8-7.1 14.3-15.2 15.5-49.9.3-10.7.8-21 1.1-22.8 1.2-7.2-.7-6.7-4 1.1-9.1 20.9-21.4 31-33.6 27.7-5.4-1.5-8.5-4.3-11.6-10.7-2.5-5.1-2.8-6.6-2.7-15.7.2-16 4.9-30.4 13.7-42.2 9.1-12.3 17.1-17.4 26.9-17.4 3.5.1 7.3.7 8.7 1.5 3.5 2 5 1.8 5-.4 0-2 10.5-9.9 11.7-8.8.3.3 0 7.5-.6 15.9s-1.5 23.2-2.1 32.8c-3.1 54.4-3.8 62-5.9 67.5-5.1 13.2-13.4 23.5-22.5 27.9-3 1.5-8.1 3.1-11.3 3.6-6.5 1.1-6.1 1.1-12.2-.1zm16.6-63c8-3 17.1-18.3 21.8-36.4 2-7.8 3.9-24.9 3.1-28.1-.8-2.9-8.8-8.4-12.3-8.4-3.9 0-11.9 4.7-15.2 8.9-3.9 4.9-8.4 14.8-10.1 22.1-.7 3-1.6 6.8-2.1 8.4-1.3 4.2-1.1 20.7.2 24.7 1.8 5.4 6.4 9.6 10.6 9.8.6.1 2.4-.4 4-1zM626.1 413.1c-3.7-3.7-4.7-10.8-3.4-24.4.7-8 .7-8 8.4 7.5 2.8 5.6 5.3 10.5 5.6 10.8.2.2 1.4-.8 2.6-2.3 1.6-1.9 2.6-2.4 3.6-1.8 1.2.7.9 1.8-1.5 5.8-2.8 4.7-2.8 4.8-3.7 2.3l-.9-2.6-3.3 3.3c-3.8 3.8-4.8 4-7.4 1.4zM425.3 336c-2.9-1.7-3.3-2.5-3.3-6.4 0-3.6.5-4.8 2.6-6.5 8.4-6.6 18.3 4.7 10.8 12.3-3.2 3.1-5.8 3.3-10.1.6zM523.7 316.2c-1-1.1-1.7-3.5-1.7-6 0-4.9 3.4-8.2 8.6-8.2 6.1 0 9.5 7.9 5.8 13.5-1.4 2.1-2.4 2.5-6.4 2.5-3.3 0-5.2-.5-6.3-1.8z"/>
    </g>
    <path style="fill:#000;fill-opacity:0" d="M921.937 396.245h265.81v250h-265.81z"/>
    <path style="fill:#000;fill-opacity:0" d="M1079.051 390.316h174.901v316.206h-174.901z"/>
    <path style="fill:#000;fill-opacity:0" d="M1157.115 469.368h49.407v190.711h-49.407z"/>
    <path style="fill:#000;fill-opacity:0" d="M1259.99 724.475c-25.495-41.083-45.798-85.088-63.643-129.953-3.981-10.01-7.65-20.141-11.475-30.211-7.819-21.207-14.783-42.737-20.36-64.645-3.83-15.04-6.768-30.293-9.828-45.5-3.23-17.237-6.006-34.552-8.995-51.832l-11.28 6.024c3.717 17.02 6.977 34.124 10.041 51.273 2.116 11.13 3.527 19.39 6.218 30.342 6.604 26.874 16.724 52.73 26.956 78.381 11.067 26.861 14.768 36.13 26.6 63.591 9.685 22.482 19.567 44.88 29.404 67.295 3.094 7.05 6.36 14.025 9.352 21.118 1.535 3.638 2.818 7.377 4.226 11.065l12.784-6.948z"/>
    <path style="fill:#000;fill-opacity:0" d="M1170.338 406.215c-3.26 15.263-8.657 30.007-13.854 44.689-10.265 26.828-23.217 52.518-37.493 77.413-7.044 12.283-13.075 21.892-20.445 33.87-10.083 16.263-20.088 32.728-27.004 50.647-3.918 10.151-4.936 14.7-7.878 25.141-.992 4.578-2.142 9.125-2.976 13.735-1.628 8.998-3.201 22.267-4.147 31.328-1.432 13.728-2.354 27.476-3.088 41.255l-.403 9.881 11.46-5.808c0-3.218.01-6.436.01-9.654.78-28.868 2.907-57.905 10.142-85.963 3.323-11.698 3.576-13.645 8.023-25.036 6.851-17.548 16.276-33.906 25.973-50.002 21.557-36.09 42.42-72.719 58.367-111.709 1.981-5.004 4.03-9.982 5.943-15.013 1.945-5.115 4.984-13.954 6.855-19.455.99-2.906 2.38-6.863 3.202-10 .17-.651.263-1.322.394-1.983l-13.079 6.664z"/>
    <path style="fill:#000;fill-opacity:0" d="M1098.205 698.037c7.387-26.715 19.29-51.955 32.006-76.486a835.717 835.717 0 0 1 16.561-30.368c5.372-9.391 11.15-18.545 16.724-27.817 16.266-25.704 33.7-51.317 56.898-71.361 12.872-11.123 15.066-11.52 29.85-20.292 11.339-3.975 21.873-9.95 33.356-13.56 3.002-.945 6.064-1.922 9.207-2.09 2.266-.122 5.283-.54 6.696 1.237 2.367 2.976 2.024 7.33 3.035 10.996-.222 6.16.134 12.368-.666 18.48-2.119 16.2-7.102 32.204-12.95 47.378-5.884 15.262-14.652 33.613-23.091 47.647-4.489 7.464-9.718 14.457-14.577 21.686-6.782 7.293-13.082 15.067-20.347 21.879-18.66 17.493-35.155 28.632-57.737 41.128-10.156 5.62-20.63 10.708-31.357 15.14-14.72 6.079-29.473 12.368-44.892 16.352-19.748 5.102-40.153 7.205-60.229 10.808-21.53 1.475-43.021 3.767-64.592 4.424-20.646.63-41.323.2-61.964-.57-18.329-.682-36.626-2.143-54.894-3.78-24.332-2.182-54.763-6.254-79.35-10.367-8.564-1.432-17.062-3.234-25.593-4.851-2.497-.564-25.996-5.572-30.628-7.546-3.071-1.309-6.98-2.432-8.402-5.453-2.217-4.712-1.93-10.364-1.483-15.553 2.515-29.233 9.775-31.209 27.743-59.382 12.631-13.771 24.537-28.245 37.895-41.313 30.174-29.521 59.967-52.725 94.514-76.834 20.658-14.416 56.777-37.327 80.674-49.622 11.06-5.69 22.632-10.324 33.948-15.486 10.154-2.992 20.114-6.746 30.462-8.977 15.117-3.259 32.727-4.408 48.231-2.522 10.127 1.231 21.544 3.95 29.107 11.605 3.278 3.317 4.817 7.987 7.225 11.98.266 5.763 1.391 11.55.797 17.288-1.567 15.139-7.556 29.295-14.681 42.535-9.286 17.256-19.999 31.431-33.023 46.122-7.938 8.952-16.58 17.254-24.868 25.881-26.231 25.825-54.137 49.84-81.301 74.655-14.44 13.19-25.925 23.551-39.1 37.704-4.487 4.82-8.61 9.964-12.915 14.946-2.86 4.078-6.17 7.875-8.583 12.234-2.105 3.804-7.633 13.37 2.466 14.228 11.877 1.008 32.791-10.332 40.609-14.359 10.041-5.172 19.693-11.068 29.539-16.603l35.728-22.11-7.392 2.869-22.024 14.144c-9.464 5.26-18.733 10.884-28.39 15.78-7.714 3.91-25.703 13.181-36.755 13.058-8.901-.1-5.089-7.418-2.883-11.763 2.122-4.18 5.16-7.827 7.74-11.74 4.007-4.831 7.822-9.827 12.02-14.492 12.197-13.556 23.847-24.39 37.292-36.901 26.828-24.965 54.56-48.945 80.83-74.512 8.643-8.802 17.657-17.257 25.932-26.407 13.668-15.113 24.287-29.041 34.041-46.826 7.394-13.48 13.837-28.116 15.713-43.581.729-6.005-.312-12.094-.468-18.14-2.535-4.138-4.136-9.019-7.603-12.413-8.012-7.844-20.156-10.237-30.67-11.241-15.963-1.524-34.607-.005-50.053 3.516-10.683 2.435-20.958 6.402-31.437 9.603-11.7 5.446-23.692 10.306-35.102 16.338-26.656 14.09-63.1 36.991-87.527 54.171-35.128 24.707-64.006 47.313-95.085 77.123-14.068 13.493-26.844 28.272-40.266 42.407-20.043 28.713-28.776 31.701-32.593 62.338-.708 5.683-1.349 11.927.993 17.154 1.45 3.233 5.804 4.225 9.132 5.442 4.246 1.552 31.322 5.807 32.888 6.069 9.033 1.274 18.047 2.698 27.1 3.824 25.157 3.127 57.986 6.378 82.637 8.072 39.902 2.742 78.25 4.462 118.324 3.329 21.332-.604 42.603-2.59 63.904-3.885 19.405-3.058 39.122-4.552 58.214-9.174 15.127-3.663 29.713-9.444 44.018-15.576 14.738-6.318 28.912-13.917 42.934-21.697 11.401-6.325 22.626-13.043 33.266-20.58 22.806-16.155 28.352-23.917 47.01-43.712 4.83-7.25 10.027-14.268 14.488-21.75 8.385-14.065 17.14-32.601 23.096-47.82 5.99-15.304 11.364-31.967 14.112-48.244 1.082-6.41 1.137-12.952 1.706-19.428-.978-4.26-.35-9.257-2.935-12.783-1.49-2.033-4.92-1.508-7.437-1.364-6.218.356-17.176 5.117-22.248 7.242-19.18 8.036-18.52 8.45-40.838 20.17-14.703 8.835-17.167 9.374-29.826 20.555-22.396 19.782-38.773 45.206-54.2 70.489-5.422 9.214-10.984 18.347-16.265 27.643-19 33.446-36.814 67.6-51.785 103.053-.93 2.202-1.729 4.457-2.593 6.685l12.937-6.076z"/>
    <path style="fill:#000;fill-opacity:0" d="M1082.414 560.81c.704-1.344 1.329-2.734 2.113-4.033 14.25-23.605 33.057-44.244 52.508-63.638 5.61-5.593 11.48-10.92 17.221-16.38 5.838-5.19 20.154-18.516 27.602-23.09.512-.314-.11 1.56.462 1.745 3.046.984 6.613.064 9.49 1.468 8.861 4.327 12.071 12.572 16.918 20.447 2.066 5.332 4.614 10.503 6.199 15.998 4.596 15.929 5.788 33.567 2.102 49.813-2.491 10.979-4.716 13.383-10.028 22.626-5.577 6.87-5.21 7.146-11.548 12.46-5.203 4.361-7.135 4.723-11.978 9.952-6.85 7.395-7.441 9.884-12.483 19.014-3.974 10.455-6.875 15.103-6.492 26.81.486 14.86 7.255 29.547 22.65 34.002 4.199 1.215 8.738.27 13.107.406 13.735-6.401 20.554-8.127 31.085-22.932 5.553-7.806 4.3-23.771 4.392-32.209l-10.2 5.173c-1.307 45.846 1.822-11.389-5.173 31.738-.28 1.722 2.617 3.752 1.433 5.033-2.971 3.215-7.776 4.025-11.664 6.038-4.29.052-8.703 1.185-12.868.157-15.318-3.783-21.887-18.134-22.082-32.668-.153-11.401 2.983-16.432 7.048-26.554 5.67-9.536 5.896-11.309 13.38-18.941 5.17-5.271 6.94-5.435 12.156-10.086 5.62-5.012 5.894-6.117 10.675-12.514 4.926-9.392 6.92-11.683 9.08-22.693 3.193-16.28 1.69-34.224-2.69-50.127-1.542-5.596-3.97-10.909-5.954-16.363-4.483-8.05-7.777-17.261-16.58-21.935-11.254-5.975-22.118 2.969-31.269 8.481-5.925 3.57-21.966 18.82-26.072 22.582-5.588 5.411-11.279 10.719-16.765 16.234-20.3 20.41-39.89 41.877-56.306 65.59-.973 1.406-1.787 2.916-2.681 4.374l13.212-5.978zM909.692 562.734c.449 7.859 1.078 14.694-.009 22.792-1.784 13.288-5.88 27.025-11.328 39.24-2.518 5.647-5.332 11.223-8.89 16.28-2.584 3.672-6.25 6.45-9.375 9.676.968-1.13 3.387-1.985 2.903-3.392-5.34-15.512-7.609 14.035-7.255-11.098.204-14.416 11.265-25.218 19.918-35.299 5.469-7.426 13.959-11.563 20.274-18.04 2.659-2.728 5.476-5.541 7-9.031 2.908-6.653 2.116-15.943.211-22.645-.99-3.483-2.892-6.638-4.338-9.957-4.365-5.477-6.946-10.633-14.35-12.558-13.51-3.512-24.636 9.01-32.251 18.217-10.84 13.106-17.117 41.585-21.37 55.993-8.993 41.535-8.02 84.062-8.22 126.269l8.904-4.558c-.637-15.016-1.838-39.022-1.568-53.335.7-37 1.713-34.462 7.94-71.704 19.857-58.884 1.001-10.103 24.818-57.021.955-1.883-.234-5.023 1.558-6.14 2.646-1.652 6.282-1.297 9.334-.654 7.214 1.518 9.875 6.563 14.171 11.702 1.423 3.202 3.318 6.234 4.27 9.606 1.883 6.673 2.39 15.197-.639 21.725-1.557 3.36-4.318 6.05-6.892 8.712-6.162 6.37-14.244 10.717-19.596 17.97-8.96 10.59-20.358 21.951-20.637 36.955-.045 2.402 1.838 14.446 8.395 12.982 6.798-1.517 12.44-6.273 18.66-9.41 2.755-3.174 5.99-5.989 8.268-9.52 3.285-5.094 5.9-10.611 8.304-16.175 5.372-12.435 9.81-26.724 12.303-40.058 1.375-7.354 1.704-16.27 2.119-23.96l-12.632 6.436z"/>
    <path style="fill:#000;fill-opacity:0" d="M832.998 750.316c4.476-6.276 7.28-9.94 11.273-17.69 8.982-17.432 15.24-33.698 21.912-52.281 8.409-23.419 11.035-33.29 18.002-56.603 4.53-18.032 6.344-23.723 9.416-41.13.699-3.963 3.017-18.715 2.549-23.936-.137-1.533-.34-4.622-1.83-4.24-5.88 1.51-10.63 5.87-15.944 8.804-.147 5.466-1.168 10.98-.442 16.4 3.38 25.238 10.502 38.616 21.542 62.496 14.524 31.417 31.12 61.876 47.328 92.44 4.688 9.607 11.815 22.015 14.103 33.118.421 2.047-2.429 6.841-.423 6.255 14.426-4.22 10.65-14.055 13.163-25.001 2.194-9.558 5.204-18.91 7.806-28.364 6.126-21.338 14.317-42 20.974-63.162 2.605-8.282 5.18-16.59 7.136-25.049 1.492-6.455 5.122-20.846.494-28.333-1.434-2.32-4.627-2.891-6.941-4.337-3.124.065-6.283-.267-9.373.195-7.546 1.128-17.701 5.615-24.339 9.503-17.084 10.007-12.478 6.154-20.94 14.248l12.677-5.202c1.327-1.217 5.679-3.048 3.982-3.651-2.11-.75-7.641 4.496-6.055 2.914 1.849-1.843 4.532-2.6 6.882-3.739 4.82-2.336 12.054-5.378 17.322-6.391 2.876-.553 5.842-.428 8.763-.642 2.284 1.06 5.276 1.217 6.853 3.18 5.446 6.787 3.148 19.732 1.967 26.412-1.458 8.253-3.62 16.377-5.954 24.426-3.874 13.358-17.008 50.884-21.302 63.336-3.394 9.872-7.108 19.64-10.183 29.615-1.8 5.838-7.804 12.692-4.429 17.784 2.606 3.93 9.88-1.058 13.572-3.991 1.557-1.237-.476-3.99-1.188-5.848-4.144-10.813-11.222-21.97-16.809-31.74-11.583-19.695-21.142-35.396-31.75-55.992-6.01-11.666-12.012-23.362-17.169-35.43-9.384-21.962-16.91-40.318-17.427-64.15-.12-5.59 2.065-10.99 3.098-16.484-3.028 1.125-6.765 1.125-9.083 3.375-.938.91 2.206 1.767 2.467 3.047.639 3.13.26 6.391.11 9.582-.856 18.15-4.81 36.004-8.938 53.628-2.466 8.843-4.697 17.754-7.4 26.527-8.928 28.988-19.338 56.958-34.915 83.109-4.517 7.582-8.588 12.337-13.755 18.696l13.198-5.704z"/>
</svg>