<?xml version="1.0" standalone="no"?>
<!DOCTYPE svg PUBLIC "-//W3C//DTD SVG 20010904//EN"
 "http://www.w3.org/TR/2001/REC-SVG-20010904/DTD/svg10.dtd">
<svg version="1.0" xmlns="http://www.w3.org/2000/svg"
 width="300.000000pt" height="300.000000pt" viewBox="0 0 300.000000 300.000000"
 preserveAspectRatio="xMidYMid meet">
<metadata>
Created by potrace 1.10, written by Peter Selinger 2001-2011
</metadata>
<g transform="translate(0.000000,300.000000) scale(0.100000,-0.100000)"
fill="#ffffff" stroke="none">
<path d="M1385 2555 c-5 -2 -44 -11 -85 -20 -251 -57 -476 -243 -589 -487 -63
-136 -76 -201 -76 -378 0 -157 10 -221 50 -316 19 -47 27 -41 14 11 -6 22 -13
56 -16 75 -3 19 -9 37 -13 40 -10 6 -20 56 -27 132 -6 66 15 258 28 258 5 0 9
16 9 35 0 19 4 43 9 53 5 9 22 44 37 77 15 33 30 62 33 65 3 3 14 21 24 40 68
135 288 307 452 356 98 29 140 36 247 41 142 7 265 -12 348 -53 25 -12 63 -30
85 -39 123 -55 283 -204 350 -325 31 -55 68 -132 71 -145 1 -5 10 -37 19 -70
32 -114 35 -130 35 -210 0 -107 -10 -186 -23 -178 -6 3 -8 2 -5 -3 6 -10 -6
-98 -17 -126 -4 -10 -3 -18 2 -18 5 0 17 28 27 62 138 496 -174 1009 -676
1112 -67 14 -281 21 -313 11z"/>
<path d="M1071 2134 c-31 -26 -101 -153 -101 -183 0 -10 -6 -26 -14 -36 -12
-17 -13 -13 -9 31 2 27 1 73 -4 102 -8 51 -9 52 -29 38 -20 -14 -21 -20 -11
-63 6 -26 10 -144 11 -260 0 -192 2 -213 17 -213 14 0 17 20 23 153 10 221 37
319 109 395 64 67 113 27 105 -87 -8 -110 -83 -222 -160 -238 -16 -3 -28 -10
-28 -14 0 -12 130 -139 141 -139 5 0 9 10 9 23 0 30 -90 114 -102 95 -6 -10
-8 -10 -8 -1 0 7 7 18 16 25 124 101 174 181 174 283 0 48 -5 68 -21 89 -27
35 -76 35 -118 0z"/>
<path d="M1079 2093 c-13 -16 -12 -17 4 -4 9 7 17 15 17 17 0 8 -8 3 -21 -13z"/>
<path d="M1565 2080 c-9 -15 4 -30 26 -30 12 0 19 7 19 20 0 21 -33 29 -45 10z"/>
<path d="M1090 2059 c0 -5 5 -7 10 -4 6 3 10 8 10 11 0 2 -4 4 -10 4 -5 0 -10
-5 -10 -11z"/>
<path d="M1271 2026 c-16 -19 -6 -36 20 -36 15 0 20 6 17 22 -4 27 -21 33 -37
14z"/>
<path d="M1450 2026 c-30 -6 -75 -22 -99 -35 -109 -57 -202 -186 -205 -284 -1
-43 2 -49 29 -65 17 -9 32 -18 34 -20 3 -1 -3 -10 -12 -20 -14 -14 -21 -14
-37 -4 -11 6 -22 12 -25 12 -5 0 -1 -27 11 -71 3 -12 -12 -22 -63 -39 -38 -13
-100 -37 -139 -55 -84 -38 -234 -132 -234 -147 0 -12 64 -122 91 -158 47 -60
159 -165 221 -206 158 -105 305 -148 503 -147 148 1 235 20 359 77 194 89 334
224 428 410 21 43 38 79 36 81 -2 1 -41 23 -88 48 -96 52 -204 95 -304 122
-51 14 -71 24 -79 42 -5 12 -18 25 -28 28 -20 7 -60 -14 -56 -30 1 -5 -8 -26
-20 -45 -11 -19 -29 -60 -38 -90 -28 -87 -34 -100 -45 -100 -6 0 -8 29 -4 78
10 145 13 162 35 162 25 0 25 16 0 23 -11 3 -22 -1 -25 -8 -3 -9 -17 -12 -44
-8 -47 6 -46 8 -62 -113 -14 -108 -3 -136 35 -94 27 30 31 16 5 -20 -26 -36
-63 -38 -68 -4 -3 19 -5 19 -36 -12 -37 -37 -66 -43 -91 -17 -15 14 -16 30
-10 117 6 75 12 104 24 113 9 7 18 13 21 13 3 0 -1 -45 -8 -100 -17 -116 -13
-133 25 -128 47 5 73 57 73 144 0 64 3 75 23 90 21 15 16 16 -93 10 -101 -6
-188 -18 -297 -41 -27 -6 -33 -4 -33 9 0 9 11 21 25 26 14 5 27 21 31 36 6 22
1 31 -25 51 -30 24 -38 59 -18 79 4 4 7 15 7 25 0 28 42 100 82 138 51 50 58
55 98 70 19 8 39 18 45 23 5 4 27 8 50 9 32 0 36 2 20 9 -14 7 -2 9 43 8 34
-1 62 -5 62 -10 0 -4 18 -8 39 -8 22 0 43 -4 46 -10 3 -5 15 -10 26 -10 22 0
26 -18 5 -26 -19 -7 -27 -47 -28 -131 0 -100 -45 -174 -83 -137 -11 12 -15 38
-15 104 0 49 -2 94 -5 102 -5 11 32 45 39 36 2 -2 -1 -43 -5 -93 -5 -49 -6
-98 -3 -107 8 -26 29 -22 49 8 17 26 17 27 -4 21 -21 -5 -22 -3 -20 83 2 98
-2 110 -30 103 -46 -12 -54 -35 -49 -148 3 -99 5 -108 28 -126 32 -24 40 -24
71 5 24 22 28 23 42 9 13 -13 17 -13 40 1 19 13 26 28 31 74 7 59 33 123 51
129 7 2 11 -23 12 -68 1 -59 5 -75 24 -95 16 -17 30 -23 45 -20 18 5 24 1 29
-23 3 -16 3 -52 0 -80 -3 -32 -2 -51 5 -51 11 0 14 139 4 178 -6 22 -8 22 -25
6 -18 -16 -20 -16 -39 1 -16 15 -20 31 -20 89 1 65 2 69 15 52 8 -11 15 -41
15 -66 0 -56 4 -61 35 -46 25 11 36 29 12 20 -16 -6 -47 77 -47 127 0 47 -18
63 -54 49 -23 -8 -35 -6 -70 15 -92 54 -202 73 -296 51z m278 -159 c-3 -44 -2
-54 5 -36 19 51 50 109 59 109 5 0 8 -3 6 -7 -39 -78 -60 -129 -68 -172 -11
-58 -16 -71 -31 -71 -5 0 -9 51 -9 120 0 103 2 120 18 129 23 13 25 3 20 -72z
m111 47 c3 -16 1 -17 -13 -5 -19 16 -21 34 -3 29 6 -3 14 -13 16 -24z m1 -354
c0 -5 9 -10 21 -10 17 0 20 -5 15 -27 -13 -70 -15 -119 -7 -133 8 -12 14 -11
35 10 31 28 34 19 5 -21 -22 -32 -53 -38 -63 -13 -3 9 -6 52 -6 96 0 65 -3 83
-17 94 -17 13 -17 13 0 14 9 0 17 -4 17 -10z m-304 -82 c-7 -85 -30 -144 -47
-117 -7 12 -3 157 7 187 2 6 13 12 25 12 21 0 21 -3 15 -82z m125 75 c8 -50 9
-74 4 -108 -5 -34 -9 -40 -30 -41 -24 -2 -24 -1 -18 60 3 33 10 69 15 79 9 17
27 23 29 10z m-256 -60 c-3 -32 -8 -77 -9 -101 -2 -24 -6 -45 -9 -48 -3 -3 8
-19 24 -35 32 -33 72 -38 108 -13 19 14 27 14 47 4 18 -10 30 -11 49 -2 14 6
25 16 25 22 0 14 16 12 33 -4 12 -12 18 -12 41 4 15 9 27 20 26 24 -4 13 11
76 25 103 8 15 15 34 15 41 0 6 2 12 4 12 2 0 10 2 18 5 10 4 13 -11 13 -68 0
-81 14 -107 59 -107 34 0 85 64 69 88 -6 10 -16 16 -22 15 -17 -4 -32 34 -25
62 3 14 7 25 8 25 30 0 301 -102 316 -119 3 -3 23 -15 44 -26 53 -27 55 -52
11 -121 -19 -30 -35 -57 -35 -61 0 -9 -112 -136 -134 -152 -11 -8 -28 -23 -38
-33 -31 -31 -171 -118 -190 -118 -10 0 -18 -5 -18 -11 0 -6 -9 -9 -20 -6 -11
3 -18 2 -15 -3 6 -10 -142 -53 -160 -46 -8 3 -17 1 -20 -4 -8 -13 -194 -13
-274 1 -249 40 -509 224 -610 432 -13 27 -21 50 -20 51 37 28 101 66 113 66 9
0 25 9 36 20 11 11 23 20 26 20 3 0 34 13 68 29 70 34 211 81 240 81 16 0 17
-3 8 -12 -7 -7 -12 -29 -12 -49 0 -31 7 -43 40 -72 37 -32 53 -67 30 -67 -5 0
-10 4 -10 10 0 5 -7 7 -15 4 -8 -4 -15 -1 -15 5 0 20 -37 11 -53 -12 -18 -28
-8 -51 31 -70 33 -16 38 -16 83 6 35 18 49 35 69 89 8 25 5 32 -28 66 -20 21
-38 47 -40 58 -2 18 -2 19 12 0 22 -27 66 -14 66 19 0 13 -4 27 -10 30 -17 11
-11 25 11 25 20 0 21 -3 14 -57z m-54 28 c20 -16 22 -22 11 -33 -11 -11 -15
-10 -23 5 -18 31 -79 16 -79 -20 0 -6 20 -26 45 -43 52 -35 63 -65 41 -108
-21 -40 -66 -58 -106 -42 -31 13 -39 33 -19 46 7 4 16 -1 21 -10 12 -22 61
-20 82 3 22 24 14 40 -41 80 -33 24 -43 38 -43 59 0 35 42 76 81 81 4 1 17 -8
30 -18z"/>
<path d="M2058 2033 c7 -3 16 -2 19 1 4 3 -2 6 -13 5 -11 0 -14 -3 -6 -6z"/>
<path d="M2127 2022 c-12 -13 -26 -17 -47 -14 -43 6 -77 -21 -106 -81 -40 -87
-25 -177 30 -177 30 0 51 17 79 68 l24 43 -4 -73 c-6 -112 -11 -133 -38 -158
-22 -21 -29 -23 -55 -13 -30 11 -40 8 -40 -14 0 -20 60 -16 96 6 47 29 62 82
72 266 5 88 9 161 7 163 -1 1 -9 -6 -18 -16z m-35 -33 c18 -10 20 -17 14 -62
-15 -113 -90 -191 -117 -120 -15 41 7 130 41 165 32 32 34 32 62 17z"/>
<path d="M2050 1919 c0 -5 5 -7 10 -4 6 3 10 8 10 11 0 2 -4 4 -10 4 -5 0 -10
-5 -10 -11z"/>
<path d="M1011 1964 c0 -11 3 -14 6 -6 3 7 2 16 -1 19 -3 4 -6 -2 -5 -13z"/>
<path d="M1415 1907 c-34 -21 -54 -51 -55 -80 0 -33 34 -87 55 -87 15 0 45
-27 45 -40 0 -17 -32 -19 -61 -5 -32 17 -36 17 -63 3 -18 -10 -19 -6 -14 74 3
47 1 92 -4 101 -12 22 -35 22 -56 0 -25 -24 -30 -188 -8 -231 24 -46 48 -56
79 -32 19 15 31 17 54 11 36 -10 98 8 118 36 15 19 20 91 7 109 -4 5 -24 23
-44 38 -43 32 -42 54 1 31 32 -16 51 -5 51 30 0 46 -60 69 -105 42z m73 -19
c14 -14 16 -48 3 -48 -5 0 -11 7 -15 15 -7 18 -47 20 -64 3 -21 -21 -13 -37
31 -64 51 -33 57 -40 57 -80 0 -54 -65 -95 -114 -73 -28 13 -30 17 -17 38 8
12 12 12 26 -2 33 -33 85 -15 85 29 0 15 -15 30 -50 52 -42 26 -50 36 -50 61
0 20 9 37 31 55 33 28 58 33 77 14z m-190 -100 c-7 -80 -3 -138 10 -138 3 0
16 10 29 22 31 29 30 7 -1 -29 -20 -23 -28 -26 -43 -17 -25 15 -37 212 -14
232 8 6 18 12 21 12 3 0 2 -37 -2 -82z"/>
<path d="M1891 1874 c0 -11 3 -14 6 -6 3 7 2 16 -1 19 -3 4 -6 -2 -5 -13z"/>
<path d="M2151 1824 c0 -11 3 -14 6 -6 3 7 2 16 -1 19 -3 4 -6 -2 -5 -13z"/>
<path d="M2030 1680 c0 -5 5 -10 11 -10 5 0 7 5 4 10 -3 6 -8 10 -11 10 -2 0
-4 -4 -4 -10z"/>
<path d="M1735 1558 c-2 -7 -6 -35 -10 -63 l-6 -50 30 60 c17 33 31 61 31 63
1 9 -41 -1 -45 -10z"/>
</g>
</svg>
