<?xml version="1.0" encoding="UTF-8"?>
<svg xmlns="http://www.w3.org/2000/svg" xmlns:xlink="http://www.w3.org/1999/xlink" width="100pt" height="100pt" viewBox="0 0 100 100" version="1.1">
<g id="surface1">
<path style=" stroke:none;fill-rule:nonzero;fill:rgb(28.235294%,100%,98.431373%);fill-opacity:1;" d="M 23.648438 56.71875 C 23.648438 56.648438 23.589844 56.53125 23.511719 56.46875 C 23.429688 56.398438 23.300781 56.128906 23.210938 55.851562 C 23.121094 55.570312 22.898438 55.050781 22.730469 54.679688 C 22.558594 54.308594 22.410156 53.941406 22.390625 53.859375 C 22.378906 53.78125 22.28125 53.398438 22.179688 53.011719 C 22.070312 52.628906 21.898438 52.019531 21.808594 51.660156 C 21.71875 51.300781 21.601562 50.878906 21.550781 50.710938 C 21.511719 50.550781 21.421875 50.101562 21.351562 49.710938 C 21.28125 49.328125 21.171875 48.859375 21.089844 48.691406 C 21.019531 48.511719 20.988281 48.359375 21.03125 48.359375 C 21.078125 48.359375 21.058594 47.851562 20.988281 47.238281 C 20.730469 44.960938 20.839844 41.820312 21.25 39.210938 C 21.308594 38.828125 21.390625 38.320312 21.421875 38.078125 C 21.449219 37.851562 21.519531 37.628906 21.558594 37.601562 C 21.609375 37.570312 21.648438 37.460938 21.648438 37.351562 C 21.648438 36.960938 22.378906 34.5 22.75 33.609375 C 23.058594 32.890625 23.230469 32.460938 23.351562 32.089844 C 23.421875 31.851562 23.519531 31.660156 23.570312 31.660156 C 23.621094 31.660156 23.628906 31.609375 23.589844 31.539062 C 23.550781 31.480469 23.578125 31.378906 23.660156 31.320312 C 23.851562 31.171875 24.050781 30.800781 24.050781 30.609375 C 24.050781 30.53125 24.101562 30.460938 24.148438 30.460938 C 24.210938 30.460938 24.25 30.378906 24.25 30.289062 C 24.25 30.199219 24.308594 30.050781 24.390625 29.96875 C 24.519531 29.820312 24.910156 29.140625 25.21875 28.539062 C 25.300781 28.378906 25.410156 28.261719 25.460938 28.261719 C 25.511719 28.261719 25.570312 28.148438 25.609375 28.011719 C 25.640625 27.878906 25.738281 27.710938 25.820312 27.648438 C 25.898438 27.578125 26.019531 27.390625 26.089844 27.21875 C 26.160156 27.050781 26.359375 26.78125 26.53125 26.609375 C 26.699219 26.449219 26.898438 26.191406 26.96875 26.050781 C 27.101562 25.800781 27.488281 25.300781 28.070312 24.628906 C 28.21875 24.449219 28.351562 24.25 28.351562 24.191406 C 28.351562 24.121094 28.46875 24 28.628906 23.921875 C 28.78125 23.839844 29.191406 23.449219 29.539062 23.070312 C 29.898438 22.679688 30.25 22.359375 30.320312 22.359375 C 30.390625 22.359375 30.449219 22.289062 30.449219 22.210938 C 30.449219 22.128906 30.519531 22.058594 30.601562 22.058594 C 30.679688 22.058594 30.789062 21.96875 30.851562 21.859375 C 30.910156 21.75 31.011719 21.660156 31.078125 21.660156 C 31.148438 21.660156 31.449219 21.410156 31.75 21.109375 C 32.050781 20.808594 32.351562 20.570312 32.410156 20.558594 C 32.480469 20.558594 32.550781 20.488281 32.589844 20.410156 C 32.621094 20.328125 32.710938 20.261719 32.800781 20.261719 C 32.878906 20.261719 33.121094 20.101562 33.320312 19.898438 C 33.53125 19.699219 33.890625 19.449219 34.109375 19.351562 C 34.339844 19.238281 34.699219 18.988281 34.910156 18.800781 C 35.128906 18.609375 35.421875 18.421875 35.578125 18.390625 C 35.730469 18.359375 35.878906 18.289062 35.910156 18.25 C 35.941406 18.199219 36.050781 18.160156 36.160156 18.160156 C 36.261719 18.160156 36.351562 18.089844 36.351562 18.011719 C 36.351562 17.929688 36.441406 17.859375 36.550781 17.859375 C 36.660156 17.859375 36.75 17.808594 36.75 17.75 C 36.75 17.691406 36.808594 17.660156 36.890625 17.691406 C 36.96875 17.71875 37.058594 17.679688 37.089844 17.589844 C 37.128906 17.511719 37.21875 17.460938 37.300781 17.5 C 37.378906 17.53125 37.480469 17.488281 37.519531 17.421875 C 37.601562 17.300781 37.898438 17.128906 38.101562 17.109375 C 38.371094 17.078125 38.949219 16.828125 39.050781 16.699219 C 39.121094 16.628906 39.28125 16.558594 39.410156 16.558594 C 39.550781 16.558594 39.648438 16.5 39.648438 16.410156 C 39.648438 16.308594 39.808594 16.25 40.148438 16.199219 C 40.429688 16.160156 40.679688 16.089844 40.710938 16.050781 C 40.738281 16 40.890625 15.960938 41.039062 15.960938 C 41.359375 15.960938 42 15.71875 42.101562 15.558594 C 42.140625 15.5 42.261719 15.480469 42.359375 15.511719 C 42.46875 15.550781 42.628906 15.519531 42.71875 15.441406 C 42.808594 15.371094 43.019531 15.308594 43.191406 15.300781 C 43.71875 15.28125 44.289062 15.140625 44.460938 15 C 44.558594 14.910156 44.730469 14.878906 44.921875 14.921875 C 45.109375 14.960938 45.269531 14.929688 45.359375 14.839844 C 45.449219 14.761719 45.769531 14.710938 46.238281 14.699219 C 46.640625 14.691406 47 14.640625 47.039062 14.589844 C 47.070312 14.539062 48.558594 14.5 50.648438 14.5 C 53.429688 14.511719 54.25 14.539062 54.441406 14.640625 C 54.570312 14.71875 54.820312 14.761719 55.011719 14.738281 C 55.199219 14.71875 55.359375 14.738281 55.378906 14.789062 C 55.390625 14.828125 55.691406 14.890625 56.039062 14.910156 C 56.390625 14.929688 56.730469 15 56.808594 15.058594 C 56.878906 15.128906 57.039062 15.160156 57.171875 15.148438 C 57.300781 15.140625 57.511719 15.171875 57.648438 15.230469 C 58.121094 15.429688 58.609375 15.558594 58.871094 15.558594 C 59 15.558594 59.148438 15.589844 59.179688 15.628906 C 59.269531 15.710938 61.421875 16.460938 61.78125 16.53125 C 61.929688 16.558594 62.050781 16.609375 62.050781 16.648438 C 62.050781 16.730469 62.851562 17.078125 62.988281 17.058594 C 63.039062 17.050781 63.109375 17.089844 63.148438 17.160156 C 63.191406 17.21875 63.289062 17.28125 63.371094 17.300781 C 63.460938 17.308594 63.589844 17.371094 63.660156 17.429688 C 63.738281 17.488281 63.910156 17.570312 64.050781 17.609375 C 64.191406 17.648438 64.328125 17.730469 64.359375 17.78125 C 64.390625 17.828125 64.488281 17.878906 64.570312 17.898438 C 64.660156 17.910156 64.800781 17.980469 64.890625 18.050781 C 64.980469 18.121094 65.050781 18.160156 65.050781 18.121094 C 65.050781 18.089844 65.238281 18.191406 65.46875 18.359375 C 65.691406 18.519531 65.921875 18.660156 65.960938 18.660156 C 66 18.660156 66.449219 18.941406 66.941406 19.28125 C 67.441406 19.628906 68.058594 20.050781 68.308594 20.230469 C 68.570312 20.410156 68.808594 20.589844 68.839844 20.628906 C 68.871094 20.679688 69.171875 20.929688 69.5 21.179688 C 70.050781 21.589844 70.710938 22.179688 71.5 22.941406 C 72.929688 24.320312 75.5 27.621094 76.121094 28.859375 C 76.191406 29 76.339844 29.269531 76.460938 29.460938 C 76.671875 29.800781 77.558594 31.578125 78.078125 32.660156 C 78.460938 33.480469 78.851562 34.589844 79.199219 35.890625 C 79.28125 36.199219 79.421875 36.71875 79.511719 37.039062 C 79.691406 37.679688 79.949219 38.839844 79.929688 38.941406 C 79.929688 38.980469 79.941406 39.03125 79.949219 39.058594 C 79.96875 39.089844 80.050781 39.738281 80.148438 40.511719 C 80.359375 42.21875 80.359375 46.738281 80.160156 48.011719 C 79.941406 49.339844 79.558594 51.230469 79.410156 51.679688 C 79.328125 51.921875 79.238281 52.25 79.210938 52.410156 C 79.089844 52.949219 78.820312 53.808594 78.730469 53.898438 C 78.691406 53.960938 78.648438 54.058594 78.648438 54.140625 C 78.648438 54.328125 78.21875 55.261719 78.128906 55.261719 C 78.089844 55.261719 77.679688 55.019531 77.230469 54.730469 C 75.679688 53.738281 72.761719 52.238281 70.601562 51.328125 C 69.121094 50.710938 66.519531 49.820312 64.929688 49.398438 L 63.851562 49.109375 L 63.851562 48.75 C 63.851562 48.550781 63.921875 48.011719 64.019531 47.550781 C 64.320312 46 64.238281 44.070312 63.789062 42.339844 C 63.679688 41.898438 63.671875 41.710938 63.75 41.558594 C 63.820312 41.429688 63.828125 41.21875 63.789062 41.03125 C 63.75 40.851562 63.699219 40.769531 63.679688 40.839844 C 63.570312 41.140625 63.359375 40.890625 62.871094 39.890625 C 62.488281 39.109375 62.351562 38.691406 62.351562 38.398438 C 62.351562 38.148438 62.289062 37.929688 62.199219 37.859375 C 62.078125 37.761719 62.058594 37.558594 62.109375 36.769531 C 62.160156 36.011719 62.140625 35.730469 62.011719 35.441406 C 61.800781 34.949219 61.449219 34.71875 61.058594 34.808594 C 60.648438 34.898438 60.570312 35.058594 60.921875 35.058594 C 61.441406 35.070312 61.570312 35.269531 61.589844 36.078125 L 61.601562 36.808594 L 61.25 36.839844 C 60.949219 36.859375 60.839844 36.800781 60.410156 36.371094 C 60.019531 35.96875 59.941406 35.839844 60.03125 35.730469 C 60.199219 35.53125 59.820312 35.179688 59.609375 35.351562 C 59.5 35.441406 59.300781 35.351562 58.640625 34.859375 C 54.921875 32.171875 50.320312 31.660156 46.171875 33.480469 C 43.921875 34.460938 42.171875 35.851562 40.691406 37.808594 C 40.050781 38.660156 39.078125 40.539062 38.761719 41.53125 C 38.539062 42.25 38.148438 44.03125 38.148438 44.339844 C 38.148438 44.550781 37.539062 44.621094 37.230469 44.449219 C 36.929688 44.289062 35.398438 42.921875 34.730469 42.210938 C 34.390625 41.859375 34.148438 41.519531 34.148438 41.390625 C 34.148438 41.191406 34.128906 41.179688 33.828125 41.28125 C 33.648438 41.339844 33.460938 41.421875 33.421875 41.460938 C 33.308594 41.550781 34.109375 42.5 35.058594 43.429688 C 35.789062 44.140625 37.488281 45.539062 37.730469 45.628906 C 37.789062 45.660156 37.851562 45.808594 37.851562 45.96875 C 37.851562 46.121094 37.910156 46.289062 37.980469 46.328125 C 38.109375 46.410156 38.539062 48.269531 38.621094 49.109375 L 38.660156 49.511719 L 36.878906 50.089844 C 32.53125 51.488281 27.71875 53.941406 24.421875 56.429688 C 23.820312 56.878906 23.648438 56.949219 23.648438 56.71875 Z M 31.289062 47.859375 L 31.550781 47.761719 L 31.550781 45.789062 C 31.558594 41.640625 31.808594 37.378906 32.109375 36.289062 C 32.171875 36.089844 32.140625 36.058594 31.859375 36.058594 L 31.550781 36.058594 L 31.550781 35.460938 C 31.550781 35.140625 31.511719 34.539062 31.460938 34.140625 C 31.398438 33.738281 31.308594 32.960938 31.25 32.410156 C 31.179688 31.859375 31.089844 31.238281 31.039062 31.039062 L 30.941406 30.660156 L 30.550781 30.921875 C 30.328125 31.070312 30.179688 31.21875 30.199219 31.269531 C 30.230469 31.308594 30.300781 31.648438 30.351562 32.03125 C 30.398438 32.398438 30.511719 33.210938 30.601562 33.808594 C 30.738281 34.820312 30.980469 40.320312 30.898438 40.589844 C 30.878906 40.660156 30.839844 42.339844 30.800781 44.339844 C 30.738281 48.289062 30.710938 48.078125 31.289062 47.859375 Z M 67.601562 46.558594 C 67.75 46.488281 67.691406 46.46875 67.339844 46.46875 C 67.089844 46.460938 66.730469 46.410156 66.550781 46.351562 C 66.289062 46.261719 66.210938 46.261719 66.140625 46.371094 C 66.089844 46.449219 66.109375 46.53125 66.179688 46.578125 C 66.339844 46.679688 67.351562 46.671875 67.601562 46.558594 Z M 70.449219 43.511719 C 70.609375 43.140625 70.738281 42.019531 70.851562 40.210938 C 70.910156 39.21875 71 37.710938 71.050781 36.859375 C 71.101562 36.011719 71.171875 34.75 71.210938 34.058594 L 71.269531 32.820312 L 71.039062 32.980469 C 70.910156 33.058594 70.789062 33.230469 70.769531 33.351562 C 70.75 33.460938 70.671875 33.558594 70.589844 33.558594 C 70.480469 33.558594 70.46875 33.601562 70.550781 33.75 C 70.738281 34.109375 70.609375 36.121094 70.320312 37.230469 C 70.191406 37.710938 70.199219 37.75 70.371094 37.789062 C 70.578125 37.851562 70.589844 37.929688 70.449219 40.070312 C 70.339844 41.960938 70.261719 44.058594 70.320312 43.859375 C 70.351562 43.78125 70.398438 43.621094 70.449219 43.511719 Z M 67.328125 41.171875 C 67.421875 41.121094 67.339844 41.070312 67.078125 41.03125 C 66.628906 40.949219 66.230469 40.578125 66.058594 40.070312 C 65.921875 39.628906 65.921875 37.5 66.058594 36.890625 C 66.128906 36.621094 66.25 36.148438 66.351562 35.839844 C 66.558594 35.140625 66.460938 35.171875 66.101562 35.929688 C 65.601562 36.980469 65.339844 38 65.339844 38.949219 C 65.339844 39.570312 65.378906 39.78125 65.621094 40.25 C 65.78125 40.570312 66.050781 40.898438 66.238281 41.03125 C 66.578125 41.261719 67.089844 41.328125 67.328125 41.171875 Z M 38.980469 35.960938 C 39.851562 34.289062 40.199219 33.011719 40.179688 31.558594 C 40.160156 30.050781 39.789062 29.179688 38.878906 28.488281 C 38.421875 28.140625 37.699219 28.121094 37.101562 28.441406 L 36.699219 28.648438 L 37.359375 28.660156 C 38.230469 28.660156 38.589844 28.898438 39 29.710938 C 39.289062 30.289062 39.300781 30.359375 39.328125 31.929688 C 39.359375 33.160156 39.320312 33.761719 39.199219 34.378906 C 39.019531 35.261719 38.730469 36.210938 38.539062 36.578125 C 38.480469 36.710938 38.46875 36.769531 38.53125 36.710938 C 38.589844 36.660156 38.789062 36.320312 38.980469 35.960938 Z M 43.351562 33.140625 C 43.519531 32.949219 43.53125 32.898438 43.410156 32.71875 C 43.230469 32.441406 42.980469 32.398438 42.738281 32.621094 C 42.488281 32.839844 42.5 33.011719 42.769531 33.199219 C 43.058594 33.410156 43.101562 33.398438 43.351562 33.140625 Z M 53.390625 31.210938 C 53.539062 30.980469 53.539062 30.949219 53.320312 30.710938 L 53.101562 30.441406 L 52.820312 30.660156 C 52.511719 30.910156 52.488281 31.019531 52.71875 31.28125 C 52.941406 31.53125 53.199219 31.511719 53.390625 31.210938 Z M 53.390625 31.210938 "/>
<path style=" stroke:none;fill-rule:nonzero;fill:rgb(10.980392%,12.941176%,45.098039%);fill-opacity:1;" d="M 48.101562 73.839844 C 42.109375 73.171875 37.28125 71.339844 32.898438 68.078125 C 31.019531 66.691406 29.878906 65.628906 27.949219 63.5 C 26.808594 62.238281 25.078125 59.671875 24.101562 57.769531 C 23.648438 56.910156 23.570312 56.679688 23.660156 56.53125 C 23.71875 56.429688 24.328125 55.96875 25.019531 55.5 C 28.558594 53.078125 32.5 51.128906 36.519531 49.828125 C 37.96875 49.359375 38.289062 49.21875 38.238281 49.089844 C 38.210938 48.988281 38.261719 48.910156 38.371094 48.878906 C 40.121094 48.390625 42.660156 47.828125 44.148438 47.609375 C 47.171875 47.171875 48.761719 47.078125 52.960938 47.109375 C 56.53125 47.140625 56.878906 47.128906 57.128906 46.96875 C 57.269531 46.878906 57.570312 46.800781 57.800781 46.800781 C 58.171875 46.800781 58.199219 46.820312 58.199219 47.089844 C 58.199219 47.300781 58.261719 47.390625 58.429688 47.441406 C 58.910156 47.570312 59.261719 47.5 59.511719 47.238281 C 60.039062 46.660156 60.488281 46.46875 61.320312 46.460938 C 61.941406 46.449219 62.140625 46.488281 62.359375 46.660156 C 62.660156 46.878906 62.878906 47.378906 62.890625 47.859375 C 62.898438 48.160156 62.929688 48.179688 63.480469 48.308594 C 63.921875 48.421875 64.058594 48.5 64.078125 48.648438 C 64.101562 48.808594 64.300781 48.898438 65.179688 49.140625 C 66.769531 49.570312 69.371094 50.449219 70.851562 51.070312 C 73.769531 52.300781 78.199219 54.699219 78.199219 55.050781 C 78.199219 55.390625 76.980469 57.941406 76.148438 59.351562 C 75.738281 60.050781 74.878906 61.308594 74.171875 62.25 C 73.730469 62.839844 72.671875 64.058594 71.910156 64.839844 C 71.089844 65.699219 68.988281 67.570312 68.53125 67.871094 C 68.378906 67.96875 67.980469 68.25 67.648438 68.511719 C 65.960938 69.800781 62.460938 71.570312 60 72.378906 C 58.46875 72.878906 56.261719 73.410156 54.648438 73.660156 C 53.699219 73.800781 48.960938 73.941406 48.101562 73.839844 Z M 43.371094 57.28125 C 43.96875 57.058594 44.660156 56.429688 44.949219 55.851562 C 45.101562 55.558594 45.148438 55.25 45.148438 54.691406 C 45.148438 53.648438 44.921875 53.320312 43.441406 52.339844 C 42.628906 51.800781 42.28125 51.5 42.160156 51.261719 C 41.949219 50.820312 41.960938 50.71875 42.199219 50.320312 C 42.820312 49.300781 44.28125 49.371094 44.828125 50.441406 L 45.03125 50.828125 L 45.269531 50.558594 C 45.78125 49.960938 45.410156 49.128906 44.539062 48.910156 C 43.328125 48.601562 41.808594 49.511719 41.390625 50.769531 C 41.21875 51.300781 41.320312 52.03125 41.628906 52.429688 C 41.769531 52.621094 42.398438 53.121094 43.03125 53.550781 C 43.660156 53.980469 44.25 54.460938 44.339844 54.609375 C 44.738281 55.28125 44.398438 56.171875 43.601562 56.578125 C 42.789062 56.988281 41.941406 56.78125 41.269531 56 C 41.070312 55.761719 40.890625 55.578125 40.871094 55.609375 C 40.851562 55.628906 40.679688 55.871094 40.5 56.140625 L 40.171875 56.628906 L 40.460938 56.871094 C 41.339844 57.589844 42.191406 57.710938 43.371094 57.28125 Z M 50.019531 56.289062 C 50.488281 56.050781 51.328125 55.230469 51.558594 54.78125 C 51.738281 54.429688 51.820312 54.480469 51.988281 55.089844 C 52.160156 55.660156 52.589844 56.101562 52.988281 56.101562 C 53.390625 56.101562 53.839844 55.699219 54.488281 54.761719 C 54.921875 54.128906 54.96875 54.011719 54.828125 53.960938 C 54.710938 53.910156 54.550781 54.019531 54.269531 54.351562 C 53.859375 54.828125 53.441406 55.101562 53.21875 55.03125 C 53.148438 55 53.019531 54.839844 52.929688 54.671875 C 52.671875 54.191406 52.730469 53.109375 53.148438 50.171875 C 53.359375 48.75 53.5 47.570312 53.46875 47.539062 C 53.441406 47.511719 53.128906 47.660156 52.789062 47.871094 L 52.148438 48.25 L 52 50.910156 L 51.851562 53.558594 L 51.5 54.128906 C 51.109375 54.769531 50.589844 55.339844 50.148438 55.621094 C 49.71875 55.878906 49.078125 55.859375 48.730469 55.558594 C 48.480469 55.339844 48.449219 55.25 48.421875 54.53125 C 48.398438 54.039062 48.519531 52.710938 48.75 50.910156 C 48.941406 49.351562 49.089844 48.058594 49.070312 48.039062 C 49.058594 48.019531 48.75 48.179688 48.390625 48.398438 L 47.738281 48.789062 L 47.570312 51.421875 C 47.359375 54.679688 47.351562 55.320312 47.558594 55.761719 C 47.75 56.160156 47.890625 56.28125 48.371094 56.460938 C 48.839844 56.640625 49.46875 56.570312 50.019531 56.289062 Z M 57.011719 55.269531 C 57.050781 55.21875 57.109375 54.988281 57.140625 54.761719 C 57.25 54.101562 57.78125 52.101562 58 51.5 C 58.371094 50.539062 59.210938 49.039062 59.660156 48.519531 L 60.089844 48.019531 L 59.769531 47.960938 C 59.5 47.898438 59.421875 47.941406 59.238281 48.160156 C 58.941406 48.53125 58.140625 50.058594 57.738281 51.03125 L 57.398438 51.851562 L 57.460938 51.300781 C 57.488281 51 57.589844 50.050781 57.691406 49.199219 L 57.851562 47.648438 L 57.308594 47.621094 C 57.011719 47.601562 56.730469 47.628906 56.691406 47.671875 C 56.601562 47.761719 56.101562 54.328125 56.101562 55.328125 L 56.101562 55.800781 L 56.53125 55.589844 C 56.761719 55.46875 56.980469 55.328125 57.011719 55.269531 Z M 62.980469 54.75 C 63.140625 54.621094 63.511719 54.160156 63.800781 53.75 C 64.199219 53.160156 64.300781 52.960938 64.199219 52.871094 C 64.109375 52.78125 63.980469 52.871094 63.621094 53.269531 C 63.109375 53.828125 62.800781 54.03125 62.570312 53.941406 C 62.359375 53.859375 62.101562 53.179688 62.101562 52.71875 C 62.101562 52.421875 62.351562 50.238281 62.539062 48.851562 C 62.578125 48.550781 62.558594 48.539062 62.011719 48.390625 L 61.429688 48.238281 L 61.308594 50.851562 C 61.160156 53.75 61.191406 54.058594 61.710938 54.648438 C 62.101562 55.089844 62.539062 55.121094 62.980469 54.75 Z M 62.980469 54.75 "/>
<path style=" stroke:none;fill-rule:nonzero;fill:rgb(99.607843%,19.215686%,27.843137%);fill-opacity:1;" d="M 38.269531 49.128906 C 38.171875 48.96875 37.800781 46.988281 37.800781 46.628906 L 37.800781 46.28125 L 38.28125 46.558594 C 38.539062 46.710938 38.890625 46.921875 39.058594 47.019531 L 39.359375 47.199219 L 39.78125 46.601562 C 40.011719 46.28125 40.199219 45.988281 40.199219 45.960938 C 40.199219 45.929688 39.980469 45.789062 39.71875 45.660156 C 39.460938 45.53125 38.941406 45.210938 38.558594 44.960938 C 38.179688 44.710938 37.859375 44.5 37.839844 44.5 C 37.820312 44.5 37.800781 44.878906 37.800781 45.351562 C 37.800781 45.820312 37.769531 46.199219 37.738281 46.199219 C 37.539062 46.199219 35.640625 44.671875 34.660156 43.71875 C 33.800781 42.878906 32.699219 41.558594 32.699219 41.359375 C 32.699219 41.300781 32.910156 41.179688 33.171875 41.109375 C 34.988281 40.628906 36.878906 38.941406 37.921875 36.871094 C 38.71875 35.261719 39.03125 33.859375 38.980469 31.96875 C 38.949219 30.738281 38.929688 30.609375 38.648438 30.050781 C 38.300781 29.339844 37.851562 29 37.289062 29 C 35.371094 29 33.191406 32.441406 32.308594 36.851562 C 32.011719 38.378906 31.808594 42.039062 31.800781 46.128906 L 31.800781 48.101562 L 31.53125 48.210938 C 31.378906 48.261719 31.058594 48.339844 30.820312 48.371094 L 30.371094 48.429688 L 30.441406 45.488281 C 30.539062 41.46875 30.519531 37.308594 30.398438 35.75 C 30.300781 34.519531 30.25 34.058594 30 32.429688 C 29.738281 30.800781 29.699219 31 30.398438 30.519531 C 30.738281 30.289062 31.050781 30.101562 31.089844 30.101562 C 31.171875 30.101562 31.351562 31 31.5 32.148438 C 31.761719 34.289062 31.800781 34.691406 31.800781 35.230469 C 31.800781 36.148438 31.929688 36 32.398438 34.5 C 32.53125 34.089844 32.671875 33.710938 32.699219 33.648438 C 32.738281 33.601562 32.828125 33.390625 32.898438 33.199219 C 33.710938 31.058594 35.320312 28.910156 36.609375 28.230469 C 37.070312 28 37.269531 27.949219 37.960938 27.949219 C 38.691406 27.949219 38.800781 27.980469 39.140625 28.238281 C 39.660156 28.628906 40.050781 29.199219 40.269531 29.878906 C 40.519531 30.679688 40.519531 32.679688 40.261719 33.648438 C 39.609375 36.128906 38.089844 38.511719 36.160156 40.070312 C 35.71875 40.429688 35.199219 40.800781 35 40.898438 C 34.351562 41.230469 34.351562 41.289062 34.980469 41.949219 C 35.621094 42.628906 36.980469 43.851562 37.480469 44.191406 L 37.800781 44.410156 L 37.800781 44.171875 C 37.800781 43.78125 38.160156 42.078125 38.410156 41.269531 C 38.730469 40.28125 39.699219 38.398438 40.339844 37.550781 C 41.390625 36.148438 42.738281 34.921875 44.089844 34.101562 C 47.109375 32.289062 50.359375 31.730469 53.949219 32.390625 C 55.371094 32.648438 57.519531 33.609375 58.878906 34.601562 L 59.710938 35.199219 L 60.078125 34.910156 C 60.28125 34.75 60.640625 34.558594 60.871094 34.5 C 61.230469 34.390625 61.328125 34.398438 61.671875 34.558594 C 62.28125 34.859375 62.398438 35.230469 62.378906 36.628906 C 62.359375 37.910156 62.300781 38.121094 62.078125 37.839844 C 62.011719 37.730469 61.789062 37.519531 61.609375 37.351562 L 61.28125 37.050781 L 61.320312 39.101562 C 61.371094 41.328125 61.429688 41.648438 61.929688 42.179688 C 62.171875 42.429688 62.320312 42.5 62.609375 42.5 C 62.929688 42.5 63.039062 42.429688 63.339844 42.078125 C 63.539062 41.851562 63.699219 41.628906 63.699219 41.578125 C 63.699219 41.539062 63.738281 41.5 63.789062 41.5 C 63.898438 41.5 64.109375 42.210938 64.308594 43.25 C 64.5 44.25 64.480469 46.828125 64.269531 47.890625 C 64.171875 48.359375 64.078125 48.75 64.058594 48.78125 C 64.03125 48.800781 63.699219 48.738281 63.308594 48.648438 C 62.621094 48.480469 62.601562 48.460938 62.589844 48.160156 C 62.550781 46.589844 61 46.269531 59.761719 47.578125 C 59.5 47.859375 59.429688 47.890625 59.011719 47.839844 C 57.910156 47.71875 57.898438 47.710938 57.898438 47.398438 C 57.898438 47.039062 57.808594 47.03125 57.300781 47.351562 C 56.921875 47.589844 56.878906 47.601562 55.980469 47.5 C 53.679688 47.261719 48.25 47.410156 45.25 47.800781 C 43.820312 47.980469 40.96875 48.550781 39.699219 48.898438 C 38.671875 49.179688 38.339844 49.238281 38.269531 49.128906 Z M 43.890625 45.949219 C 44.210938 45.789062 45.351562 44.070312 45.25 43.898438 C 45.128906 43.710938 45.011719 43.800781 44.589844 44.351562 C 43.921875 45.238281 43.429688 45.179688 43.191406 44.171875 C 43.058594 43.628906 43.089844 42.78125 43.351562 39.449219 C 43.421875 38.460938 43.46875 37.628906 43.449219 37.609375 C 43.429688 37.589844 43.148438 37.75 42.828125 37.960938 L 42.25 38.351562 L 42.21875 41.101562 C 42.179688 44.769531 42.339844 45.609375 43.140625 45.960938 C 43.53125 46.128906 43.550781 46.128906 43.890625 45.949219 Z M 48.300781 45.25 C 49.738281 44.519531 50.46875 42.929688 49.910156 41.761719 C 49.640625 41.21875 49.238281 40.878906 48.101562 40.261719 C 47.628906 40 47.128906 39.660156 46.980469 39.5 C 46.269531 38.730469 47.011719 37.601562 48.199219 37.601562 C 48.730469 37.601562 49.101562 37.820312 49.410156 38.320312 L 49.648438 38.710938 L 49.828125 38.488281 C 49.929688 38.359375 50 38.109375 50 37.859375 C 50 36.628906 48.191406 36.429688 46.941406 37.53125 C 46.089844 38.28125 45.800781 39.300781 46.191406 40.160156 C 46.398438 40.621094 46.558594 40.75 47.988281 41.601562 C 48.558594 41.929688 49.101562 42.300781 49.199219 42.429688 C 49.929688 43.308594 49.019531 44.699219 47.710938 44.699219 C 47.171875 44.699219 46.828125 44.539062 46.328125 44.058594 C 45.859375 43.621094 45.851562 43.621094 45.488281 44.289062 L 45.25 44.71875 L 45.550781 44.960938 C 45.71875 45.089844 46.03125 45.269531 46.25 45.351562 C 46.761719 45.539062 47.828125 45.488281 48.300781 45.25 Z M 53.949219 44.011719 C 54.378906 43.75 55.371094 42.128906 55.210938 41.96875 C 55.109375 41.878906 55.019531 41.941406 54.769531 42.25 C 54.078125 43.109375 53.78125 43.269531 53.46875 42.921875 C 53.039062 42.441406 53.03125 41.691406 53.398438 36.851562 C 53.441406 36.25 53.46875 35.738281 53.449219 35.71875 C 53.441406 35.699219 53.148438 35.859375 52.820312 36.070312 L 52.210938 36.449219 L 52.199219 39.261719 C 52.199219 42.929688 52.351562 43.710938 53.140625 44.058594 C 53.550781 44.230469 53.601562 44.230469 53.949219 44.011719 Z M 57.421875 42.839844 C 57.460938 42.621094 57.578125 41.910156 57.691406 41.25 C 58.03125 39.230469 58.949219 36.898438 59.769531 35.988281 L 60.101562 35.628906 L 59.890625 35.441406 C 59.679688 35.25 59.679688 35.25 59.378906 35.601562 C 59 36.050781 58.289062 37.519531 57.941406 38.601562 C 57.789062 39.070312 57.640625 39.480469 57.609375 39.519531 C 57.578125 39.558594 57.589844 38.578125 57.628906 37.339844 C 57.679688 36.101562 57.699219 35.058594 57.671875 35.03125 C 57.640625 35.011719 57.371094 35.148438 57.058594 35.359375 L 56.5 35.730469 L 56.5 43.699219 L 56.929688 43.460938 C 57.28125 43.261719 57.359375 43.148438 57.421875 42.839844 Z M 61.238281 36.070312 C 61.210938 35.839844 61.101562 35.601562 61.011719 35.53125 C 60.800781 35.371094 60.46875 35.371094 60.320312 35.519531 C 60.21875 35.621094 60.300781 35.75 60.671875 36.121094 C 60.921875 36.378906 61.171875 36.570312 61.21875 36.539062 C 61.269531 36.5 61.28125 36.289062 61.238281 36.070312 Z M 61.238281 36.070312 "/>
<path style=" stroke:none;fill-rule:nonzero;fill:rgb(99.607843%,19.215686%,27.843137%);fill-opacity:1;" d="M 60.601562 48.078125 C 60.191406 47.988281 60.171875 47.96875 60.351562 47.839844 C 60.660156 47.609375 61.078125 47.628906 61.28125 47.878906 C 61.539062 48.21875 61.410156 48.261719 60.601562 48.078125 Z M 66.109375 46.988281 C 65.46875 46.871094 65.441406 46.789062 65.75 46.21875 L 66.019531 45.71875 L 66.539062 45.960938 C 67.210938 46.269531 68.011719 46.28125 68.5 45.988281 C 69.679688 45.28125 69.929688 44.46875 70.050781 41 C 70.078125 39.929688 70.128906 38.898438 70.160156 38.71875 C 70.28125 38 70.089844 38.050781 69.761719 38.828125 C 68.851562 40.921875 67.621094 41.929688 66.398438 41.601562 C 65.859375 41.449219 65.550781 41.171875 65.238281 40.53125 C 64.988281 40.019531 64.960938 39.871094 64.96875 38.960938 C 64.988281 37.359375 65.460938 35.921875 66.339844 34.738281 C 67.25 33.511719 68.050781 33 69.03125 33 C 69.378906 33.011719 69.761719 33.070312 69.898438 33.148438 C 70.25 33.351562 70.398438 33.328125 70.398438 33.109375 C 70.398438 32.910156 71.449219 32.121094 71.570312 32.230469 C 71.601562 32.261719 71.570312 32.980469 71.511719 33.820312 C 71.449219 34.660156 71.359375 36.140625 71.300781 37.101562 C 70.988281 42.539062 70.921875 43.300781 70.710938 43.851562 C 70.199219 45.171875 69.371094 46.199219 68.460938 46.640625 C 68.160156 46.789062 67.648438 46.949219 67.328125 47 C 66.679688 47.109375 66.71875 47.109375 66.109375 46.988281 Z M 67.769531 40.691406 C 68.570312 40.390625 69.480469 38.859375 69.949219 37.050781 C 70.148438 36.269531 70.339844 34.558594 70.261719 34.238281 C 70.179688 33.949219 69.378906 33.398438 69.03125 33.398438 C 68.640625 33.398438 67.839844 33.871094 67.511719 34.289062 C 67.121094 34.78125 66.671875 35.769531 66.5 36.5 C 66.429688 36.800781 66.339844 37.179688 66.289062 37.339844 C 66.160156 37.761719 66.179688 39.410156 66.308594 39.808594 C 66.488281 40.351562 66.949219 40.769531 67.371094 40.789062 C 67.429688 40.800781 67.609375 40.75 67.769531 40.691406 Z M 62.609375 41.308594 C 62.238281 40.941406 62.140625 40.230469 62.269531 38.871094 C 62.339844 38.070312 62.339844 38.070312 63.109375 39.621094 C 63.390625 40.179688 63.640625 40.671875 63.671875 40.699219 C 63.691406 40.71875 63.808594 40.621094 63.929688 40.46875 C 64.089844 40.28125 64.191406 40.230469 64.289062 40.289062 C 64.410156 40.359375 64.378906 40.46875 64.140625 40.871094 C 63.859375 41.339844 63.859375 41.351562 63.769531 41.101562 L 63.679688 40.839844 L 63.351562 41.171875 C 62.96875 41.550781 62.871094 41.570312 62.609375 41.308594 Z M 42.53125 33.601562 C 42.238281 33.429688 42.199219 33.351562 42.199219 32.960938 C 42.199219 32.601562 42.25 32.480469 42.460938 32.308594 C 43.300781 31.648438 44.289062 32.78125 43.539062 33.539062 C 43.21875 33.851562 42.960938 33.871094 42.53125 33.601562 Z M 52.371094 31.621094 C 52.269531 31.511719 52.199219 31.269531 52.199219 31.019531 C 52.199219 30.53125 52.539062 30.199219 53.058594 30.199219 C 53.671875 30.199219 54.011719 30.988281 53.640625 31.550781 C 53.5 31.761719 53.398438 31.800781 53 31.800781 C 52.671875 31.800781 52.480469 31.75 52.371094 31.621094 Z M 52.371094 31.621094 "/>
</g>
</svg>
