<?xml version="1.0" encoding="UTF-8"?>
<svg xmlns="http://www.w3.org/2000/svg" xmlns:xlink="http://www.w3.org/1999/xlink" width="32pt" height="32pt" viewBox="0 0 32 32" version="1.1">
<g id="surface1">
<path style=" stroke:none;fill-rule:nonzero;fill:rgb(28.235294%,100%,98.431373%);fill-opacity:1;" d="M 7.566406 18.152344 C 7.566406 18.128906 7.546875 18.089844 7.523438 18.070312 C 7.496094 18.046875 7.457031 17.960938 7.425781 17.871094 C 7.398438 17.78125 7.328125 17.617188 7.273438 17.496094 C 7.21875 17.378906 7.171875 17.261719 7.164062 17.234375 C 7.160156 17.210938 7.128906 17.089844 7.097656 16.964844 C 7.0625 16.839844 7.007812 16.644531 6.980469 16.53125 C 6.949219 16.414062 6.910156 16.28125 6.894531 16.226562 C 6.882812 16.175781 6.855469 16.03125 6.832031 15.90625 C 6.808594 15.785156 6.773438 15.636719 6.75 15.582031 C 6.726562 15.523438 6.71875 15.476562 6.730469 15.476562 C 6.746094 15.476562 6.738281 15.3125 6.71875 15.117188 C 6.632812 14.386719 6.667969 13.382812 6.800781 12.546875 C 6.820312 12.425781 6.84375 12.261719 6.855469 12.1875 C 6.863281 12.113281 6.886719 12.042969 6.898438 12.03125 C 6.914062 12.023438 6.929688 11.988281 6.929688 11.953125 C 6.929688 11.828125 7.160156 11.039062 7.28125 10.753906 C 7.378906 10.523438 7.433594 10.386719 7.472656 10.269531 C 7.496094 10.191406 7.527344 10.132812 7.542969 10.132812 C 7.558594 10.132812 7.5625 10.113281 7.546875 10.09375 C 7.535156 10.074219 7.546875 10.042969 7.570312 10.023438 C 7.632812 9.972656 7.695312 9.855469 7.695312 9.796875 C 7.695312 9.769531 7.710938 9.746094 7.726562 9.746094 C 7.746094 9.746094 7.761719 9.722656 7.761719 9.691406 C 7.761719 9.664062 7.777344 9.617188 7.804688 9.589844 C 7.847656 9.542969 7.972656 9.324219 8.070312 9.132812 C 8.097656 9.082031 8.132812 9.042969 8.148438 9.042969 C 8.164062 9.042969 8.183594 9.007812 8.195312 8.964844 C 8.203125 8.921875 8.238281 8.867188 8.261719 8.847656 C 8.289062 8.824219 8.328125 8.765625 8.347656 8.710938 C 8.371094 8.65625 8.433594 8.570312 8.488281 8.515625 C 8.542969 8.464844 8.609375 8.378906 8.628906 8.335938 C 8.671875 8.257812 8.796875 8.097656 8.980469 7.882812 C 9.03125 7.824219 9.070312 7.761719 9.070312 7.742188 C 9.070312 7.71875 9.109375 7.679688 9.160156 7.65625 C 9.210938 7.628906 9.339844 7.503906 9.453125 7.382812 C 9.566406 7.257812 9.679688 7.15625 9.703125 7.15625 C 9.726562 7.15625 9.742188 7.132812 9.742188 7.105469 C 9.742188 7.082031 9.765625 7.058594 9.792969 7.058594 C 9.816406 7.058594 9.851562 7.03125 9.871094 6.996094 C 9.890625 6.960938 9.921875 6.929688 9.945312 6.929688 C 9.96875 6.929688 10.0625 6.851562 10.160156 6.753906 C 10.257812 6.660156 10.351562 6.582031 10.371094 6.578125 C 10.394531 6.578125 10.414062 6.558594 10.429688 6.53125 C 10.4375 6.503906 10.46875 6.484375 10.496094 6.484375 C 10.523438 6.484375 10.597656 6.433594 10.664062 6.367188 C 10.730469 6.304688 10.84375 6.222656 10.914062 6.191406 C 10.988281 6.15625 11.105469 6.078125 11.171875 6.015625 C 11.242188 5.957031 11.335938 5.894531 11.386719 5.886719 C 11.433594 5.875 11.480469 5.851562 11.492188 5.839844 C 11.5 5.824219 11.535156 5.8125 11.570312 5.8125 C 11.601562 5.8125 11.632812 5.789062 11.632812 5.761719 C 11.632812 5.738281 11.660156 5.714844 11.695312 5.714844 C 11.730469 5.714844 11.761719 5.699219 11.761719 5.679688 C 11.761719 5.660156 11.777344 5.652344 11.804688 5.660156 C 11.832031 5.671875 11.859375 5.65625 11.867188 5.628906 C 11.882812 5.601562 11.910156 5.585938 11.9375 5.601562 C 11.960938 5.609375 11.992188 5.597656 12.007812 5.574219 C 12.03125 5.535156 12.128906 5.480469 12.191406 5.476562 C 12.277344 5.464844 12.464844 5.386719 12.496094 5.34375 C 12.519531 5.320312 12.570312 5.300781 12.609375 5.300781 C 12.65625 5.300781 12.6875 5.28125 12.6875 5.25 C 12.6875 5.21875 12.738281 5.199219 12.847656 5.183594 C 12.9375 5.171875 13.019531 5.148438 13.027344 5.136719 C 13.035156 5.121094 13.085938 5.105469 13.132812 5.105469 C 13.234375 5.105469 13.441406 5.03125 13.472656 4.980469 C 13.484375 4.960938 13.523438 4.953125 13.554688 4.964844 C 13.589844 4.976562 13.640625 4.964844 13.671875 4.941406 C 13.699219 4.917969 13.765625 4.898438 13.820312 4.894531 C 13.992188 4.890625 14.171875 4.84375 14.226562 4.800781 C 14.257812 4.769531 14.3125 4.761719 14.375 4.773438 C 14.433594 4.789062 14.488281 4.777344 14.515625 4.75 C 14.542969 4.722656 14.644531 4.707031 14.796875 4.703125 C 14.925781 4.699219 15.039062 4.683594 15.054688 4.667969 C 15.0625 4.652344 15.539062 4.640625 16.207031 4.640625 C 17.097656 4.644531 17.359375 4.652344 17.421875 4.683594 C 17.460938 4.710938 17.542969 4.722656 17.601562 4.71875 C 17.664062 4.710938 17.714844 4.71875 17.722656 4.734375 C 17.726562 4.746094 17.820312 4.765625 17.933594 4.769531 C 18.042969 4.777344 18.152344 4.800781 18.179688 4.820312 C 18.203125 4.839844 18.253906 4.851562 18.292969 4.847656 C 18.335938 4.84375 18.402344 4.855469 18.449219 4.875 C 18.597656 4.9375 18.753906 4.980469 18.839844 4.980469 C 18.878906 4.980469 18.929688 4.988281 18.9375 5 C 18.964844 5.027344 19.65625 5.265625 19.769531 5.289062 C 19.816406 5.300781 19.855469 5.316406 19.855469 5.328125 C 19.855469 5.355469 20.113281 5.464844 20.15625 5.460938 C 20.171875 5.457031 20.195312 5.46875 20.207031 5.492188 C 20.222656 5.511719 20.253906 5.53125 20.277344 5.535156 C 20.308594 5.539062 20.347656 5.558594 20.371094 5.578125 C 20.398438 5.597656 20.453125 5.621094 20.496094 5.636719 C 20.539062 5.648438 20.585938 5.671875 20.59375 5.691406 C 20.605469 5.707031 20.636719 5.722656 20.664062 5.726562 C 20.691406 5.730469 20.734375 5.753906 20.765625 5.777344 C 20.792969 5.796875 20.816406 5.8125 20.816406 5.796875 C 20.816406 5.789062 20.875 5.820312 20.949219 5.875 C 21.019531 5.925781 21.09375 5.972656 21.105469 5.972656 C 21.121094 5.972656 21.265625 6.0625 21.421875 6.167969 C 21.582031 6.28125 21.777344 6.414062 21.859375 6.472656 C 21.941406 6.53125 22.019531 6.589844 22.027344 6.601562 C 22.039062 6.617188 22.132812 6.699219 22.238281 6.777344 C 22.414062 6.910156 22.628906 7.097656 22.878906 7.339844 C 23.335938 7.78125 24.160156 8.839844 24.359375 9.234375 C 24.378906 9.28125 24.429688 9.367188 24.46875 9.425781 C 24.535156 9.535156 24.820312 10.105469 24.984375 10.453125 C 25.105469 10.714844 25.230469 11.070312 25.34375 11.484375 C 25.371094 11.585938 25.414062 11.75 25.441406 11.851562 C 25.5 12.058594 25.585938 12.429688 25.578125 12.460938 C 25.578125 12.472656 25.582031 12.488281 25.585938 12.5 C 25.589844 12.507812 25.617188 12.71875 25.648438 12.964844 C 25.714844 13.511719 25.714844 14.957031 25.652344 15.363281 C 25.582031 15.789062 25.460938 16.394531 25.410156 16.539062 C 25.386719 16.613281 25.355469 16.71875 25.347656 16.769531 C 25.308594 16.945312 25.222656 17.21875 25.195312 17.246094 C 25.179688 17.265625 25.167969 17.300781 25.167969 17.324219 C 25.167969 17.386719 25.03125 17.683594 25 17.683594 C 24.988281 17.683594 24.859375 17.605469 24.714844 17.511719 C 24.21875 17.195312 23.28125 16.71875 22.59375 16.425781 C 22.117188 16.226562 21.285156 15.941406 20.777344 15.808594 L 20.433594 15.714844 L 20.433594 15.601562 C 20.433594 15.535156 20.453125 15.363281 20.488281 15.214844 C 20.582031 14.71875 20.558594 14.101562 20.414062 13.546875 C 20.378906 13.40625 20.375 13.347656 20.398438 13.300781 C 20.421875 13.257812 20.425781 13.191406 20.414062 13.128906 C 20.398438 13.070312 20.382812 13.046875 20.378906 13.070312 C 20.34375 13.164062 20.273438 13.085938 20.117188 12.765625 C 19.996094 12.515625 19.953125 12.378906 19.953125 12.289062 C 19.953125 12.207031 19.933594 12.136719 19.902344 12.113281 C 19.867188 12.082031 19.859375 12.019531 19.875 11.765625 C 19.890625 11.523438 19.886719 11.433594 19.84375 11.339844 C 19.777344 11.183594 19.664062 11.109375 19.539062 11.140625 C 19.40625 11.167969 19.382812 11.21875 19.496094 11.21875 C 19.660156 11.222656 19.703125 11.285156 19.707031 11.546875 L 19.710938 11.777344 L 19.601562 11.789062 C 19.503906 11.796875 19.46875 11.777344 19.332031 11.636719 C 19.207031 11.511719 19.179688 11.46875 19.210938 11.433594 C 19.265625 11.371094 19.140625 11.257812 19.074219 11.3125 C 19.039062 11.339844 18.976562 11.3125 18.765625 11.15625 C 17.574219 10.292969 16.101562 10.132812 14.773438 10.714844 C 14.054688 11.027344 13.496094 11.472656 13.019531 12.097656 C 12.816406 12.371094 12.503906 12.972656 12.402344 13.289062 C 12.332031 13.519531 12.207031 14.089844 12.207031 14.1875 C 12.207031 14.257812 12.011719 14.277344 11.914062 14.222656 C 11.816406 14.171875 11.328125 13.734375 11.113281 13.507812 C 11.003906 13.394531 10.929688 13.285156 10.929688 13.246094 C 10.929688 13.179688 10.921875 13.175781 10.824219 13.210938 C 10.769531 13.230469 10.707031 13.253906 10.695312 13.265625 C 10.660156 13.296875 10.914062 13.601562 11.21875 13.898438 C 11.453125 14.125 11.996094 14.574219 12.074219 14.601562 C 12.09375 14.609375 12.113281 14.660156 12.113281 14.710938 C 12.113281 14.757812 12.132812 14.8125 12.152344 14.824219 C 12.195312 14.851562 12.332031 15.445312 12.359375 15.714844 L 12.371094 15.84375 L 11.800781 16.027344 C 10.410156 16.476562 8.871094 17.261719 7.8125 18.058594 C 7.621094 18.203125 7.566406 18.222656 7.566406 18.152344 Z M 10.011719 15.316406 L 10.097656 15.28125 L 10.097656 14.652344 C 10.097656 13.324219 10.179688 11.960938 10.273438 11.613281 C 10.292969 11.546875 10.285156 11.539062 10.195312 11.539062 L 10.097656 11.539062 L 10.097656 11.347656 C 10.097656 11.246094 10.082031 11.054688 10.066406 10.925781 C 10.046875 10.796875 10.019531 10.546875 10 10.371094 C 9.976562 10.195312 9.949219 9.996094 9.933594 9.933594 L 9.902344 9.8125 L 9.777344 9.894531 C 9.707031 9.941406 9.65625 9.992188 9.664062 10.007812 C 9.671875 10.019531 9.695312 10.128906 9.710938 10.25 C 9.726562 10.367188 9.761719 10.628906 9.792969 10.820312 C 9.835938 11.140625 9.914062 12.902344 9.886719 12.988281 C 9.882812 13.011719 9.867188 13.546875 9.855469 14.1875 C 9.835938 15.453125 9.828125 15.386719 10.011719 15.316406 Z M 21.632812 14.898438 C 21.679688 14.875 21.660156 14.871094 21.546875 14.871094 C 21.46875 14.867188 21.355469 14.851562 21.296875 14.832031 C 21.210938 14.804688 21.1875 14.804688 21.164062 14.839844 C 21.148438 14.863281 21.15625 14.890625 21.175781 14.90625 C 21.230469 14.9375 21.550781 14.933594 21.632812 14.898438 Z M 22.542969 13.921875 C 22.59375 13.804688 22.636719 13.445312 22.671875 12.867188 C 22.691406 12.550781 22.71875 12.066406 22.734375 11.796875 C 22.753906 11.523438 22.773438 11.121094 22.789062 10.898438 L 22.804688 10.503906 L 22.734375 10.554688 C 22.691406 10.578125 22.652344 10.632812 22.644531 10.671875 C 22.640625 10.707031 22.613281 10.738281 22.589844 10.738281 C 22.554688 10.738281 22.550781 10.753906 22.574219 10.800781 C 22.636719 10.914062 22.59375 11.558594 22.503906 11.914062 C 22.460938 12.066406 22.464844 12.078125 22.519531 12.09375 C 22.585938 12.113281 22.589844 12.136719 22.542969 12.824219 C 22.507812 13.425781 22.484375 14.097656 22.503906 14.035156 C 22.511719 14.007812 22.527344 13.957031 22.542969 13.921875 Z M 21.546875 13.175781 C 21.574219 13.160156 21.546875 13.140625 21.464844 13.128906 C 21.320312 13.105469 21.195312 12.984375 21.140625 12.824219 C 21.09375 12.679688 21.09375 12 21.140625 11.804688 C 21.160156 11.71875 21.199219 11.566406 21.230469 11.46875 C 21.300781 11.246094 21.265625 11.253906 21.152344 11.496094 C 20.992188 11.832031 20.910156 12.160156 20.910156 12.464844 C 20.910156 12.664062 20.921875 12.730469 21 12.878906 C 21.050781 12.980469 21.136719 13.089844 21.195312 13.128906 C 21.304688 13.203125 21.46875 13.226562 21.546875 13.175781 Z M 12.472656 11.507812 C 12.753906 10.972656 12.863281 10.5625 12.859375 10.097656 C 12.851562 9.617188 12.734375 9.335938 12.441406 9.117188 C 12.292969 9.003906 12.0625 9 11.871094 9.101562 L 11.742188 9.167969 L 11.957031 9.171875 C 12.234375 9.171875 12.347656 9.246094 12.480469 9.507812 C 12.574219 9.691406 12.574219 9.714844 12.585938 10.21875 C 12.59375 10.609375 12.582031 10.804688 12.542969 11 C 12.488281 11.28125 12.394531 11.585938 12.332031 11.707031 C 12.3125 11.746094 12.308594 11.765625 12.328125 11.746094 C 12.347656 11.730469 12.414062 11.621094 12.472656 11.507812 Z M 13.871094 10.605469 C 13.925781 10.542969 13.929688 10.527344 13.890625 10.46875 C 13.832031 10.378906 13.753906 10.367188 13.675781 10.4375 C 13.597656 10.507812 13.601562 10.5625 13.6875 10.625 C 13.777344 10.691406 13.792969 10.6875 13.871094 10.605469 Z M 17.085938 9.988281 C 17.132812 9.914062 17.132812 9.902344 17.0625 9.828125 L 16.992188 9.742188 L 16.902344 9.8125 C 16.804688 9.890625 16.796875 9.925781 16.871094 10.007812 C 16.941406 10.089844 17.023438 10.082031 17.085938 9.988281 Z M 17.085938 9.988281 "/>
<path style=" stroke:none;fill-rule:nonzero;fill:rgb(10.980392%,12.941176%,45.098039%);fill-opacity:1;" d="M 15.390625 23.628906 C 13.476562 23.414062 11.929688 22.828125 10.527344 21.785156 C 9.925781 21.339844 9.5625 21 8.945312 20.320312 C 8.578125 19.917969 8.027344 19.09375 7.710938 18.488281 C 7.566406 18.210938 7.542969 18.136719 7.570312 18.089844 C 7.589844 18.058594 7.785156 17.910156 8.007812 17.761719 C 9.140625 16.984375 10.398438 16.363281 11.6875 15.945312 C 12.152344 15.796875 12.253906 15.75 12.238281 15.707031 C 12.226562 15.675781 12.242188 15.652344 12.277344 15.640625 C 12.839844 15.484375 13.652344 15.304688 14.128906 15.234375 C 15.09375 15.09375 15.601562 15.066406 16.945312 15.074219 C 18.089844 15.085938 18.203125 15.082031 18.28125 15.03125 C 18.328125 15 18.421875 14.976562 18.496094 14.976562 C 18.613281 14.976562 18.625 14.980469 18.625 15.070312 C 18.625 15.136719 18.644531 15.164062 18.699219 15.179688 C 18.851562 15.222656 18.964844 15.199219 19.042969 15.117188 C 19.210938 14.929688 19.355469 14.871094 19.621094 14.867188 C 19.820312 14.863281 19.886719 14.875 19.957031 14.929688 C 20.050781 15 20.121094 15.160156 20.125 15.316406 C 20.128906 15.410156 20.136719 15.417969 20.3125 15.460938 C 20.453125 15.496094 20.5 15.519531 20.503906 15.566406 C 20.511719 15.621094 20.574219 15.648438 20.859375 15.726562 C 21.367188 15.863281 22.199219 16.144531 22.671875 16.34375 C 23.605469 16.734375 25.023438 17.503906 25.023438 17.617188 C 25.023438 17.726562 24.632812 18.539062 24.367188 18.992188 C 24.238281 19.214844 23.960938 19.621094 23.734375 19.921875 C 23.59375 20.109375 23.253906 20.5 23.011719 20.75 C 22.75 21.023438 22.078125 21.621094 21.929688 21.71875 C 21.882812 21.75 21.753906 21.839844 21.648438 21.921875 C 21.105469 22.335938 19.988281 22.902344 19.199219 23.160156 C 18.710938 23.320312 18.003906 23.492188 17.488281 23.570312 C 17.183594 23.617188 15.667969 23.660156 15.390625 23.628906 Z M 13.878906 18.328125 C 14.070312 18.257812 14.292969 18.058594 14.382812 17.871094 C 14.433594 17.777344 14.449219 17.679688 14.449219 17.5 C 14.449219 17.167969 14.375 17.0625 13.902344 16.75 C 13.640625 16.574219 13.53125 16.480469 13.492188 16.402344 C 13.425781 16.261719 13.425781 16.230469 13.503906 16.101562 C 13.703125 15.777344 14.167969 15.796875 14.34375 16.140625 L 14.410156 16.265625 L 14.488281 16.179688 C 14.648438 15.988281 14.53125 15.722656 14.253906 15.652344 C 13.867188 15.550781 13.378906 15.84375 13.246094 16.246094 C 13.191406 16.414062 13.222656 16.648438 13.320312 16.777344 C 13.367188 16.839844 13.566406 17 13.769531 17.136719 C 13.972656 17.273438 14.160156 17.425781 14.1875 17.476562 C 14.316406 17.691406 14.207031 17.972656 13.953125 18.105469 C 13.691406 18.238281 13.421875 18.167969 13.207031 17.921875 C 13.140625 17.84375 13.085938 17.785156 13.078125 17.796875 C 13.070312 17.800781 13.019531 17.878906 12.960938 17.964844 L 12.855469 18.121094 L 12.945312 18.199219 C 13.230469 18.429688 13.5 18.46875 13.878906 18.328125 Z M 16.007812 18.011719 C 16.15625 17.9375 16.425781 17.671875 16.5 17.53125 C 16.558594 17.417969 16.582031 17.433594 16.636719 17.628906 C 16.691406 17.8125 16.828125 17.953125 16.957031 17.953125 C 17.085938 17.953125 17.230469 17.824219 17.4375 17.523438 C 17.574219 17.320312 17.589844 17.28125 17.546875 17.265625 C 17.507812 17.25 17.457031 17.285156 17.367188 17.390625 C 17.234375 17.546875 17.101562 17.632812 17.03125 17.609375 C 17.007812 17.601562 16.964844 17.546875 16.9375 17.496094 C 16.855469 17.339844 16.875 16.996094 17.007812 16.054688 C 17.074219 15.601562 17.121094 15.222656 17.109375 15.210938 C 17.101562 15.203125 17 15.25 16.894531 15.320312 L 16.6875 15.441406 L 16.640625 16.292969 L 16.59375 17.140625 L 16.480469 17.320312 C 16.355469 17.527344 16.1875 17.707031 16.046875 17.796875 C 15.910156 17.882812 15.707031 17.875 15.59375 17.777344 C 15.511719 17.707031 15.503906 17.679688 15.496094 17.449219 C 15.488281 17.292969 15.527344 16.867188 15.601562 16.292969 C 15.660156 15.792969 15.707031 15.378906 15.703125 15.371094 C 15.699219 15.367188 15.601562 15.417969 15.484375 15.488281 L 15.277344 15.613281 L 15.222656 16.453125 C 15.15625 17.496094 15.152344 17.703125 15.21875 17.84375 C 15.28125 17.972656 15.324219 18.007812 15.476562 18.066406 C 15.628906 18.125 15.832031 18.101562 16.007812 18.011719 Z M 18.242188 17.6875 C 18.257812 17.671875 18.273438 17.597656 18.285156 17.523438 C 18.320312 17.3125 18.488281 16.671875 18.558594 16.480469 C 18.679688 16.171875 18.945312 15.691406 19.089844 15.527344 L 19.230469 15.367188 L 19.125 15.347656 C 19.039062 15.328125 19.015625 15.339844 18.957031 15.410156 C 18.859375 15.53125 18.605469 16.019531 18.476562 16.328125 L 18.367188 16.59375 L 18.386719 16.414062 C 18.398438 16.320312 18.429688 16.015625 18.460938 15.742188 L 18.511719 15.246094 L 18.339844 15.238281 C 18.242188 15.230469 18.152344 15.242188 18.140625 15.253906 C 18.113281 15.28125 17.953125 17.386719 17.953125 17.707031 L 17.953125 17.855469 L 18.089844 17.789062 C 18.164062 17.75 18.234375 17.707031 18.242188 17.6875 Z M 20.152344 17.519531 C 20.203125 17.476562 20.324219 17.332031 20.414062 17.199219 C 20.542969 17.011719 20.574219 16.945312 20.542969 16.917969 C 20.515625 16.890625 20.472656 16.917969 20.359375 17.046875 C 20.195312 17.226562 20.097656 17.289062 20.023438 17.261719 C 19.957031 17.234375 19.871094 17.019531 19.871094 16.871094 C 19.871094 16.773438 19.953125 16.078125 20.011719 15.632812 C 20.027344 15.535156 20.019531 15.53125 19.84375 15.484375 L 19.65625 15.4375 L 19.621094 16.273438 C 19.570312 17.199219 19.582031 17.300781 19.746094 17.488281 C 19.871094 17.628906 20.011719 17.636719 20.152344 17.519531 Z M 20.152344 17.519531 "/>
<path style=" stroke:none;fill-rule:nonzero;fill:rgb(99.607843%,19.215686%,27.843137%);fill-opacity:1;" d="M 12.246094 15.722656 C 12.214844 15.671875 12.097656 15.035156 12.097656 14.921875 L 12.097656 14.808594 L 12.25 14.898438 C 12.332031 14.945312 12.445312 15.015625 12.5 15.046875 L 12.59375 15.105469 L 12.730469 14.910156 C 12.804688 14.808594 12.863281 14.71875 12.863281 14.707031 C 12.863281 14.699219 12.792969 14.652344 12.710938 14.609375 C 12.628906 14.570312 12.460938 14.46875 12.339844 14.386719 C 12.21875 14.308594 12.113281 14.238281 12.109375 14.238281 C 12.101562 14.238281 12.097656 14.363281 12.097656 14.511719 C 12.097656 14.664062 12.085938 14.785156 12.078125 14.785156 C 12.011719 14.785156 11.40625 14.292969 11.089844 13.992188 C 10.816406 13.722656 10.464844 13.300781 10.464844 13.234375 C 10.464844 13.214844 10.53125 13.175781 10.613281 13.15625 C 11.195312 13 11.800781 12.460938 12.132812 11.796875 C 12.390625 11.28125 12.488281 10.835938 12.472656 10.230469 C 12.464844 9.835938 12.457031 9.796875 12.367188 9.617188 C 12.257812 9.390625 12.113281 9.28125 11.933594 9.28125 C 11.320312 9.28125 10.621094 10.378906 10.339844 11.792969 C 10.242188 12.28125 10.179688 13.453125 10.175781 14.761719 L 10.175781 15.390625 L 10.089844 15.425781 C 10.042969 15.441406 9.9375 15.46875 9.863281 15.476562 L 9.71875 15.496094 L 9.742188 14.558594 C 9.773438 13.269531 9.765625 11.9375 9.726562 11.441406 C 9.695312 11.046875 9.679688 10.898438 9.601562 10.378906 C 9.515625 9.855469 9.503906 9.921875 9.726562 9.765625 C 9.835938 9.691406 9.9375 9.632812 9.949219 9.632812 C 9.972656 9.632812 10.03125 9.921875 10.078125 10.289062 C 10.164062 10.972656 10.175781 11.101562 10.175781 11.273438 C 10.175781 11.566406 10.21875 11.519531 10.367188 11.039062 C 10.410156 10.910156 10.453125 10.789062 10.464844 10.769531 C 10.476562 10.753906 10.503906 10.683594 10.527344 10.625 C 10.789062 9.9375 11.300781 9.25 11.714844 9.035156 C 11.863281 8.960938 11.925781 8.945312 12.148438 8.945312 C 12.378906 8.945312 12.414062 8.953125 12.523438 9.035156 C 12.691406 9.160156 12.816406 9.34375 12.886719 9.5625 C 12.964844 9.816406 12.964844 10.457031 12.882812 10.769531 C 12.675781 11.5625 12.1875 12.324219 11.570312 12.824219 C 11.429688 12.9375 11.265625 13.054688 11.199219 13.089844 C 10.992188 13.195312 10.992188 13.210938 11.195312 13.425781 C 11.398438 13.640625 11.832031 14.03125 11.992188 14.140625 L 12.097656 14.210938 L 12.097656 14.132812 C 12.097656 14.007812 12.210938 13.464844 12.292969 13.207031 C 12.394531 12.890625 12.703125 12.289062 12.910156 12.015625 C 13.246094 11.566406 13.675781 11.175781 14.109375 10.910156 C 15.074219 10.332031 16.113281 10.152344 17.265625 10.363281 C 17.71875 10.449219 18.40625 10.753906 18.839844 11.070312 L 19.105469 11.265625 L 19.226562 11.171875 C 19.289062 11.121094 19.40625 11.058594 19.476562 11.039062 C 19.59375 11.003906 19.625 11.007812 19.734375 11.058594 C 19.929688 11.15625 19.96875 11.273438 19.960938 11.722656 C 19.957031 12.132812 19.9375 12.199219 19.867188 12.109375 C 19.84375 12.074219 19.773438 12.007812 19.714844 11.953125 L 19.609375 11.855469 L 19.621094 12.511719 C 19.636719 13.226562 19.65625 13.328125 19.816406 13.496094 C 19.894531 13.578125 19.941406 13.601562 20.035156 13.601562 C 20.136719 13.601562 20.171875 13.578125 20.269531 13.464844 C 20.332031 13.390625 20.382812 13.320312 20.382812 13.304688 C 20.382812 13.292969 20.398438 13.28125 20.414062 13.28125 C 20.449219 13.28125 20.515625 13.507812 20.578125 13.839844 C 20.640625 14.160156 20.632812 14.984375 20.566406 15.324219 C 20.535156 15.476562 20.503906 15.601562 20.5 15.609375 C 20.488281 15.617188 20.382812 15.597656 20.257812 15.566406 C 20.039062 15.511719 20.03125 15.507812 20.027344 15.410156 C 20.015625 14.910156 19.519531 14.804688 19.125 15.226562 C 19.039062 15.316406 19.019531 15.324219 18.882812 15.308594 C 18.53125 15.269531 18.527344 15.265625 18.527344 15.167969 C 18.527344 15.054688 18.5 15.050781 18.335938 15.152344 C 18.214844 15.230469 18.203125 15.230469 17.914062 15.199219 C 17.175781 15.125 15.441406 15.171875 14.480469 15.296875 C 14.023438 15.355469 13.109375 15.535156 12.703125 15.648438 C 12.375 15.738281 12.269531 15.757812 12.246094 15.722656 Z M 14.042969 14.703125 C 14.148438 14.652344 14.511719 14.101562 14.480469 14.046875 C 14.441406 13.988281 14.402344 14.015625 14.269531 14.191406 C 14.054688 14.476562 13.898438 14.457031 13.820312 14.132812 C 13.777344 13.960938 13.789062 13.691406 13.871094 12.625 C 13.894531 12.308594 13.910156 12.042969 13.902344 12.035156 C 13.898438 12.027344 13.808594 12.078125 13.707031 12.148438 L 13.519531 12.273438 L 13.511719 13.152344 C 13.496094 14.328125 13.546875 14.59375 13.804688 14.707031 C 13.929688 14.761719 13.9375 14.761719 14.042969 14.703125 Z M 15.457031 14.480469 C 15.917969 14.246094 16.152344 13.738281 15.972656 13.363281 C 15.886719 13.191406 15.757812 13.082031 15.390625 12.882812 C 15.242188 12.800781 15.082031 12.691406 15.035156 12.640625 C 14.804688 12.394531 15.042969 12.03125 15.425781 12.03125 C 15.59375 12.03125 15.710938 12.101562 15.8125 12.261719 L 15.886719 12.386719 L 15.945312 12.316406 C 15.976562 12.273438 16 12.195312 16 12.113281 C 16 11.722656 15.421875 11.65625 15.019531 12.007812 C 14.75 12.25 14.65625 12.574219 14.78125 12.851562 C 14.847656 13 14.898438 13.039062 15.355469 13.3125 C 15.539062 13.417969 15.710938 13.535156 15.742188 13.578125 C 15.976562 13.859375 15.6875 14.304688 15.265625 14.304688 C 15.09375 14.304688 14.984375 14.253906 14.824219 14.097656 C 14.675781 13.957031 14.671875 13.957031 14.558594 14.171875 L 14.480469 14.308594 L 14.574219 14.386719 C 14.628906 14.429688 14.730469 14.488281 14.800781 14.511719 C 14.964844 14.574219 15.304688 14.558594 15.457031 14.480469 Z M 17.265625 14.082031 C 17.402344 14 17.71875 13.480469 17.667969 13.429688 C 17.636719 13.402344 17.605469 13.421875 17.527344 13.519531 C 17.304688 13.796875 17.210938 13.847656 17.109375 13.734375 C 16.972656 13.582031 16.96875 13.339844 17.089844 11.792969 C 17.101562 11.601562 17.109375 11.4375 17.105469 11.429688 C 17.101562 11.425781 17.007812 11.476562 16.902344 11.542969 L 16.707031 11.664062 L 16.703125 12.5625 C 16.703125 13.738281 16.753906 13.988281 17.003906 14.097656 C 17.136719 14.152344 17.152344 14.152344 17.265625 14.082031 Z M 18.375 13.707031 C 18.386719 13.636719 18.425781 13.410156 18.460938 13.199219 C 18.570312 12.554688 18.863281 11.808594 19.125 11.515625 L 19.230469 11.402344 L 19.164062 11.339844 C 19.097656 11.28125 19.097656 11.28125 19 11.390625 C 18.878906 11.535156 18.652344 12.007812 18.539062 12.351562 C 18.492188 12.503906 18.445312 12.632812 18.433594 12.644531 C 18.425781 12.660156 18.429688 12.34375 18.441406 11.949219 C 18.457031 11.550781 18.464844 11.21875 18.453125 11.210938 C 18.445312 11.203125 18.359375 11.246094 18.257812 11.316406 L 18.078125 11.433594 L 18.078125 13.984375 L 18.21875 13.90625 C 18.328125 13.84375 18.355469 13.808594 18.375 13.707031 Z M 19.597656 11.542969 C 19.585938 11.46875 19.550781 11.390625 19.523438 11.371094 C 19.457031 11.320312 19.351562 11.320312 19.300781 11.367188 C 19.269531 11.398438 19.296875 11.441406 19.414062 11.558594 C 19.496094 11.640625 19.574219 11.703125 19.589844 11.691406 C 19.605469 11.679688 19.609375 11.613281 19.597656 11.542969 Z M 19.597656 11.542969 "/>
<path style=" stroke:none;fill-rule:nonzero;fill:rgb(99.607843%,19.215686%,27.843137%);fill-opacity:1;" d="M 19.390625 15.386719 C 19.261719 15.355469 19.253906 15.351562 19.3125 15.308594 C 19.410156 15.234375 19.546875 15.242188 19.609375 15.320312 C 19.691406 15.429688 19.652344 15.441406 19.390625 15.386719 Z M 21.15625 15.035156 C 20.949219 15 20.941406 14.972656 21.039062 14.789062 L 21.125 14.628906 L 21.292969 14.707031 C 21.507812 14.804688 21.761719 14.808594 21.921875 14.71875 C 22.296875 14.488281 22.378906 14.230469 22.414062 13.121094 C 22.425781 12.777344 22.441406 12.449219 22.453125 12.390625 C 22.488281 12.160156 22.429688 12.175781 22.324219 12.425781 C 22.03125 13.09375 21.636719 13.417969 21.246094 13.3125 C 21.074219 13.265625 20.976562 13.175781 20.875 12.96875 C 20.796875 12.804688 20.789062 12.757812 20.789062 12.46875 C 20.796875 11.957031 20.945312 11.496094 21.230469 11.117188 C 21.519531 10.722656 21.777344 10.558594 22.089844 10.558594 C 22.203125 10.5625 22.324219 10.582031 22.367188 10.609375 C 22.480469 10.671875 22.527344 10.664062 22.527344 10.59375 C 22.527344 10.53125 22.863281 10.277344 22.902344 10.3125 C 22.910156 10.324219 22.902344 10.554688 22.882812 10.824219 C 22.863281 11.089844 22.835938 11.566406 22.816406 11.871094 C 22.71875 13.613281 22.695312 13.855469 22.628906 14.03125 C 22.464844 14.453125 22.199219 14.785156 21.90625 14.925781 C 21.8125 14.972656 21.648438 15.023438 21.546875 15.039062 C 21.335938 15.074219 21.351562 15.074219 21.15625 15.035156 Z M 21.6875 13.019531 C 21.941406 12.925781 22.234375 12.433594 22.382812 11.855469 C 22.449219 11.605469 22.507812 11.058594 22.484375 10.957031 C 22.457031 10.863281 22.203125 10.6875 22.089844 10.6875 C 21.964844 10.6875 21.707031 10.839844 21.601562 10.972656 C 21.476562 11.128906 21.335938 11.445312 21.28125 11.679688 C 21.257812 11.777344 21.230469 11.898438 21.210938 11.949219 C 21.171875 12.082031 21.175781 12.609375 21.21875 12.738281 C 21.277344 12.910156 21.425781 13.046875 21.558594 13.054688 C 21.578125 13.054688 21.636719 13.039062 21.6875 13.019531 Z M 20.035156 13.21875 C 19.917969 13.101562 19.886719 12.875 19.925781 12.4375 C 19.949219 12.183594 19.949219 12.183594 20.195312 12.679688 C 20.285156 12.859375 20.363281 13.015625 20.375 13.023438 C 20.378906 13.03125 20.417969 13 20.457031 12.949219 C 20.507812 12.890625 20.539062 12.875 20.574219 12.894531 C 20.609375 12.914062 20.601562 12.949219 20.523438 13.078125 C 20.433594 13.230469 20.433594 13.230469 20.40625 13.152344 L 20.378906 13.070312 L 20.273438 13.175781 C 20.152344 13.296875 20.117188 13.300781 20.035156 13.21875 Z M 13.609375 10.753906 C 13.515625 10.699219 13.503906 10.671875 13.503906 10.546875 C 13.503906 10.433594 13.519531 10.394531 13.585938 10.339844 C 13.855469 10.128906 14.171875 10.488281 13.933594 10.734375 C 13.832031 10.832031 13.746094 10.839844 13.609375 10.753906 Z M 16.757812 10.117188 C 16.726562 10.082031 16.703125 10.007812 16.703125 9.925781 C 16.703125 9.769531 16.8125 9.664062 16.980469 9.664062 C 17.175781 9.664062 17.28125 9.917969 17.164062 10.097656 C 17.121094 10.164062 17.089844 10.175781 16.960938 10.175781 C 16.855469 10.175781 16.792969 10.160156 16.757812 10.117188 Z M 16.757812 10.117188 "/>
</g>
</svg>
