<?xml version="1.0" encoding="UTF-8"?>
<svg xmlns="http://www.w3.org/2000/svg" xmlns:xlink="http://www.w3.org/1999/xlink" width="180pt" height="180pt" viewBox="0 0 180 180" version="1.1">
<g id="surface1">
<path style=" stroke:none;fill-rule:nonzero;fill:rgb(28.235294%,100%,98.431373%);fill-opacity:1;" d="M 42.570312 102.097656 C 42.570312 101.96875 42.460938 101.753906 42.316406 101.644531 C 42.175781 101.519531 41.941406 101.035156 41.777344 100.53125 C 41.617188 100.027344 41.21875 99.089844 40.914062 98.425781 C 40.609375 97.757812 40.339844 97.09375 40.300781 96.949219 C 40.285156 96.804688 40.105469 96.121094 39.925781 95.417969 C 39.726562 94.734375 39.421875 93.636719 39.257812 92.988281 C 39.097656 92.339844 38.878906 91.585938 38.789062 91.277344 C 38.71875 90.988281 38.554688 90.179688 38.429688 89.476562 C 38.304688 88.792969 38.105469 87.949219 37.960938 87.640625 C 37.835938 87.316406 37.78125 87.046875 37.855469 87.046875 C 37.945312 87.046875 37.90625 86.128906 37.78125 85.03125 C 37.3125 80.929688 37.511719 75.277344 38.25 70.578125 C 38.359375 69.894531 38.503906 68.976562 38.554688 68.542969 C 38.609375 68.128906 38.734375 67.734375 38.808594 67.679688 C 38.898438 67.625 38.96875 67.429688 38.96875 67.230469 C 38.96875 66.527344 40.285156 62.101562 40.949219 60.496094 C 41.507812 59.203125 41.8125 58.429688 42.03125 57.761719 C 42.15625 57.328125 42.335938 56.988281 42.425781 56.988281 C 42.515625 56.988281 42.535156 56.898438 42.460938 56.773438 C 42.390625 56.664062 42.445312 56.484375 42.589844 56.375 C 42.929688 56.105469 43.289062 55.441406 43.289062 55.097656 C 43.289062 54.953125 43.378906 54.828125 43.46875 54.828125 C 43.578125 54.828125 43.648438 54.683594 43.648438 54.523438 C 43.648438 54.359375 43.757812 54.089844 43.902344 53.945312 C 44.136719 53.675781 44.839844 52.453125 45.394531 51.371094 C 45.539062 51.085938 45.738281 50.867188 45.828125 50.867188 C 45.917969 50.867188 46.027344 50.671875 46.097656 50.417969 C 46.152344 50.183594 46.332031 49.878906 46.476562 49.769531 C 46.621094 49.644531 46.835938 49.300781 46.960938 48.996094 C 47.089844 48.691406 47.449219 48.203125 47.753906 47.898438 C 48.058594 47.609375 48.421875 47.140625 48.546875 46.890625 C 48.78125 46.441406 49.480469 45.539062 50.527344 44.335938 C 50.796875 44.011719 51.03125 43.648438 51.03125 43.542969 C 51.03125 43.414062 51.246094 43.199219 51.535156 43.054688 C 51.804688 42.910156 52.542969 42.210938 53.171875 41.527344 C 53.820312 40.824219 54.449219 40.246094 54.574219 40.246094 C 54.703125 40.246094 54.808594 40.121094 54.808594 39.976562 C 54.808594 39.835938 54.9375 39.707031 55.078125 39.707031 C 55.222656 39.707031 55.421875 39.546875 55.53125 39.347656 C 55.636719 39.148438 55.816406 38.988281 55.945312 38.988281 C 56.070312 38.988281 56.609375 38.539062 57.148438 37.996094 C 57.691406 37.457031 58.230469 37.027344 58.339844 37.007812 C 58.464844 37.007812 58.589844 36.882812 58.660156 36.738281 C 58.714844 36.59375 58.878906 36.46875 59.039062 36.46875 C 59.183594 36.46875 59.617188 36.179688 59.976562 35.820312 C 60.355469 35.460938 61.003906 35.011719 61.398438 34.828125 C 61.8125 34.632812 62.460938 34.183594 62.839844 33.839844 C 63.234375 33.496094 63.757812 33.15625 64.042969 33.101562 C 64.3125 33.046875 64.585938 32.921875 64.636719 32.851562 C 64.691406 32.761719 64.890625 32.6875 65.089844 32.6875 C 65.269531 32.6875 65.429688 32.5625 65.429688 32.417969 C 65.429688 32.273438 65.59375 32.148438 65.789062 32.148438 C 65.988281 32.148438 66.148438 32.058594 66.148438 31.949219 C 66.148438 31.84375 66.257812 31.789062 66.402344 31.84375 C 66.546875 31.894531 66.707031 31.824219 66.761719 31.660156 C 66.835938 31.519531 66.996094 31.429688 67.140625 31.5 C 67.285156 31.554688 67.464844 31.480469 67.535156 31.355469 C 67.679688 31.140625 68.21875 30.835938 68.578125 30.796875 C 69.066406 30.742188 70.109375 30.292969 70.289062 30.058594 C 70.414062 29.933594 70.703125 29.808594 70.9375 29.808594 C 71.191406 29.808594 71.371094 29.699219 71.371094 29.539062 C 71.371094 29.359375 71.65625 29.25 72.269531 29.160156 C 72.773438 29.089844 73.222656 28.960938 73.277344 28.890625 C 73.332031 28.800781 73.601562 28.726562 73.871094 28.726562 C 74.449219 28.726562 75.601562 28.296875 75.78125 28.007812 C 75.851562 27.898438 76.066406 27.863281 76.246094 27.917969 C 76.445312 27.988281 76.734375 27.9375 76.894531 27.792969 C 77.058594 27.664062 77.4375 27.558594 77.742188 27.539062 C 78.695312 27.503906 79.722656 27.253906 80.027344 27 C 80.207031 26.839844 80.515625 26.785156 80.855469 26.855469 C 81.199219 26.929688 81.484375 26.875 81.648438 26.710938 C 81.808594 26.566406 82.386719 26.476562 83.230469 26.460938 C 83.953125 26.441406 84.601562 26.351562 84.671875 26.261719 C 84.726562 26.171875 87.40625 26.101562 91.171875 26.101562 C 96.175781 26.117188 97.648438 26.171875 97.992188 26.351562 C 98.226562 26.496094 98.675781 26.566406 99.019531 26.53125 C 99.359375 26.496094 99.648438 26.53125 99.683594 26.621094 C 99.703125 26.695312 100.242188 26.800781 100.871094 26.839844 C 101.503906 26.875 102.113281 27 102.257812 27.109375 C 102.382812 27.234375 102.671875 27.289062 102.90625 27.269531 C 103.140625 27.253906 103.519531 27.304688 103.769531 27.414062 C 104.617188 27.773438 105.496094 28.007812 105.964844 28.007812 C 106.199219 28.007812 106.46875 28.0625 106.523438 28.132812 C 106.6875 28.277344 110.554688 29.628906 111.203125 29.753906 C 111.472656 29.808594 111.691406 29.898438 111.691406 29.96875 C 111.691406 30.113281 113.128906 30.742188 113.382812 30.707031 C 113.472656 30.691406 113.597656 30.761719 113.671875 30.886719 C 113.742188 30.996094 113.921875 31.105469 114.066406 31.140625 C 114.226562 31.15625 114.460938 31.265625 114.589844 31.375 C 114.730469 31.480469 115.039062 31.625 115.289062 31.699219 C 115.542969 31.769531 115.792969 31.914062 115.847656 32.003906 C 115.902344 32.09375 116.082031 32.183594 116.226562 32.21875 C 116.386719 32.238281 116.640625 32.363281 116.800781 32.488281 C 116.964844 32.617188 117.089844 32.6875 117.089844 32.617188 C 117.089844 32.5625 117.433594 32.742188 117.847656 33.046875 C 118.242188 33.335938 118.65625 33.589844 118.726562 33.589844 C 118.800781 33.589844 119.609375 34.09375 120.492188 34.703125 C 121.390625 35.335938 122.507812 36.089844 122.957031 36.414062 C 123.425781 36.738281 123.859375 37.0625 123.910156 37.132812 C 123.964844 37.222656 124.507812 37.675781 125.101562 38.125 C 126.089844 38.863281 127.277344 39.925781 128.699219 41.292969 C 131.273438 43.777344 135.898438 49.714844 137.015625 51.949219 C 137.140625 52.199219 137.410156 52.6875 137.628906 53.027344 C 138.007812 53.640625 139.609375 56.84375 140.542969 58.789062 C 141.226562 60.265625 141.929688 62.261719 142.558594 64.601562 C 142.703125 65.160156 142.957031 66.097656 143.117188 66.671875 C 143.441406 67.824219 143.910156 69.910156 143.875 70.09375 C 143.875 70.164062 143.890625 70.253906 143.910156 70.308594 C 143.945312 70.363281 144.089844 71.53125 144.269531 72.917969 C 144.648438 75.996094 144.648438 84.132812 144.289062 86.417969 C 143.890625 88.8125 143.207031 92.214844 142.9375 93.023438 C 142.792969 93.457031 142.632812 94.050781 142.578125 94.339844 C 142.363281 95.308594 141.875 96.859375 141.714844 97.019531 C 141.640625 97.128906 141.570312 97.308594 141.570312 97.453125 C 141.570312 97.792969 140.796875 99.46875 140.632812 99.46875 C 140.5625 99.46875 139.824219 99.035156 139.015625 98.515625 C 136.222656 96.730469 130.96875 94.03125 127.078125 92.394531 C 124.414062 91.277344 119.734375 89.675781 116.875 88.921875 L 114.929688 88.398438 L 114.929688 87.75 C 114.929688 87.390625 115.054688 86.417969 115.234375 85.589844 C 115.777344 82.800781 115.632812 79.324219 114.820312 76.210938 C 114.625 75.421875 114.605469 75.078125 114.75 74.808594 C 114.875 74.574219 114.894531 74.195312 114.820312 73.855469 C 114.75 73.53125 114.660156 73.386719 114.625 73.511719 C 114.425781 74.050781 114.046875 73.601562 113.164062 71.800781 C 112.480469 70.398438 112.230469 69.640625 112.230469 69.121094 C 112.230469 68.671875 112.121094 68.273438 111.960938 68.148438 C 111.742188 67.96875 111.707031 67.609375 111.796875 66.1875 C 111.886719 64.816406 111.851562 64.3125 111.617188 63.792969 C 111.238281 62.910156 110.609375 62.496094 109.90625 62.65625 C 109.171875 62.820312 109.027344 63.109375 109.65625 63.109375 C 110.59375 63.125 110.824219 63.484375 110.863281 64.945312 L 110.878906 66.257812 L 110.25 66.3125 C 109.710938 66.347656 109.511719 66.238281 108.738281 65.464844 C 108.035156 64.746094 107.890625 64.511719 108.054688 64.3125 C 108.359375 63.953125 107.675781 63.324219 107.296875 63.628906 C 107.101562 63.792969 106.738281 63.628906 105.550781 62.746094 C 98.855469 57.90625 90.574219 56.988281 83.105469 60.265625 C 79.054688 62.027344 75.90625 64.53125 73.242188 68.058594 C 72.089844 69.589844 70.34375 72.972656 69.769531 74.753906 C 69.371094 76.050781 68.671875 79.253906 68.671875 79.8125 C 68.671875 80.191406 67.570312 80.316406 67.015625 80.011719 C 66.472656 79.722656 63.71875 77.257812 62.515625 75.976562 C 61.902344 75.347656 61.46875 74.734375 61.46875 74.503906 C 61.46875 74.140625 61.433594 74.125 60.894531 74.304688 C 60.570312 74.410156 60.226562 74.554688 60.15625 74.628906 C 59.957031 74.789062 61.398438 76.5 63.109375 78.175781 C 64.421875 79.453125 67.480469 81.972656 67.914062 82.132812 C 68.023438 82.1875 68.128906 82.457031 68.128906 82.746094 C 68.128906 83.015625 68.238281 83.320312 68.363281 83.394531 C 68.597656 83.539062 69.371094 86.886719 69.515625 88.398438 L 69.589844 89.117188 L 66.382812 90.160156 C 58.554688 92.683594 49.894531 97.09375 43.957031 101.574219 C 42.875 102.382812 42.570312 102.511719 42.570312 102.097656 Z M 56.320312 86.148438 L 56.789062 85.96875 L 56.789062 82.421875 C 56.808594 74.953125 57.257812 67.285156 57.796875 65.320312 C 57.90625 64.960938 57.851562 64.90625 57.347656 64.90625 L 56.789062 64.90625 L 56.789062 63.828125 C 56.789062 63.253906 56.71875 62.171875 56.628906 61.453125 C 56.519531 60.730469 56.359375 59.328125 56.25 58.339844 C 56.125 57.347656 55.960938 56.230469 55.871094 55.871094 L 55.691406 55.1875 L 54.988281 55.65625 C 54.59375 55.925781 54.324219 56.195312 54.359375 56.285156 C 54.414062 56.359375 54.539062 56.96875 54.628906 57.652344 C 54.71875 58.320312 54.917969 59.777344 55.078125 60.859375 C 55.332031 62.675781 55.765625 72.574219 55.621094 73.0625 C 55.585938 73.1875 55.511719 76.210938 55.441406 79.8125 C 55.332031 86.921875 55.277344 86.542969 56.320312 86.148438 Z M 121.679688 83.808594 C 121.949219 83.683594 121.84375 83.644531 121.210938 83.644531 C 120.761719 83.628906 120.113281 83.539062 119.789062 83.429688 C 119.320312 83.269531 119.179688 83.269531 119.050781 83.464844 C 118.960938 83.609375 118.996094 83.753906 119.125 83.84375 C 119.410156 84.023438 121.230469 84.007812 121.679688 83.808594 Z M 126.808594 78.316406 C 127.097656 77.652344 127.332031 75.636719 127.53125 72.378906 C 127.636719 70.597656 127.800781 67.878906 127.890625 66.347656 C 127.980469 64.816406 128.105469 62.550781 128.179688 61.308594 L 128.285156 59.074219 L 127.871094 59.363281 C 127.636719 59.507812 127.421875 59.8125 127.386719 60.03125 C 127.351562 60.226562 127.207031 60.40625 127.0625 60.40625 C 126.863281 60.40625 126.847656 60.480469 126.988281 60.75 C 127.332031 61.398438 127.097656 65.015625 126.574219 67.015625 C 126.34375 67.878906 126.359375 67.949219 126.664062 68.023438 C 127.042969 68.128906 127.0625 68.273438 126.808594 72.125 C 126.613281 75.527344 126.46875 79.308594 126.574219 78.949219 C 126.628906 78.804688 126.71875 78.515625 126.808594 78.316406 Z M 121.195312 74.105469 C 121.355469 74.015625 121.210938 73.925781 120.742188 73.855469 C 119.933594 73.710938 119.214844 73.042969 118.90625 72.125 C 118.65625 71.335938 118.65625 67.5 118.90625 66.402344 C 119.035156 65.914062 119.25 65.070312 119.429688 64.511719 C 119.808594 63.253906 119.628906 63.304688 118.980469 64.675781 C 118.078125 66.5625 117.613281 68.398438 117.613281 70.109375 C 117.613281 71.226562 117.683594 71.605469 118.117188 72.449219 C 118.402344 73.027344 118.890625 73.621094 119.230469 73.855469 C 119.84375 74.269531 120.761719 74.394531 121.195312 74.105469 Z M 70.164062 64.726562 C 71.730469 61.722656 72.359375 59.417969 72.324219 56.808594 C 72.289062 54.089844 71.621094 52.523438 69.984375 51.28125 C 69.15625 50.652344 67.859375 50.617188 66.78125 51.191406 L 66.058594 51.570312 L 67.246094 51.589844 C 68.8125 51.589844 69.460938 52.019531 70.199219 53.476562 C 70.722656 54.523438 70.738281 54.648438 70.792969 57.472656 C 70.847656 59.6875 70.777344 60.769531 70.558594 61.882812 C 70.234375 63.46875 69.714844 65.179688 69.371094 65.84375 C 69.265625 66.078125 69.246094 66.1875 69.355469 66.078125 C 69.460938 65.988281 69.820312 65.375 70.164062 64.726562 Z M 78.03125 59.652344 C 78.335938 59.308594 78.355469 59.21875 78.136719 58.894531 C 77.8125 58.390625 77.363281 58.320312 76.933594 58.714844 C 76.480469 59.113281 76.5 59.417969 76.984375 59.761719 C 77.507812 60.136719 77.578125 60.121094 78.03125 59.652344 Z M 96.101562 56.179688 C 96.371094 55.765625 96.371094 55.710938 95.976562 55.277344 L 95.578125 54.792969 L 95.074219 55.1875 C 94.519531 55.636719 94.480469 55.835938 94.894531 56.304688 C 95.292969 56.753906 95.761719 56.71875 96.101562 56.179688 Z M 96.101562 56.179688 "/>
<path style=" stroke:none;fill-rule:nonzero;fill:rgb(10.980392%,12.941176%,45.098039%);fill-opacity:1;" d="M 86.578125 132.910156 C 75.796875 131.707031 67.105469 128.410156 59.21875 122.542969 C 55.835938 120.042969 53.785156 118.132812 50.308594 114.300781 C 48.257812 112.03125 45.144531 107.40625 43.378906 103.984375 C 42.570312 102.4375 42.425781 102.023438 42.589844 101.753906 C 42.695312 101.574219 43.792969 100.746094 45.035156 99.898438 C 51.40625 95.542969 58.5 92.035156 65.734375 89.695312 C 68.347656 88.847656 68.921875 88.597656 68.832031 88.363281 C 68.777344 88.183594 68.867188 88.039062 69.066406 87.984375 C 72.214844 87.101562 76.789062 86.09375 79.46875 85.699219 C 84.90625 84.90625 87.769531 84.742188 95.328125 84.796875 C 101.753906 84.851562 102.382812 84.835938 102.835938 84.546875 C 103.085938 84.382812 103.625 84.238281 104.039062 84.238281 C 104.707031 84.238281 104.761719 84.277344 104.761719 84.761719 C 104.761719 85.140625 104.867188 85.300781 105.175781 85.390625 C 106.039062 85.625 106.667969 85.5 107.117188 85.03125 C 108.070312 83.988281 108.882812 83.644531 110.375 83.628906 C 111.492188 83.609375 111.851562 83.683594 112.246094 83.988281 C 112.789062 84.382812 113.183594 85.285156 113.203125 86.148438 C 113.21875 86.6875 113.273438 86.722656 114.265625 86.957031 C 115.054688 87.15625 115.308594 87.300781 115.34375 87.570312 C 115.378906 87.859375 115.738281 88.019531 117.324219 88.453125 C 120.1875 89.226562 124.867188 90.808594 127.53125 91.925781 C 132.785156 94.140625 140.761719 98.460938 140.761719 99.089844 C 140.761719 99.703125 138.5625 104.292969 137.070312 106.828125 C 136.332031 108.089844 134.785156 110.359375 133.507812 112.050781 C 132.714844 113.113281 130.804688 115.308594 129.4375 116.710938 C 127.960938 118.261719 124.183594 121.625 123.355469 122.164062 C 123.085938 122.347656 122.363281 122.851562 121.769531 123.316406 C 118.726562 125.640625 112.429688 128.824219 108 130.285156 C 105.246094 131.183594 101.269531 132.136719 98.371094 132.589844 C 96.660156 132.839844 88.128906 133.09375 86.578125 132.910156 Z M 78.066406 103.105469 C 79.144531 102.707031 80.386719 101.574219 80.910156 100.53125 C 81.179688 100.007812 81.269531 99.449219 81.269531 98.441406 C 81.269531 96.570312 80.855469 95.976562 78.191406 94.210938 C 76.734375 93.238281 76.105469 92.699219 75.886719 92.269531 C 75.511719 91.476562 75.527344 91.296875 75.960938 90.574219 C 77.074219 88.738281 79.703125 88.867188 80.695312 90.792969 L 81.054688 91.492188 L 81.484375 91.007812 C 82.402344 89.929688 81.738281 88.433594 80.171875 88.039062 C 77.992188 87.480469 75.257812 89.117188 74.503906 91.386719 C 74.195312 92.339844 74.375 93.652344 74.933594 94.375 C 75.1875 94.714844 76.320312 95.617188 77.453125 96.390625 C 78.589844 97.164062 79.648438 98.027344 79.8125 98.296875 C 80.53125 99.503906 79.921875 101.105469 78.480469 101.84375 C 77.023438 102.582031 75.492188 102.203125 74.285156 100.800781 C 73.925781 100.367188 73.601562 100.042969 73.566406 100.097656 C 73.53125 100.132812 73.222656 100.566406 72.898438 101.050781 L 72.304688 101.933594 L 72.828125 102.367188 C 74.410156 103.660156 75.941406 103.878906 78.066406 103.105469 Z M 90.035156 101.320312 C 90.882812 100.890625 92.394531 99.414062 92.808594 98.605469 C 93.132812 97.972656 93.277344 98.0625 93.582031 99.160156 C 93.886719 100.1875 94.660156 100.980469 95.382812 100.980469 C 96.101562 100.980469 96.910156 100.261719 98.082031 98.566406 C 98.855469 97.433594 98.945312 97.21875 98.695312 97.128906 C 98.476562 97.039062 98.191406 97.234375 97.6875 97.828125 C 96.949219 98.695312 96.191406 99.179688 95.796875 99.054688 C 95.671875 99 95.4375 98.710938 95.273438 98.40625 C 94.804688 97.542969 94.914062 95.597656 95.671875 90.304688 C 96.046875 87.75 96.300781 85.625 96.246094 85.570312 C 96.191406 85.519531 95.632812 85.789062 95.023438 86.164062 L 93.871094 86.851562 L 93.601562 91.636719 L 93.328125 96.40625 L 92.699219 97.433594 C 91.996094 98.585938 91.0625 99.613281 90.269531 100.117188 C 89.496094 100.585938 88.34375 100.546875 87.714844 100.007812 C 87.265625 99.613281 87.210938 99.449219 87.15625 98.152344 C 87.121094 97.273438 87.335938 94.878906 87.75 91.636719 C 88.09375 88.828125 88.363281 86.507812 88.324219 86.472656 C 88.308594 86.4375 87.75 86.722656 87.101562 87.121094 L 85.933594 87.820312 L 85.625 92.554688 C 85.246094 98.425781 85.230469 99.574219 85.609375 100.367188 C 85.949219 101.089844 86.203125 101.304688 87.066406 101.628906 C 87.910156 101.953125 89.046875 101.824219 90.035156 101.320312 Z M 102.617188 99.484375 C 102.691406 99.394531 102.796875 98.980469 102.851562 98.566406 C 103.050781 97.378906 104.003906 93.78125 104.398438 92.699219 C 105.066406 90.972656 106.578125 88.273438 107.386719 87.335938 L 108.160156 86.4375 L 107.585938 86.328125 C 107.101562 86.21875 106.957031 86.292969 106.632812 86.6875 C 106.09375 87.355469 104.652344 90.109375 103.933594 91.855469 L 103.320312 93.328125 L 103.429688 92.339844 C 103.480469 91.800781 103.660156 90.089844 103.84375 88.558594 L 104.128906 85.769531 L 103.15625 85.714844 C 102.617188 85.679688 102.113281 85.734375 102.042969 85.804688 C 101.878906 85.96875 100.980469 97.792969 100.980469 99.59375 L 100.980469 100.441406 L 101.753906 100.0625 C 102.167969 99.847656 102.5625 99.59375 102.617188 99.484375 Z M 113.363281 98.550781 C 113.652344 98.316406 114.316406 97.488281 114.839844 96.75 C 115.558594 95.6875 115.738281 95.328125 115.558594 95.164062 C 115.398438 95.003906 115.164062 95.164062 114.515625 95.886719 C 113.597656 96.894531 113.039062 97.253906 112.625 97.09375 C 112.246094 96.949219 111.78125 95.722656 111.78125 94.894531 C 111.78125 94.355469 112.230469 90.433594 112.570312 87.929688 C 112.644531 87.390625 112.609375 87.371094 111.617188 87.101562 L 110.574219 86.832031 L 110.359375 91.53125 C 110.089844 96.75 110.140625 97.308594 111.078125 98.371094 C 111.78125 99.160156 112.570312 99.214844 113.363281 98.550781 Z M 113.363281 98.550781 "/>
<path style=" stroke:none;fill-rule:nonzero;fill:rgb(99.607843%,19.215686%,27.843137%);fill-opacity:1;" d="M 68.886719 88.433594 C 68.707031 88.144531 68.039062 84.582031 68.039062 83.933594 L 68.039062 83.304688 L 68.902344 83.808594 C 69.371094 84.078125 70.003906 84.457031 70.308594 84.636719 L 70.847656 84.960938 L 71.605469 83.878906 C 72.019531 83.304688 72.359375 82.78125 72.359375 82.726562 C 72.359375 82.675781 71.964844 82.421875 71.496094 82.1875 C 71.027344 81.953125 70.09375 81.378906 69.40625 80.929688 C 68.722656 80.476562 68.148438 80.101562 68.113281 80.101562 C 68.074219 80.101562 68.039062 80.785156 68.039062 81.628906 C 68.039062 82.476562 67.984375 83.160156 67.933594 83.160156 C 67.570312 83.160156 64.152344 80.40625 62.386719 78.695312 C 60.839844 77.183594 58.859375 74.808594 58.859375 74.449219 C 58.859375 74.339844 59.238281 74.125 59.707031 73.996094 C 62.980469 73.132812 66.382812 70.09375 68.257812 66.367188 C 69.695312 63.46875 70.253906 60.949219 70.164062 57.546875 C 70.109375 55.332031 70.074219 55.097656 69.570312 54.089844 C 68.941406 52.8125 68.128906 52.199219 67.121094 52.199219 C 63.664062 52.199219 59.742188 58.390625 58.15625 66.328125 C 57.617188 69.085938 57.257812 75.671875 57.238281 83.035156 L 57.238281 86.578125 L 56.753906 86.777344 C 56.484375 86.867188 55.90625 87.011719 55.476562 87.066406 L 54.664062 87.175781 L 54.792969 81.882812 C 54.972656 74.644531 54.9375 67.15625 54.71875 64.351562 C 54.539062 62.136719 54.449219 61.308594 54 58.375 C 53.53125 55.441406 53.460938 55.800781 54.71875 54.9375 C 55.332031 54.523438 55.890625 54.179688 55.960938 54.179688 C 56.105469 54.179688 56.429688 55.800781 56.699219 57.871094 C 57.167969 61.722656 57.238281 62.441406 57.238281 63.414062 C 57.238281 65.070312 57.472656 64.800781 58.320312 62.101562 C 58.554688 61.363281 58.804688 60.679688 58.859375 60.570312 C 58.933594 60.480469 59.09375 60.101562 59.21875 59.761719 C 60.679688 55.90625 63.574219 52.039062 65.898438 50.8125 C 66.726562 50.398438 67.085938 50.308594 68.328125 50.308594 C 69.640625 50.308594 69.839844 50.363281 70.453125 50.832031 C 71.386719 51.535156 72.089844 52.558594 72.484375 53.785156 C 72.9375 55.222656 72.9375 58.824219 72.46875 60.570312 C 71.296875 65.035156 68.5625 69.316406 65.089844 72.125 C 64.296875 72.773438 63.359375 73.441406 63 73.621094 C 61.828125 74.214844 61.828125 74.320312 62.964844 75.511719 C 64.117188 76.734375 66.5625 78.929688 67.464844 79.542969 L 68.039062 79.9375 L 68.039062 79.507812 C 68.039062 78.804688 68.6875 75.742188 69.136719 74.285156 C 69.714844 72.503906 71.460938 69.121094 72.613281 67.589844 C 74.503906 65.070312 76.933594 62.855469 79.363281 61.378906 C 84.796875 58.121094 90.648438 57.113281 97.109375 58.300781 C 99.664062 58.769531 103.535156 60.496094 105.984375 62.28125 L 107.476562 63.359375 L 108.144531 62.839844 C 108.503906 62.550781 109.152344 62.207031 109.566406 62.101562 C 110.214844 61.902344 110.394531 61.921875 111.007812 62.207031 C 112.105469 62.746094 112.320312 63.414062 112.285156 65.933594 C 112.246094 68.238281 112.140625 68.617188 111.742188 68.113281 C 111.617188 67.914062 111.222656 67.535156 110.898438 67.230469 L 110.304688 66.691406 L 110.375 70.378906 C 110.464844 74.394531 110.574219 74.96875 111.472656 75.925781 C 111.90625 76.375 112.175781 76.5 112.699219 76.5 C 113.273438 76.5 113.472656 76.375 114.011719 75.742188 C 114.371094 75.328125 114.660156 74.933594 114.660156 74.84375 C 114.660156 74.773438 114.730469 74.699219 114.820312 74.699219 C 115.019531 74.699219 115.398438 75.976562 115.757812 77.851562 C 116.101562 79.648438 116.0625 84.292969 115.6875 86.203125 C 115.507812 87.046875 115.34375 87.75 115.308594 87.804688 C 115.253906 87.839844 114.660156 87.730469 113.957031 87.570312 C 112.714844 87.265625 112.679688 87.226562 112.660156 86.6875 C 112.589844 83.863281 109.800781 83.285156 107.566406 85.644531 C 107.101562 86.148438 106.972656 86.203125 106.21875 86.113281 C 104.238281 85.894531 104.21875 85.878906 104.21875 85.320312 C 104.21875 84.671875 104.058594 84.652344 103.140625 85.230469 C 102.457031 85.660156 102.382812 85.679688 100.765625 85.5 C 96.625 85.066406 86.851562 85.339844 81.449219 86.039062 C 78.875 86.363281 73.746094 87.390625 71.460938 88.019531 C 69.605469 88.523438 69.011719 88.632812 68.886719 88.433594 Z M 79.003906 82.710938 C 79.578125 82.421875 81.628906 79.324219 81.449219 79.019531 C 81.234375 78.679688 81.019531 78.839844 80.261719 79.828125 C 79.054688 81.433594 78.175781 81.324219 77.742188 79.507812 C 77.507812 78.535156 77.5625 77.003906 78.03125 71.011719 C 78.15625 69.226562 78.246094 67.734375 78.210938 67.699219 C 78.175781 67.660156 77.671875 67.949219 77.09375 68.328125 L 76.050781 69.03125 L 75.996094 73.980469 C 75.925781 80.585938 76.210938 82.097656 77.652344 82.726562 C 78.355469 83.035156 78.390625 83.035156 79.003906 82.710938 Z M 86.941406 81.449219 C 89.53125 80.136719 90.847656 77.273438 89.839844 75.167969 C 89.351562 74.195312 88.632812 73.585938 86.578125 72.46875 C 85.734375 72 84.835938 71.386719 84.5625 71.101562 C 83.285156 69.714844 84.617188 67.679688 86.761719 67.679688 C 87.714844 67.679688 88.378906 68.074219 88.9375 68.976562 L 89.371094 69.679688 L 89.695312 69.28125 C 89.875 69.046875 90 68.597656 90 68.148438 C 90 65.933594 86.742188 65.574219 84.492188 67.554688 C 82.960938 68.902344 82.441406 70.738281 83.140625 72.289062 C 83.519531 73.117188 83.808594 73.351562 86.382812 74.878906 C 87.40625 75.472656 88.378906 76.140625 88.558594 76.375 C 89.875 77.957031 88.234375 80.460938 85.878906 80.460938 C 84.90625 80.460938 84.292969 80.171875 83.394531 79.308594 C 82.546875 78.515625 82.53125 78.515625 81.882812 79.722656 L 81.449219 80.496094 L 81.988281 80.929688 C 82.296875 81.160156 82.855469 81.484375 83.25 81.628906 C 84.167969 81.972656 86.09375 81.882812 86.941406 81.449219 Z M 97.109375 79.21875 C 97.882812 78.75 99.664062 75.835938 99.378906 75.546875 C 99.199219 75.382812 99.035156 75.492188 98.585938 76.050781 C 97.34375 77.597656 96.804688 77.886719 96.246094 77.257812 C 95.472656 76.390625 95.453125 75.042969 96.121094 66.328125 C 96.191406 65.25 96.246094 64.332031 96.210938 64.296875 C 96.191406 64.261719 95.671875 64.546875 95.074219 64.925781 L 93.976562 65.609375 L 93.960938 70.667969 C 93.960938 77.273438 94.230469 78.679688 95.652344 79.308594 C 96.390625 79.613281 96.480469 79.613281 97.109375 79.21875 Z M 103.355469 77.113281 C 103.429688 76.714844 103.644531 75.4375 103.84375 74.25 C 104.453125 70.613281 106.109375 66.421875 107.585938 64.78125 L 108.179688 64.132812 L 107.800781 63.792969 C 107.425781 63.449219 107.425781 63.449219 106.882812 64.078125 C 106.199219 64.890625 104.921875 67.535156 104.292969 69.480469 C 104.023438 70.324219 103.753906 71.0625 103.699219 71.136719 C 103.644531 71.207031 103.660156 69.445312 103.734375 67.210938 C 103.824219 64.980469 103.859375 63.109375 103.804688 63.054688 C 103.753906 63.019531 103.265625 63.269531 102.707031 63.648438 L 101.699219 64.3125 L 101.699219 78.660156 L 102.472656 78.226562 C 103.105469 77.867188 103.246094 77.671875 103.355469 77.113281 Z M 110.230469 64.925781 C 110.179688 64.511719 109.980469 64.078125 109.816406 63.953125 C 109.441406 63.664062 108.847656 63.664062 108.574219 63.9375 C 108.394531 64.117188 108.539062 64.351562 109.207031 65.015625 C 109.65625 65.484375 110.105469 65.824219 110.195312 65.773438 C 110.285156 65.699219 110.304688 65.320312 110.230469 64.925781 Z M 110.230469 64.925781 "/>
<path style=" stroke:none;fill-rule:nonzero;fill:rgb(99.607843%,19.215686%,27.843137%);fill-opacity:1;" d="M 109.078125 86.542969 C 108.34375 86.382812 108.304688 86.347656 108.628906 86.113281 C 109.1875 85.699219 109.945312 85.734375 110.304688 86.183594 C 110.773438 86.796875 110.539062 86.867188 109.078125 86.542969 Z M 118.996094 84.582031 C 117.847656 84.367188 117.792969 84.222656 118.351562 83.195312 L 118.835938 82.296875 L 119.773438 82.726562 C 120.976562 83.285156 122.417969 83.304688 123.300781 82.78125 C 125.425781 81.503906 125.875 80.046875 126.089844 73.800781 C 126.144531 71.875 126.234375 70.019531 126.289062 69.695312 C 126.503906 68.398438 126.160156 68.488281 125.566406 69.894531 C 123.929688 73.65625 121.714844 75.472656 119.519531 74.878906 C 118.546875 74.609375 117.988281 74.105469 117.433594 72.953125 C 116.980469 72.035156 116.929688 71.765625 116.945312 70.128906 C 116.980469 67.246094 117.828125 64.65625 119.410156 62.53125 C 121.050781 60.316406 122.488281 59.398438 124.253906 59.398438 C 124.882812 59.417969 125.566406 59.527344 125.820312 59.671875 C 126.449219 60.03125 126.71875 59.992188 126.71875 59.597656 C 126.71875 59.238281 128.609375 57.816406 128.824219 58.015625 C 128.878906 58.066406 128.824219 59.363281 128.71875 60.875 C 128.609375 62.386719 128.449219 65.050781 128.339844 66.78125 C 127.78125 76.570312 127.65625 77.941406 127.277344 78.929688 C 126.359375 81.304688 124.867188 83.160156 123.226562 83.953125 C 122.6875 84.222656 121.769531 84.511719 121.195312 84.601562 C 120.023438 84.796875 120.097656 84.796875 118.996094 84.582031 Z M 121.984375 73.242188 C 123.425781 72.703125 125.0625 69.949219 125.910156 66.691406 C 126.269531 65.285156 126.613281 62.207031 126.46875 61.632812 C 126.324219 61.109375 124.882812 60.121094 124.253906 60.121094 C 123.550781 60.121094 122.113281 60.964844 121.519531 61.722656 C 120.816406 62.605469 120.007812 64.386719 119.699219 65.699219 C 119.574219 66.238281 119.410156 66.925781 119.320312 67.210938 C 119.089844 67.96875 119.125 70.9375 119.359375 71.65625 C 119.683594 72.628906 120.511719 73.386719 121.265625 73.421875 C 121.375 73.441406 121.699219 73.351562 121.984375 73.242188 Z M 112.699219 74.359375 C 112.03125 73.691406 111.851562 72.414062 112.085938 69.964844 C 112.210938 68.527344 112.210938 68.527344 113.597656 71.316406 C 114.101562 72.324219 114.550781 73.207031 114.605469 73.261719 C 114.640625 73.296875 114.859375 73.117188 115.074219 72.847656 C 115.363281 72.503906 115.542969 72.414062 115.722656 72.523438 C 115.9375 72.648438 115.882812 72.847656 115.453125 73.566406 C 114.949219 74.410156 114.949219 74.429688 114.785156 73.980469 L 114.625 73.511719 L 114.03125 74.105469 C 113.347656 74.789062 113.164062 74.824219 112.699219 74.359375 Z M 76.554688 60.480469 C 76.03125 60.175781 75.960938 60.03125 75.960938 59.328125 C 75.960938 58.679688 76.050781 58.464844 76.429688 58.15625 C 77.941406 56.96875 79.722656 59.003906 78.371094 60.371094 C 77.796875 60.929688 77.328125 60.964844 76.554688 60.480469 Z M 94.265625 56.914062 C 94.085938 56.71875 93.960938 56.285156 93.960938 55.835938 C 93.960938 54.953125 94.570312 54.359375 95.507812 54.359375 C 96.605469 54.359375 97.21875 55.78125 96.550781 56.789062 C 96.300781 57.167969 96.121094 57.238281 95.398438 57.238281 C 94.804688 57.238281 94.464844 57.148438 94.265625 56.914062 Z M 94.265625 56.914062 "/>
</g>
</svg>
