<?xml version="1.0" encoding="UTF-8" standalone="no"?>
<svg
   version="1.0"
   width="1000px"
   height="1000px"
   viewBox="0 0 1000 1000"
   preserveAspectRatio="xMidYMid meet"
   id="svg103"
   sodipodi:docname="RisingSunLOGO_white.svg"
   inkscape:version="1.1 (c68e22c387, 2021-05-23)"
   xmlns:inkscape="http://www.inkscape.org/namespaces/inkscape"
   xmlns:sodipodi="http://sodipodi.sourceforge.net/DTD/sodipodi-0.dtd"
   xmlns="http://www.w3.org/2000/svg"
   xmlns:svg="http://www.w3.org/2000/svg">
  <defs
     id="defs107">
    <clipPath
       clipPathUnits="userSpaceOnUse"
       id="clipPath598">
      <ellipse
         style="fill:#ff0000;fill-rule:evenodd;stroke-width:1.32056"
         id="ellipse600"
         cx="505.52969"
         cy="441.96033"
         rx="297.77316"
         ry="297.51611" />
    </clipPath>
  </defs>
  <sodipodi:namedview
     id="namedview105"
     pagecolor="#ffffff"
     bordercolor="#999999"
     borderopacity="1"
     inkscape:pageshadow="0"
     inkscape:pageopacity="0"
     inkscape:pagecheckerboard="0"
     showgrid="false"
     inkscape:zoom="0.994"
     inkscape:cx="466.29779"
     inkscape:cy="414.98994"
     inkscape:window-width="1366"
     inkscape:window-height="705"
     inkscape:window-x="-8"
     inkscape:window-y="-8"
     inkscape:window-maximized="1"
     inkscape:current-layer="svg103" />
  <!-- 白 -->
  <g
     fill="#ffffff"
     id="g79"
     clip-path="url(#clipPath598)">
    <!-- 背景 -->
    <path
       d="M0 500 l0 -500 500 0 500 0 0 500 0 500 -500 0 -500 0 0 -500z m543.5 233.6 c16 -2.5 38.1 -7.8 53.5 -12.8 24.6 -8.1 59.6 -25.8 76.5 -38.7 3.3 -2.6 7.3 -5.4 8.8 -6.4 4.6 -3 25.6 -21.7 33.8 -30.3 12.6 -13 19.8 -21.7 31.3 -37.9 10.4 -14.7 21.2 -34.1 28.1 -50.5 1.5 -3.6 3.8 -8.8 5.1 -11.6 1.3 -2.8 2.4 -5.7 2.4 -6.5 0 -0.8 0.4 -1.9 0.8 -2.5 0.9 -0.9 3.6 -9.5 4.8 -14.9 0.3 -1.6 1.2 -4.9 2 -7.3 1.5 -4.7 5.5 -24.1 7.5 -37.2 2.7 -16.6 1.1 -78.1 -2.1 -82.5 -0.4 -0.5 -1 -3.7 -1.4 -7 -0.3 -3.3 -1.3 -8 -2 -10.5 -0.7 -2.5 -1.9 -6.3 -2.5 -8.5 -5.9 -21.3 -8.7 -29.7 -12.8 -38.5 -5.2 -10.8 -14.1 -28.6 -16.2 -32 -1.2 -1.9 -2.7 -4.6 -3.4 -6 -6.2 -12.4 -31.9 -45.4 -46.2 -59.2 -7.9 -7.6 -14.5 -13.5 -20 -17.6 -3.3 -2.5 -6.3 -5 -6.6 -5.5 -0.3 -0.4 -2.7 -2.2 -5.2 -4 -23.2 -15.9 -26.1 -17.8 -34.9 -21.9 -2.7 -1.2 -4.8 -2.5 -4.8 -3 0 -0.4 -0.5 -0.8 -1.1 -0.8 -1.5 0 -21.1 -9 -21.9 -10 -0.3 -0.4 -1.6 -1 -3 -1.3 -2.6 -0.5 -22.1 -7.2 -25.5 -8.7 -1.1 -0.5 -3.3 -1.1 -5 -1.3 -1.6 -0.3 -4.8 -1.1 -7 -1.7 -2.2 -0.6 -5.3 -1.4 -7 -1.7 -1.6 -0.2 -3.9 -0.8 -5 -1.3 -1.1 -0.5 -4.5 -1.1 -7.5 -1.5 -3 -0.3 -8 -1.1 -11 -1.6 -13 -2.4 -36.2 -3.3 -57 -2.1 -11.3 0.7 -23.2 1.7 -26.5 2.2 -3.3 0.5 -7.8 1.2 -10 1.5 -2.2 0.4 -4.9 1 -6 1.4 -3.2 1.3 -11.3 3.1 -14 3.1 -1.3 0 -2.7 0.5 -3 1 -0.3 0.6 -1.6 1 -2.9 1 -1.2 0 -4.1 0.9 -6.4 2 -2.2 1.1 -5.4 2 -7.1 2 -1.6 0 -3.2 0.4 -3.5 0.9 -0.3 0.4 -2.8 1.1 -5.6 1.5 -3.4 0.5 -5 1.1 -5 2.1 0 0.8 -0.9 1.5 -2 1.5 -1.2 0 -3.3 0.9 -4.8 1.9 -1.5 1.1 -5.2 2.8 -8.2 3.7 -3 1 -5.9 2.3 -6.3 3.1 -0.4 0.7 -1.7 1.3 -2.7 1.3 -1.1 0 -2 0.4 -2 1 0 0.5 -1.6 1.2 -3.5 1.6 -2 0.3 -3.5 1.2 -3.5 2 0 0.8 -0.9 1.4 -1.9 1.4 -1.1 0 -2.2 0.4 -2.5 0.9 -0.3 0.4 -1.8 1.1 -3.3 1.4 -1.6 0.3 -4.5 2.2 -6.7 4.1 -2.1 1.9 -5.7 4.4 -8 5.5 -2.2 1 -5.8 3.5 -7.9 5.5 -2 2 -4.4 3.6 -5.2 3.6 -0.9 0 -1.8 0.7 -2.1 1.5 -0.4 0.8 -1.1 1.5 -1.8 1.5 -0.6 0.1 -3.6 2.5 -6.6 5.5 -3 3 -6 5.5 -6.7 5.5 -0.7 0 -1.7 0.9 -2.3 2 -0.6 1.1 -1.7 2 -2.5 2 -0.8 0 -1.5 0.7 -1.5 1.5 0 0.8 -0.6 1.5 -1.3 1.5 -0.7 0 -4.2 3.2 -7.8 7.1 -3.5 3.8 -7.6 7.7 -9.1 8.5 -1.6 0.8 -2.8 2 -2.8 2.7 0 0.6 -1.3 2.6 -2.8 4.4 -5.8 6.7 -9.7 11.7 -11 14.2 -0.7 1.4 -2.7 4 -4.4 5.6 -1.7 1.7 -3.7 4.4 -4.4 6.1 -0.7 1.7 -1.9 3.6 -2.7 4.3 -0.8 0.6 -1.8 2.3 -2.1 3.6 -0.4 1.4 -1 2.5 -1.5 2.5 -0.5 0 -1.6 1.2 -2.4 2.8 -3.1 6 -7 12.8 -8.3 14.3 -0.8 0.8 -1.4 2.3 -1.4 3.2 0 0.9 -0.4 1.7 -1 1.7 -0.5 0 -1 0.6 -1 1.3 0 1.8 -2.4 6.7 -3.2 6.7 -0.5 0 -0.8 0.9 -0.8 2 0 1.1 -0.4 2 -0.8 2 -0.5 0 -1.5 1.9 -2.2 4.3 -1.2 3.7 -2.9 8 -6 15.2 -3.7 8.9 -11 33.5 -11 37.4 0 1.1 -0.4 2.2 -0.9 2.5 -0.4 0.3 -1.1 2.5 -1.4 4.8 -0.3 2.4 -1.1 7.5 -1.7 11.3 -5.8 36.3 -5.1 73.4 2 104 0.5 2.2 1.2 5.4 1.6 7 0.6 2.9 5.3 20 7.6 28 0.6 2.2 2.4 6.7 3.9 10 1.4 3.3 3.4 8.3 4.3 11 1 2.7 2.1 5.4 2.5 6 0.5 0.5 3.8 6.7 7.4 13.7 10.2 19.6 26.5 43.9 38.2 56.8 25.5 28.1 45.8 45.2 73.6 62 37.6 22.7 78.1 35.8 127.9 41.4 8 0.9 50 -0.4 59.5 -1.8z"
       id="path59" />
    <!-- s -->
    <!-- <path d="M414.3 578 c-4.8 -1 -7.4 -2.3 -12 -5.8 -2.6 -1.9 -3.3 -3.2 -3.3 -5.8 0 -2.2 1.2 -5.3 3.3 -8.4 2.8 -4.3 3.6 -5 6.6 -5 2.7 0 4.1 0.8 7.2 4.4 2.1 2.4 5.7 5.1 7.9 6 3.7 1.5 4.4 1.5 7.7 0.1 4.6 -1.9 7 -4.1 9 -7.9 2.5 -4.8 0 -7.9 -13.3 -17 -15.3 -10.5 -16.8 -12.5 -17.3 -23.3 -0.3 -7.4 0 -9 2.4 -13.8 2.8 -5.9 8.8 -11.5 14.8 -14 9.7 -4 23.7 -2.7 28.2 2.7 2.1 2.5 2.5 4 2.5 9.2 0 7.9 -2.4 11.6 -7.5 11.6 -2.8 0 -3.6 -0.6 -5.2 -3.7 -2 -3.9 -7.4 -8.3 -10.2 -8.3 -2.4 0 -7.8 3.6 -9.7 6.5 -2.6 4 -0.5 6.6 12.1 15 7.3 4.9 12.2 8.9 14.1 11.6 2.8 4 2.9 4.8 2.9 14.8 0 12.3 -1.3 16.1 -8.3 22.8 -7.1 6.9 -21.1 10.6 -31.9 8.3z" id="path61" /> -->
    <!-- u -->
    <!-- <path d="M480.7 567.6 c-10.6 -3.9 -11.2 -8.1 -8 -56.4 l1.7 -26.3 6.6 -4 c4 -2.3 7.9 -3.9 9.8 -3.9 2.8 0 3.2 0.3 3.2 2.8 0.1 1.5 -1.6 16.5 -3.7 33.3 -4.1 33.6 -4 36.6 0.9 40.2 2.3 1.7 3.1 1.8 5.6 0.8 4.1 -1.7 11 -8.9 15.2 -15.7 l3.5 -5.8 1.5 -26.5 1.5 -26.6 6 -3.7 c4 -2.4 7.2 -3.7 9.8 -3.7 l3.7 -0.1 0 4.4 c0 2.4 -1.6 15.3 -3.5 28.7 -1.9 13.4 -3.6 26.7 -3.6 29.6 -0.2 5.2 1.6 11.3 3.2 11.3 0.4 0 2.7 -2.2 5.1 -5 3.5 -4 4.9 -5 7.5 -5 4.9 0 6.3 0.9 6.3 4.2 0 3.4 -8.3 16.1 -13.7 20.8 -2.9 2.6 -4.2 3 -9.2 3 -6.6 0 -10 -1.9 -12.1 -6.9 l-1.2 -3 -4.7 4.8 c-2.6 2.7 -6.8 5.9 -9.2 7.2 -5.5 2.8 -16.7 3.6 -22.2 1.5z" id="path63" /> -->
    <!-- n1 -->
    <!-- <path d="M558 553.3 c0 -9.8 4.8 -78.1 5.6 -79.4 0.3 -0.5 4.6 -0.9 9.6 -0.9 l9.1 0 -0.7 6.3 c-0.4 3.4 -0.9 8.2 -1.2 10.7 l-0.5 4.5 3.6 -6.5 c7.3 -12.7 8.1 -13.2 17.4 -11.4 4.8 1 4.3 5.2 -1.3 11.6 -4.5 5.2 -12.9 20.2 -16.6 29.8 -2.2 6 -7.5 26 -8.6 32.6 -0.3 2.3 -0.9 4.6 -1.3 5.1 -1.1 1.9 -9 5.3 -12.1 5.3 l-3 0 0 -7.7z" id="path65" /> -->
    <!-- n2 -->
    <!-- <path d="M614.2 549.5 c-5.7 -6.4 -6 -9.9 -4 -47.2 1.4 -26.7 0.2 -24.6 12.1 -21.6 5.5 1.4 6.7 2.1 6.7 3.8 0 1.1 -1.1 11.3 -2.5 22.7 -2.4 18.8 -2.5 20.9 -1.1 24.2 0.8 2 1.9 3.6 2.5 3.6 0.5 0 2.8 -2.3 5.1 -5.1 4 -4.7 4.5 -5 8.4 -4.7 4 0.3 4.1 0.4 4.4 4 0.3 3.2 -0.5 5 -4.9 11.3 -7.6 11 -9.7 12.5 -17.4 12.5 -5.9 0 -6.5 -0.2 -9.3 -3.5z" id="path67" /> -->
    <!-- R -->
    <!-- <path d="M382.8 470.4 l-7.8 -4.6 0 -7.7 c0 -4.2 -0.3 -10 -0.6 -12.8 l-0.7 -5.3 3.7 0 c2 0 3.6 0.4 3.6 0.8 0 1 13.8 10.1 19.8 13.1 3.7 1.9 4.2 2.5 4.2 5.7 0 2.5 -1.2 5.2 -4.2 9.4 -5.3 7.6 -7.3 7.7 -18 1.4z" id="path69" /> -->
    <!-- is -->
    <!-- <path d="M428.4 462.6 c-8.1 -3.6 -9.6 -11.6 -9.2 -51.6 l0.3 -30.5 5.5 -3.7 c4 -2.7 6.6 -3.7 9.4 -3.8 l3.9 0 -0.7 9.3 c-0.4 5 -1.4 18.6 -2.3 30.1 -1.2 16.7 -1.3 22 -0.4 26.2 1.8 8 3.1 8.4 7.9 2 l4.1 -5.4 7.7 -0.7 7.6 -0.7 4.2 3.9 c8 7.7 14.2 7.8 21 0.2 6.4 -7 4.8 -9.9 -10.5 -18.9 -5.6 -3.4 -11.6 -7 -13.2 -8.2 -4.4 -3.1 -6.7 -9 -6.7 -17.3 0 -8.9 2.9 -15.5 9.4 -21.2 6.4 -5.6 12.6 -7.6 22.6 -7.1 7.1 0.3 8.2 0.6 10.9 3.2 2.9 2.8 3.1 3.5 3.1 10.1 0 8.6 -1.6 11.5 -6.3 11.5 -2.7 0 -3.6 -0.7 -5.6 -3.9 -3 -4.8 -7.3 -7.5 -10.8 -6.6 -3.8 0.9 -7.2 3.5 -8.9 6.6 -1.3 2.7 -1.3 3 1.3 5.8 1.6 1.7 6.6 5.1 11.3 7.7 11.4 6.2 15.4 9.6 18 15 1.9 3.9 2.2 5.7 1.8 13.2 -0.5 10.5 -3.5 17.2 -10 22.5 -8 6.5 -10.2 7.2 -21.8 7.2 -9.6 0 -11.1 -0.3 -16 -2.8 -4.1 -2.2 -5.5 -2.5 -6.2 -1.5 -0.5 0.7 -1.8 2.8 -2.9 4.6 -3.7 5.8 -11.4 7.8 -18.5 4.8z" id="path71" /> -->
    <!-- i -->
    <!-- <path d="M528.4 443.6 c-4.1 -1.8 -7 -6.7 -8.3 -14 -0.7 -3.5 -1.1 -18.8 -1.1 -37 l0.1 -31.1 6 -3.7 c3.9 -2.5 7.2 -3.8 9.4 -3.8 4.1 0 4 -0.9 2.5 17.5 -2.9 36.7 -3.2 44.9 -1.8 49.5 0.8 2.5 2.1 4.6 2.9 4.8 0.8 0.1 3.2 -2 5.3 -4.8 3.7 -4.8 4.1 -5.1 8 -4.8 4 0.3 4.1 0.4 4.4 4.3 0.2 3.4 -0.6 5.3 -5.6 13 -3.5 5.5 -6.9 9.5 -8.5 10.3 -3.6 1.6 -9.4 1.5 -13.3 -0.2z" id="path73" /> -->
    <!-- n1 -->
    <!-- <path d="M562 397.1 l0 -42.8 5.5 -3.7 c3.7 -2.5 6.6 -3.6 9.1 -3.6 l3.6 0 -0.4 13.4 -0.3 13.3 3.6 -7.6 c2 -4.2 5 -9.5 6.8 -11.8 2.7 -3.8 3.6 -4.3 7 -4.3 7.5 0 9.5 6.6 3.8 12.9 -8.2 9.1 -17.4 32.4 -20.8 52.6 -3.5 21.1 -2.9 19.4 -7.7 22.1 -2.3 1.3 -5.6 2.4 -7.2 2.4 l-3 0 0 -42.9z" id="path75" /> -->
    <!-- n2 -->
    <!-- <path d="M616.3 424.8 c-5.1 -5.5 -5.6 -8.3 -6.1 -33.5 l-0.4 -23.3 3.4 0 c2.4 0 4.3 1 7 3.5 2 1.9 4.4 3.5 5.2 3.5 1.9 0 1.9 -0.5 0.5 13.7 -1 11.1 -0.4 16.5 2.1 20.3 0.9 1.3 1.4 1.1 3.5 -1.2 3.1 -3.6 8 -3.9 8.9 -0.5 1.8 6.9 0.4 11.8 -5.2 18 -2.3 2.4 -3.3 2.7 -9.2 2.7 -6.2 0 -6.8 -0.2 -9.7 -3.2z" id="path77" /> -->
  </g>
  <!-- 黒 -->
  <g
     fill="#000000"
     id="g53">
    <!-- s -->
    <path
       d="M414.3 578 c-4.8 -1 -7.4 -2.3 -12 -5.8 -2.6 -1.9 -3.3 -3.2 -3.3 -5.8 0 -2.2 1.2 -5.3 3.3 -8.4 2.8 -4.3 3.6 -5 6.6 -5 2.7 0 4.1 0.8 7.2 4.4 2.1 2.4 5.7 5.1 7.9 6 3.7 1.5 4.4 1.5 7.7 0.1 4.6 -1.9 7 -4.1 9 -7.9 2.5 -4.8 0 -7.9 -13.3 -17 -15.3 -10.5 -16.8 -12.5 -17.3 -23.3 -0.3 -7.4 0 -9 2.4 -13.8 2.8 -5.9 8.8 -11.5 14.8 -14 9.7 -4 23.7 -2.7 28.2 2.7 2.1 2.5 2.5 4 2.5 9.2 0 7.9 -2.4 11.6 -7.5 11.6 -2.8 0 -3.6 -0.6 -5.2 -3.7 -2 -3.9 -7.4 -8.3 -10.2 -8.3 -2.4 0 -7.8 3.6 -9.7 6.5 -2.6 4 -0.5 6.6 12.1 15 7.3 4.9 12.2 8.9 14.1 11.6 2.8 4 2.9 4.8 2.9 14.8 0 12.3 -1.3 16.1 -8.3 22.8 -7.1 6.9 -21.1 10.6 -31.9 8.3z"
       id="path61" />
    <!-- u -->
    <path
       d="M480.7 567.6 c-10.6 -3.9 -11.2 -8.1 -8 -56.4 l1.7 -26.3 6.6 -4 c4 -2.3 7.9 -3.9 9.8 -3.9 2.8 0 3.2 0.3 3.2 2.8 0.1 1.5 -1.6 16.5 -3.7 33.3 -4.1 33.6 -4 36.6 0.9 40.2 2.3 1.7 3.1 1.8 5.6 0.8 4.1 -1.7 11 -8.9 15.2 -15.7 l3.5 -5.8 1.5 -26.5 1.5 -26.6 6 -3.7 c4 -2.4 7.2 -3.7 9.8 -3.7 l3.7 -0.1 0 4.4 c0 2.4 -1.6 15.3 -3.5 28.7 -1.9 13.4 -3.6 26.7 -3.6 29.6 -0.2 5.2 1.6 11.3 3.2 11.3 0.4 0 2.7 -2.2 5.1 -5 3.5 -4 4.9 -5 7.5 -5 4.9 0 6.3 0.9 6.3 4.2 0 3.4 -8.3 16.1 -13.7 20.8 -2.9 2.6 -4.2 3 -9.2 3 -6.6 0 -10 -1.9 -12.1 -6.9 l-1.2 -3 -4.7 4.8 c-2.6 2.7 -6.8 5.9 -9.2 7.2 -5.5 2.8 -16.7 3.6 -22.2 1.5z"
       id="path63" />
    <!-- n1 -->
    <path
       d="M558 553.3 c0 -9.8 4.8 -78.1 5.6 -79.4 0.3 -0.5 4.6 -0.9 9.6 -0.9 l9.1 0 -0.7 6.3 c-0.4 3.4 -0.9 8.2 -1.2 10.7 l-0.5 4.5 3.6 -6.5 c7.3 -12.7 8.1 -13.2 17.4 -11.4 4.8 1 4.3 5.2 -1.3 11.6 -4.5 5.2 -12.9 20.2 -16.6 29.8 -2.2 6 -7.5 26 -8.6 32.6 -0.3 2.3 -0.9 4.6 -1.3 5.1 -1.1 1.9 -9 5.3 -12.1 5.3 l-3 0 0 -7.7z"
       id="path65" />
    <!-- n2 -->
    <path
       d="M614.2 549.5 c-5.7 -6.4 -6 -9.9 -4 -47.2 1.4 -26.7 0.2 -24.6 12.1 -21.6 5.5 1.4 6.7 2.1 6.7 3.8 0 1.1 -1.1 11.3 -2.5 22.7 -2.4 18.8 -2.5 20.9 -1.1 24.2 0.8 2 1.9 3.6 2.5 3.6 0.5 0 2.8 -2.3 5.1 -5.1 4 -4.7 4.5 -5 8.4 -4.7 4 0.3 4.1 0.4 4.4 4 0.3 3.2 -0.5 5 -4.9 11.3 -7.6 11 -9.7 12.5 -17.4 12.5 -5.9 0 -6.5 -0.2 -9.3 -3.5z"
       id="path67" />
    <!-- R -->
    <path
       d="M382.8 470.4 l-7.8 -4.6 0 -7.7 c0 -4.2 -0.3 -10 -0.6 -12.8 l-0.7 -5.3 3.7 0 c2 0 3.6 0.4 3.6 0.8 0 1 13.8 10.1 19.8 13.1 3.7 1.9 4.2 2.5 4.2 5.7 0 2.5 -1.2 5.2 -4.2 9.4 -5.3 7.6 -7.3 7.7 -18 1.4z"
       id="path69" />
    <!-- is -->
    <path
       d="M428.4 462.6 c-8.1 -3.6 -9.6 -11.6 -9.2 -51.6 l0.3 -30.5 5.5 -3.7 c4 -2.7 6.6 -3.7 9.4 -3.8 l3.9 0 -0.7 9.3 c-0.4 5 -1.4 18.6 -2.3 30.1 -1.2 16.7 -1.3 22 -0.4 26.2 1.8 8 3.1 8.4 7.9 2 l4.1 -5.4 7.7 -0.7 7.6 -0.7 4.2 3.9 c8 7.7 14.2 7.8 21 0.2 6.4 -7 4.8 -9.9 -10.5 -18.9 -5.6 -3.4 -11.6 -7 -13.2 -8.2 -4.4 -3.1 -6.7 -9 -6.7 -17.3 0 -8.9 2.9 -15.5 9.4 -21.2 6.4 -5.6 12.6 -7.6 22.6 -7.1 7.1 0.3 8.2 0.6 10.9 3.2 2.9 2.8 3.1 3.5 3.1 10.1 0 8.6 -1.6 11.5 -6.3 11.5 -2.7 0 -3.6 -0.7 -5.6 -3.9 -3 -4.8 -7.3 -7.5 -10.8 -6.6 -3.8 0.9 -7.2 3.5 -8.9 6.6 -1.3 2.7 -1.3 3 1.3 5.8 1.6 1.7 6.6 5.1 11.3 7.7 11.4 6.2 15.4 9.6 18 15 1.9 3.9 2.2 5.7 1.8 13.2 -0.5 10.5 -3.5 17.2 -10 22.5 -8 6.5 -10.2 7.2 -21.8 7.2 -9.6 0 -11.1 -0.3 -16 -2.8 -4.1 -2.2 -5.5 -2.5 -6.2 -1.5 -0.5 0.7 -1.8 2.8 -2.9 4.6 -3.7 5.8 -11.4 7.8 -18.5 4.8z"
       id="path71" />
    <!-- i -->
    <path
       d="M528.4 443.6 c-4.1 -1.8 -7 -6.7 -8.3 -14 -0.7 -3.5 -1.1 -18.8 -1.1 -37 l0.1 -31.1 6 -3.7 c3.9 -2.5 7.2 -3.8 9.4 -3.8 4.1 0 4 -0.9 2.5 17.5 -2.9 36.7 -3.2 44.9 -1.8 49.5 0.8 2.5 2.1 4.6 2.9 4.8 0.8 0.1 3.2 -2 5.3 -4.8 3.7 -4.8 4.1 -5.1 8 -4.8 4 0.3 4.1 0.4 4.4 4.3 0.2 3.4 -0.6 5.3 -5.6 13 -3.5 5.5 -6.9 9.5 -8.5 10.3 -3.6 1.6 -9.4 1.5 -13.3 -0.2z"
       id="path73" />
    <!-- n1 -->
    <path
       d="M562 397.1 l0 -42.8 5.5 -3.7 c3.7 -2.5 6.6 -3.6 9.1 -3.6 l3.6 0 -0.4 13.4 -0.3 13.3 3.6 -7.6 c2 -4.2 5 -9.5 6.8 -11.8 2.7 -3.8 3.6 -4.3 7 -4.3 7.5 0 9.5 6.6 3.8 12.9 -8.2 9.1 -17.4 32.4 -20.8 52.6 -3.5 21.1 -2.9 19.4 -7.7 22.1 -2.3 1.3 -5.6 2.4 -7.2 2.4 l-3 0 0 -42.9z"
       id="path75" />
    <!-- n2 -->
    <path
       d="M616.3 424.8 c-5.1 -5.5 -5.6 -8.3 -6.1 -33.5 l-0.4 -23.3 3.4 0 c2.4 0 4.3 1 7 3.5 2 1.9 4.4 3.5 5.2 3.5 1.9 0 1.9 -0.5 0.5 13.7 -1 11.1 -0.4 16.5 2.1 20.3 0.9 1.3 1.4 1.1 3.5 -1.2 3.1 -3.6 8 -3.9 8.9 -0.5 1.8 6.9 0.4 11.8 -5.2 18 -2.3 2.4 -3.3 2.7 -9.2 2.7 -6.2 0 -6.8 -0.2 -9.7 -3.2z"
       id="path77" />
  </g>
  <!-- 水色 -->
  <g
     fill="#48fffb"
     id="g83">
    <path
       d="m 236,567.6 c 0,-0.7 -0.6,-1.9 -1.4,-2.5 -0.8,-0.7 -2.1,-3.4 -3,-6.2 -0.9,-2.8 -3.1,-8 -4.8,-11.7 -1.7,-3.7 -3.2,-7.4 -3.4,-8.2 -0.1,-0.8 -1.1,-4.6 -2.1,-8.5 -1.1,-3.8 -2.8,-9.9 -3.7,-13.5 -0.9,-3.6 -2.1,-7.8 -2.6,-9.5 -0.4,-1.6 -1.3,-6.1 -2,-10 -0.7,-3.8 -1.8,-8.5 -2.6,-10.2 -0.7,-1.8 -1,-3.3 -0.6,-3.3 0.5,0 0.3,-5.1 -0.4,-11.2 -2.6,-22.8 -1.5,-54.2 2.6,-80.3 0.6,-3.8 1.4,-8.9 1.7,-11.3 0.3,-2.3 1,-4.5 1.4,-4.8 0.5,-0.3 0.9,-1.4 0.9,-2.5 0,-3.9 7.3,-28.5 11,-37.4 3.1,-7.2 4.8,-11.5 6,-15.2 0.7,-2.4 1.7,-4.3 2.2,-4.3 0.5,0 0.6,-0.5 0.2,-1.2 -0.4,-0.6 -0.1,-1.6 0.7,-2.2 1.9,-1.5 3.9,-5.2 3.9,-7.1 0,-0.8 0.5,-1.5 1,-1.5 0.6,0 1,-0.8 1,-1.7 0,-0.9 0.6,-2.4 1.4,-3.2 1.3,-1.5 5.2,-8.3 8.3,-14.3 0.8,-1.6 1.9,-2.8 2.4,-2.8 0.5,0 1.1,-1.1 1.5,-2.5 0.3,-1.3 1.3,-3 2.1,-3.6 0.8,-0.7 2,-2.6 2.7,-4.3 0.7,-1.7 2.7,-4.4 4.4,-6.1 1.7,-1.6 3.7,-4.2 4.4,-5.6 1.3,-2.5 5.2,-7.5 11,-14.2 1.5,-1.8 2.8,-3.8 2.8,-4.4 0,-0.7 1.2,-1.9 2.8,-2.7 1.5,-0.8 5.6,-4.7 9.1,-8.5 3.6,-3.9 7.1,-7.1 7.8,-7.1 0.7,0 1.3,-0.7 1.3,-1.5 0,-0.8 0.7,-1.5 1.5,-1.5 0.8,0 1.9,-0.9 2.5,-2 0.6,-1.1 1.6,-2 2.3,-2 0.7,0 3.7,-2.5 6.7,-5.5 3,-3 6,-5.4 6.6,-5.5 0.7,0 1.4,-0.7 1.8,-1.5 0.3,-0.8 1.2,-1.5 2.1,-1.5 0.8,0 3.2,-1.6 5.2,-3.6 2.1,-2 5.7,-4.5 7.9,-5.5 2.3,-1.1 5.9,-3.6 8,-5.5 2.2,-1.9 5.1,-3.8 6.7,-4.1 1.5,-0.3 3,-1 3.3,-1.4 0.3,-0.5 1.4,-0.9 2.5,-0.9 1,0 1.9,-0.7 1.9,-1.5 0,-0.8 0.9,-1.5 2,-1.5 1.1,0 2,-0.5 2,-1.1 0,-0.6 0.6,-0.9 1.4,-0.6 0.8,0.3 1.7,-0.1 2,-1 0.4,-0.8 1.3,-1.3 2.1,-0.9 0.8,0.3 1.8,-0.1 2.2,-0.8 0.8,-1.2 3.8,-2.9 5.8,-3.1 2.7,-0.3 8.5,-2.8 9.5,-4.1 0.7,-0.7 2.3,-1.4 3.6,-1.4 1.4,0 2.4,-0.6 2.4,-1.5 0,-1 1.6,-1.6 5,-2.1 2.8,-0.4 5.3,-1.1 5.6,-1.5 0.3,-0.5 1.8,-0.9 3.3,-0.9 3.2,0 9.6,-2.4 10.6,-4 0.4,-0.6 1.6,-0.8 2.6,-0.5 1.1,0.4 2.7,0.1 3.6,-0.7 0.9,-0.7 3,-1.3 4.7,-1.4 5.3,-0.2 11,-1.6 12.7,-3 1,-0.9 2.7,-1.2 4.6,-0.8 1.9,0.4 3.5,0.1 4.4,-0.8 0.9,-0.8 4.1,-1.3 8.8,-1.4 4,-0.1 7.6,-0.6 8,-1.1 0.3,-0.5 15.2,-0.9 36.1,-0.9 27.8,0.1 36,0.4 37.9,1.4 1.3,0.8 3.8,1.2 5.7,1 1.9,-0.2 3.5,0 3.7,0.5 0.1,0.4 3.1,1 6.6,1.2 3.5,0.2 6.9,0.9 7.7,1.5 0.7,0.7 2.3,1 3.6,0.9 1.3,-0.1 3.4,0.2 4.8,0.8 4.7,2 9.6,3.3 12.2,3.3 1.3,0 2.8,0.3 3.1,0.7 0.9,0.8 22.4,8.3 26,9 1.5,0.3 2.7,0.8 2.7,1.2 0,0.8 8,4.3 9.4,4.1 0.5,-0.1 1.2,0.3 1.6,1 0.4,0.6 1.4,1.2 2.2,1.4 0.9,0.1 2.2,0.7 2.9,1.3 0.8,0.6 2.5,1.4 3.9,1.8 1.4,0.4 2.8,1.2 3.1,1.7 0.3,0.5 1.3,1 2.1,1.2 0.9,0.1 2.3,0.8 3.2,1.5 0.9,0.7 1.6,1.1 1.6,0.7 0,-0.3 1.9,0.7 4.2,2.4 2.2,1.6 4.5,3 4.9,3 0.4,0 4.9,2.8 9.8,6.2 5,3.5 11.2,7.7 13.7,9.5 2.6,1.8 5,3.6 5.3,4 0.3,0.5 3.3,3 6.6,5.5 5.5,4.1 12.1,10 20,17.6 14.3,13.8 40,46.8 46.2,59.2 0.7,1.4 2.2,4.1 3.4,6 2.1,3.4 11,21.2 16.2,32 3.8,8.2 7.7,19.3 11.2,32.3 0.8,3.1 2.2,8.3 3.1,11.5 1.8,6.4 4.4,18 4.2,19 0,0.4 0.1,0.9 0.2,1.2 0.2,0.3 1,6.8 2,14.5 2.1,17.1 2.1,62.3 0.1,75 -2.2,13.3 -6,32.2 -7.5,36.7 -0.8,2.4 -1.7,5.7 -2,7.3 -1.2,5.4 -3.9,14 -4.8,14.9 -0.4,0.6 -0.8,1.6 -0.8,2.4 0,1.9 -4.3,11.2 -5.2,11.2 -0.4,0 -4.5,-2.4 -9,-5.3 -15.5,-9.9 -44.7,-24.9 -66.3,-34 -14.8,-6.2 -40.8,-15.1 -56.7,-19.3 L 638,491.5 v -3.6 c 0,-2 0.7,-7.4 1.7,-12 3,-15.5 2.2,-34.8 -2.3,-52.1 -1.1,-4.4 -1.2,-6.3 -0.4,-7.8 0.7,-1.3 0.8,-3.4 0.4,-5.3 -0.4,-1.8 -0.9,-2.6 -1.1,-1.9 -1.1,3 -3.2,0.5 -8.1,-9.5 -3.8,-7.8 -5.2,-12 -5.2,-14.9 0,-2.5 -0.6,-4.7 -1.5,-5.4 -1.2,-1 -1.4,-3 -0.9,-10.9 0.5,-7.6 0.3,-10.4 -1,-13.3 -2.1,-4.9 -5.6,-7.2 -9.5,-6.3 -4.1,0.9 -4.9,2.5 -1.4,2.5 5.2,0.1 6.5,2.1 6.7,10.2 l 0.1,7.3 -3.5,0.3 c -3,0.2 -4.1,-0.4 -8.4,-4.7 -3.9,-4 -4.7,-5.3 -3.8,-6.4 1.33544,-1.57111 -0.72313,-4.06785 -2.68545,-4.24235 -0.53569,-0.0476 -1.06421,0.0778 -1.51455,0.44235 -1.1,0.9 -3.1,0 -9.7,-4.9 -37.2,-26.9 -83.2,-32 -124.7,-13.8 -22.5,9.8 -40,23.7 -54.8,43.3 -6.4,8.5 -16.1,27.3 -19.3,37.2 -2.2,7.2 -6.1,25 -6.1,28.1 0,2.1 -6.1,2.8 -9.2,1.1 -3,-1.6 -18.3,-15.3 -25,-22.4 -3.4,-3.5 -5.8,-6.9 -5.8,-8.2 0,-2 -0.2,-2.1 -3.2,-1.1 -1.8,0.6 -3.7,1.4 -4.1,1.8 -1.1,0.9 6.9,10.4 16.4,19.7 7.3,7.1 24.3,21.1 26.7,22 0.6,0.3 1.2,1.8 1.2,3.4 0,1.5 0.6,3.2 1.3,3.6 1.3,0.8 5.6,19.4 6.4,27.8 l 0.4,4 -17.8,5.8 c -43.5,14 -91.6,38.5 -124.6,63.4 -6,4.5 -7.7,5.2 -7.7,2.9 z m 76.4,-88.6 2.6,-1 v -19.7 c 0.1,-41.5 2.6,-84.1 5.6,-95 0.6,-2 0.3,-2.3 -2.5,-2.3 H 315 v -6 c 0,-3.2 -0.4,-9.2 -0.9,-13.2 -0.6,-4 -1.5,-11.8 -2.1,-17.3 -0.7,-5.5 -1.6,-11.7 -2.1,-13.7 l -1,-3.8 -3.9,2.6 c -2.2,1.5 -3.7,3 -3.5,3.5 0.3,0.4 1,3.8 1.5,7.6 0.5,3.7 1.6,11.8 2.5,17.8 1.4,10.1 3.8,65.1 3,67.8 -0.2,0.7 -0.6,17.5 -1,37.5 -0.6,39.5 -0.9,37.4 4.9,35.2 z m 363.1,-13 c 1.5,-0.7 0.9,-0.9 -2.6,-0.9 -2.5,-0.1 -6.1,-0.6 -7.9,-1.2 -2.6,-0.9 -3.4,-0.9 -4.1,0.2 -0.5,0.8 -0.3,1.6 0.4,2.1 1.6,1 11.7,0.9 14.2,-0.2 z M 704,435.5 c 1.6,-3.7 2.9,-14.9 4,-33 0.6,-9.9 1.5,-25 2,-33.5 0.5,-8.5 1.2,-21.1 1.6,-28 l 0.6,-12.4 -2.3,1.6 c -1.3,0.8 -2.5,2.5 -2.7,3.7 -0.2,1.1 -1,2.1 -1.8,2.1 -1.1,0 -1.2,0.4 -0.4,1.9 1.9,3.6 0.6,23.7 -2.3,34.8 -1.3,4.8 -1.2,5.2 0.5,5.6 2.1,0.6 2.2,1.4 0.8,22.8 -1.1,18.9 -1.9,39.9 -1.3,37.9 0.3,-0.8 0.8,-2.4 1.3,-3.5 z m -31.2,-23.4 c 0.9,-0.5 0.1,-1 -2.5,-1.4 -4.5,-0.8 -8.5,-4.5 -10.2,-9.6 -1.4,-4.4 -1.4,-25.7 0,-31.8 0.7,-2.7 1.9,-7.4 2.9,-10.5 2.1,-7 1.1,-6.7 -2.5,0.9 -5,10.5 -7.6,20.7 -7.6,30.2 0,6.2 0.4,8.3 2.8,13 1.6,3.2 4.3,6.5 6.2,7.8 3.4,2.3 8.5,3 10.9,1.4 z M 389.3,360 c 8.7,-16.7 12.2,-29.5 12,-44 -0.2,-15.1 -3.9,-23.8 -13,-30.7 -4.6,-3.5 -11.8,-3.7 -17.8,-0.5 l -4,2.1 6.6,0.1 c 8.7,0 12.3,2.4 16.4,10.5 2.9,5.8 3,6.5 3.3,22.2 0.3,12.3 -0.1,18.3 -1.3,24.5 -1.8,8.8 -4.7,18.3 -6.6,22 -0.6,1.3 -0.7,1.9 -0.1,1.3 0.6,-0.5 2.6,-3.9 4.5,-7.5 z M 433,331.8 c 1.7,-1.9 1.8,-2.4 0.6,-4.2 -1.8,-2.8 -4.3,-3.2 -6.7,-1 -2.5,2.2 -2.4,3.9 0.3,5.8 2.9,2.1 3.3,2 5.8,-0.6 z m 100.4,-19.3 c 1.5,-2.3 1.5,-2.6 -0.7,-5 l -2.2,-2.7 -2.8,2.2 c -3.1,2.5 -3.3,3.6 -1,6.2 2.2,2.5 4.8,2.3 6.7,-0.7 z"
       id="path81"
       sodipodi:nodetypes="scssccscccsccccsccsccsssccsccscccsccssssssccscccccssssscccccssccscccccscccccscscscsccsccccsscsscscccccscccsccccsccssccccsccccccsccccccccccscccccsccsscccscccccsccccscscccccccccccccccccccsccccsccccccccccccscccccccccccccccccccccccccc" />
  </g>
  <!-- 青 -->
  <g
     fill="#1c2173"
     id="g87">
    <path
       d="M481 738.4 c-59.9 -6.7 -108.2 -25 -152 -57.6 -18.8 -13.9 -30.2 -24.5 -49.5 -45.8 -11.4 -12.6 -28.7 -38.3 -38.5 -57.3 -4.5 -8.6 -5.3 -10.9 -4.4 -12.4 0.6 -1 6.7 -5.6 13.6 -10.3 35.4 -24.2 74.8 -43.7 115 -56.7 14.5 -4.7 17.7 -6.1 17.2 -7.4 -0.3 -1 0.2 -1.8 1.3 -2.1 17.5 -4.9 42.9 -10.5 57.8 -12.7 30.2 -4.4 46.1 -5.3 88.1 -5 35.7 0.3 39.2 0.2 41.7 -1.4 1.4 -0.9 4.4 -1.7 6.7 -1.7 3.7 0 4 0.2 4 2.9 0 2.1 0.6 3 2.3 3.5 4.8 1.3 8.3 0.6 10.8 -2 5.3 -5.8 9.8 -7.7 18.1 -7.8 6.2 -0.1 8.2 0.3 10.4 2 3 2.2 5.2 7.2 5.3 12 0.1 3 0.4 3.2 5.9 4.5 4.4 1.1 5.8 1.9 6 3.4 0.2 1.6 2.2 2.5 11 4.9 15.9 4.3 41.9 13.1 56.7 19.3 29.2 12.3 73.5 36.3 73.5 39.8 0 3.4 -12.2 28.9 -20.5 43 -4.1 7 -12.7 19.6 -19.8 29 -4.4 5.9 -15 18.1 -22.6 25.9 -8.2 8.6 -29.2 27.3 -33.8 30.3 -1.5 1 -5.5 3.8 -8.8 6.4 -16.9 12.9 -51.9 30.6 -76.5 38.7 -15.3 5 -37.4 10.3 -53.5 12.8 -9.5 1.4 -56.9 2.8 -65.5 1.8z m-47.3 -165.6 c6 -2.2 12.9 -8.5 15.8 -14.3 1.5 -2.9 2 -6 2 -11.6 0 -10.4 -2.3 -13.7 -17.1 -23.5 -8.1 -5.4 -11.6 -8.4 -12.8 -10.8 -2.1 -4.4 -2 -5.4 0.4 -9.4 6.2 -10.2 20.8 -9.5 26.3 1.2 l2 3.9 2.4 -2.7 c5.1 -6 1.4 -14.3 -7.3 -16.5 -12.1 -3.1 -27.3 6 -31.5 18.6 -1.7 5.3 -0.7 12.6 2.4 16.6 1.4 1.9 7.7 6.9 14 11.2 6.3 4.3 12.2 9.1 13.1 10.6 4 6.7 0.6 15.6 -7.4 19.7 -8.1 4.1 -16.6 2 -23.3 -5.8 -2 -2.4 -3.8 -4.2 -4 -3.9 -0.2 0.2 -1.9 2.6 -3.7 5.3 l-3.3 4.9 2.9 2.4 c8.8 7.2 17.3 8.4 29.1 4.1z m66.5 -9.9 c4.7 -2.4 13.1 -10.6 15.4 -15.1 1.8 -3.5 2.6 -3 4.3 3.1 1.7 5.7 6 10.1 10 10.1 4 0 8.5 -4 15 -13.4 4.3 -6.3 4.8 -7.5 3.4 -8 -1.2 -0.5 -2.8 0.6 -5.6 3.9 -4.1 4.8 -8.3 7.5 -10.5 6.8 -0.7 -0.3 -2 -1.9 -2.9 -3.6 -2.6 -4.8 -2 -15.6 2.2 -45 2.1 -14.2 3.5 -26 3.2 -26.3 -0.3 -0.3 -3.4 1.2 -6.8 3.3 l-6.4 3.8 -1.5 26.6 -1.5 26.5 -3.5 5.7 c-3.9 6.4 -9.1 12.1 -13.5 14.9 -4.3 2.6 -10.7 2.4 -14.2 -0.6 -2.5 -2.2 -2.8 -3.1 -3.1 -10.3 -0.2 -4.9 1 -18.2 3.3 -36.2 1.9 -15.6 3.4 -28.5 3.2 -28.7 -0.1 -0.2 -3.2 1.4 -6.8 3.6 l-6.5 3.9 -1.7 26.3 c-2.1 32.6 -2.2 39 -0.1 43.4 1.9 4 3.3 5.2 8.1 7 4.7 1.8 11 1.1 16.5 -1.7z m69.9 -10.2 c0.4 -0.5 1 -2.8 1.3 -5.1 1.1 -6.6 6.4 -26.6 8.6 -32.6 3.7 -9.6 12.1 -24.6 16.6 -29.8 l4.3 -5 -3.2 -0.6 c-2.7 -0.6 -3.5 -0.2 -5.3 2 -3 3.7 -11 19 -15 28.7 l-3.4 8.2 0.6 -5.5 c0.3 -3 1.3 -12.5 2.3 -21 l1.6 -15.5 -5.4 -0.3 c-3 -0.2 -5.8 0.1 -6.2 0.5 -0.9 0.9 -5.9 66.6 -5.9 76.6 l0 4.7 4.3 -2.1 c2.3 -1.2 4.5 -2.6 4.8 -3.2z m59.7 -5.2 c1.6 -1.3 5.3 -5.9 8.2 -10 4 -5.9 5 -7.9 4 -8.8 -0.9 -0.9 -2.2 0 -5.8 4 -5.1 5.6 -8.2 7.6 -10.5 6.7 -2.1 -0.8 -4.7 -7.6 -4.7 -12.2 0 -3 2.5 -24.8 4.4 -38.7 0.4 -3 0.2 -3.1 -5.3 -4.6 l-5.8 -1.5 -1.2 26.1 c-1.5 29 -1.2 32.1 4 38 3.9 4.4 8.3 4.7 12.7 1z"
       id="path85" />
  </g>
  <!-- 赤 -->
  <g
     fill="#fe3147"
     id="g101">
    <!-- Risin -->
    <path
       d="M382.7 491.3 c-1 -1.6 -4.7 -21.4 -4.7 -25 l0 -3.5 4.8 2.8 c2.6 1.5 6.1 3.6 7.8 4.6 l3 1.8 4.2 -6 c2.3 -3.2 4.2 -6.1 4.2 -6.4 0 -0.3 -2.2 -1.7 -4.8 -3 -2.6 -1.3 -7.8 -4.5 -11.6 -7 -3.8 -2.5 -7 -4.6 -7.2 -4.6 -0.2 0 -0.4 3.8 -0.4 8.5 0 4.7 -0.3 8.5 -0.6 8.5 -2 0 -21 -15.3 -30.8 -24.8 -8.6 -8.4 -19.6 -21.6 -19.6 -23.6 0 -0.6 2.1 -1.8 4.7 -2.5 18.2 -4.8 37.1 -21.7 47.5 -42.4 8 -16.1 11.1 -30.1 10.6 -49 -0.3 -12.3 -0.5 -13.6 -3.3 -19.2 -3.5 -7.1 -8 -10.5 -13.6 -10.5 -19.2 0 -41 34.4 -49.8 78.5 -3 15.3 -5 51.9 -5.1 92.8 l0 19.7 -2.7 1.1 c-1.5 0.5 -4.7 1.3 -7.1 1.6 l-4.5 0.6 0.7 -29.4 c1 -40.2 0.8 -81.8 -0.4 -97.4 -1 -12.3 -1.5 -16.9 -4 -33.2 -2.6 -16.3 -3 -14.3 4 -19.1 3.4 -2.3 6.5 -4.2 6.9 -4.2 0.8 0 2.6 9 4.1 20.5 2.6 21.4 3 25.4 3 30.8 0 9.2 1.3 7.7 6 -7.3 1.3 -4.1 2.7 -7.9 3 -8.5 0.4 -0.5 1.3 -2.6 2 -4.5 8.1 -21.4 24.2 -42.9 37.1 -49.7 4.6 -2.3 6.6 -2.8 13.5 -2.8 7.3 0 8.4 0.3 11.8 2.9 5.2 3.9 9.1 9.6 11.3 16.4 2.5 8 2.5 28 -0.1 37.7 -6.5 24.8 -21.7 48.6 -41 64.2 -4.4 3.6 -9.6 7.3 -11.6 8.3 -6.5 3.3 -6.5 3.9 -0.2 10.5 6.4 6.8 20 19 25 22.4 l3.2 2.2 0 -2.4 c0 -3.9 3.6 -20.9 6.1 -29 3.2 -9.9 12.9 -28.7 19.3 -37.2 10.5 -14 24 -26.3 37.5 -34.5 30.2 -18.1 62.7 -23.7 98.6 -17.1 14.2 2.6 35.7 12.2 49.3 22.1 l8.3 6 3.7 -2.9 c2 -1.6 5.6 -3.5 7.9 -4.1 3.6 -1.1 4.6 -1 8 0.6 6.1 3 7.3 6.7 7.1 20.7 -0.2 12.8 -0.8 14.9 -3 12.1 -0.7 -1.1 -2.9 -3.2 -4.7 -4.9 l-3.3 -3 0.4 20.5 c0.5 22.3 1.1 25.5 6.1 30.8 2.4 2.5 3.9 3.2 6.8 3.2 3.2 0 4.3 -0.7 7.3 -4.2 2 -2.3 3.6 -4.5 3.6 -5 0 -0.4 0.4 -0.8 0.9 -0.8 1.1 0 3.2 7.1 5.2 17.5 1.9 10 1.7 35.8 -0.4 46.4 -1 4.7 -1.9 8.6 -2.1 8.9 -0.3 0.2 -3.6 -0.4 -7.5 -1.3 -6.9 -1.7 -7.1 -1.9 -7.2 -4.9 -0.4 -15.7 -15.9 -18.9 -28.3 -5.8 -2.6 2.8 -3.3 3.1 -7.5 2.6 -11 -1.2 -11.1 -1.3 -11.1 -4.4 0 -3.6 -0.9 -3.7 -6 -0.5 -3.8 2.4 -4.2 2.5 -13.2 1.5 -23 -2.4 -77.3 -0.9 -107.3 3 -14.3 1.8 -42.8 7.5 -55.5 11 -10.3 2.8 -13.6 3.4 -14.3 2.3z m56.2 -31.8 c3.2 -1.6 14.6 -18.8 13.6 -20.5 -1.2 -1.9 -2.4 -1 -6.6 4.5 -6.7 8.9 -11.6 8.3 -14 -1.8 -1.3 -5.4 -1 -13.9 1.6 -47.2 0.7 -9.9 1.2 -18.2 1 -18.4 -0.2 -0.2 -3 1.4 -6.2 3.5 l-5.8 3.9 -0.3 27.5 c-0.4 36.7 1.2 45.1 9.2 48.6 3.9 1.7 4.1 1.7 7.5 -0.1z m44.1 -7 c14.4 -7.3 21.7 -23.2 16.1 -34.9 -2.7 -5.4 -6.7 -8.8 -18.1 -15 -4.7 -2.6 -9.7 -6 -11.2 -7.6 -7.1 -7.7 0.3 -19 12.2 -19 5.3 0 9 2.2 12.1 7.2 l2.4 3.9 1.8 -2.2 c1 -1.3 1.7 -3.8 1.7 -6.3 0 -12.3 -18.1 -14.3 -30.6 -3.3 -8.5 7.5 -11.4 17.7 -7.5 26.3 2.1 4.6 3.7 5.9 18 14.4 5.7 3.3 11.1 7 12.1 8.3 7.3 8.8 -1.8 22.7 -14.9 22.7 -5.4 0 -8.8 -1.6 -13.8 -6.4 -4.7 -4.4 -4.8 -4.4 -8.4 2.3 l-2.4 4.3 3 2.4 c1.7 1.3 4.8 3.1 7 3.9 5.1 1.9 15.8 1.4 20.5 -1z m56.5 -12.4 c4.3 -2.6 14.2 -18.8 12.6 -20.4 -1 -0.9 -1.9 -0.3 -4.4 2.8 -6.9 8.6 -9.9 10.2 -13 6.7 -4.3 -4.8 -4.4 -12.3 -0.7 -60.7 0.4 -6 0.7 -11.1 0.5 -11.3 -0.1 -0.2 -3 1.4 -6.3 3.5 l-6.1 3.8 -0.1 28.1 c0 36.7 1.5 44.5 9.4 48 4.1 1.7 4.6 1.7 8.1 -0.5z m34.7 -11.7 c0.4 -2.2 1.6 -9.3 2.7 -15.9 3.4 -20.2 12.6 -43.5 20.8 -52.6 l3.3 -3.6 -2.1 -1.9 c-2.1 -1.9 -2.1 -1.9 -5.1 1.6 -3.8 4.5 -10.9 19.2 -14.4 30 -1.5 4.7 -3 8.8 -3.3 9.2 -0.3 0.4 -0.2 -9.4 0.2 -21.8 0.5 -12.4 0.7 -22.8 0.4 -23.1 -0.3 -0.2 -3 1.2 -6.1 3.3 l-5.6 3.7 0 39.8 0 39.9 4.3 -2.4 c3.5 -2 4.3 -3.1 4.9 -6.2z m38.2 -67.7 c-0.3 -2.3 -1.4 -4.7 -2.3 -5.4 -2.1 -1.6 -5.4 -1.6 -6.9 -0.1 -1 1 -0.2 2.3 3.5 6 2.5 2.6 5 4.5 5.5 4.2 0.5 -0.4 0.6 -2.5 0.2 -4.7z"
       id="path89" />
    <!-- n2 -->
    <path
       d="M606 480.8 c-4.1 -0.9 -4.3 -1.1 -2.5 -2.4 3.1 -2.3 7.3 -2.1 9.3 0.4 2.6 3.4 1.3 3.8 -6.8 2z"
       id="path91" />
    <!-- g -->
    <path
       d="M661.1 469.9 c-6.4 -1.2 -6.7 -2 -3.6 -7.7 l2.7 -5 5.2 2.4 c6.7 3.1 14.7 3.2 19.6 0.3 11.8 -7.1 14.3 -15.2 15.5 -49.9 0.3 -10.7 0.8 -21 1.1 -22.8 1.2 -7.2 -0.7 -6.7 -4 1.1 -9.1 20.9 -21.4 31 -33.6 27.7 -5.4 -1.5 -8.5 -4.3 -11.6 -10.7 -2.5 -5.1 -2.8 -6.6 -2.7 -15.7 0.2 -16 4.9 -30.4 13.7 -42.2 9.1 -12.3 17.1 -17.4 26.9 -17.4 3.5 0.1 7.3 0.7 8.7 1.5 3.5 2 5 1.8 5 -0.4 0 -2 10.5 -9.9 11.7 -8.8 0.3 0.3 0 7.5 -0.6 15.9 -0.6 8.4 -1.5 23.2 -2.1 32.8 -3.1 54.4 -3.8 62 -5.9 67.5 -5.1 13.2 -13.4 23.5 -22.5 27.9 -3 1.5 -8.1 3.1 -11.3 3.6 -6.5 1.1 -6.1 1.1 -12.2 -0.1z m16.6 -63 c8 -3 17.1 -18.3 21.8 -36.4 2 -7.8 3.9 -24.9 3.1 -28.1 -0.8 -2.9 -8.8 -8.4 -12.3 -8.4 -3.9 0 -11.9 4.7 -15.2 8.9 -3.9 4.9 -8.4 14.8 -10.1 22.1 -0.7 3 -1.6 6.8 -2.1 8.4 -1.3 4.2 -1.1 20.7 0.2 24.7 1.8 5.4 6.4 9.6 10.6 9.8 0.6 0.1 2.4 -0.4 4 -1z"
       id="path93"
       style="fill:#000000" />
    <!-- n2 -->
    <path
       d="M626.1 413.1 c-3.7 -3.7 -4.7 -10.8 -3.4 -24.4 0.7 -8 0.7 -8 8.4 7.5 2.8 5.6 5.3 10.5 5.6 10.8 0.2 0.2 1.4 -0.8 2.6 -2.3 1.6 -1.9 2.6 -2.4 3.6 -1.8 1.2 0.7 0.9 1.8 -1.5 5.8 -2.8 4.7 -2.8 4.8 -3.7 2.3 l-0.9 -2.6 -3.3 3.3 c-3.8 3.8 -4.8 4 -7.4 1.4z"
       id="path95" />
    <!-- i1 -->
    <path
       d="M425.3 336 c-2.9 -1.7 -3.3 -2.5 -3.3 -6.4 0 -3.6 0.5 -4.8 2.6 -6.5 8.4 -6.6 18.3 4.7 10.8 12.3 -3.2 3.1 -5.8 3.3 -10.1 0.6z"
       id="path97"
       style="fill:#000000" />
    <!-- i2 -->
    <path
       d="M523.7 316.2 c-1 -1.1 -1.7 -3.5 -1.7 -6 0 -4.9 3.4 -8.2 8.6 -8.2 6.1 0 9.5 7.9 5.8 13.5 -1.4 2.1 -2.4 2.5 -6.4 2.5 -3.3 0 -5.2 -0.5 -6.3 -1.8z"
       id="path99"
       style="fill:#000000" />
  </g>
</svg>
