<?xml version="1.0" encoding="UTF-8"?>
<svg xmlns="http://www.w3.org/2000/svg" xmlns:xlink="http://www.w3.org/1999/xlink" width="16pt" height="16pt" viewBox="0 0 16 16" version="1.1">
<g id="surface1">
<path style=" stroke:none;fill-rule:nonzero;fill:rgb(28.235294%,100%,98.431373%);fill-opacity:1;" d="M 3.785156 9.074219 C 3.785156 9.0625 3.773438 9.042969 3.761719 9.035156 C 3.75 9.023438 3.726562 8.980469 3.714844 8.9375 C 3.699219 8.890625 3.664062 8.808594 3.636719 8.75 C 3.609375 8.691406 3.585938 8.628906 3.582031 8.617188 C 3.582031 8.605469 3.566406 8.542969 3.546875 8.480469 C 3.53125 8.421875 3.503906 8.324219 3.488281 8.265625 C 3.476562 8.207031 3.457031 8.140625 3.449219 8.113281 C 3.441406 8.089844 3.425781 8.015625 3.414062 7.953125 C 3.40625 7.894531 3.386719 7.816406 3.375 7.789062 C 3.363281 7.761719 3.359375 7.738281 3.363281 7.738281 C 3.371094 7.738281 3.371094 7.65625 3.359375 7.558594 C 3.316406 7.195312 3.335938 6.691406 3.398438 6.273438 C 3.410156 6.210938 3.421875 6.132812 3.425781 6.09375 C 3.433594 6.054688 3.441406 6.019531 3.449219 6.015625 C 3.457031 6.011719 3.464844 5.992188 3.464844 5.976562 C 3.464844 5.914062 3.582031 5.519531 3.640625 5.378906 C 3.691406 5.261719 3.71875 5.195312 3.734375 5.132812 C 3.746094 5.097656 3.761719 5.066406 3.769531 5.066406 C 3.777344 5.066406 3.78125 5.058594 3.773438 5.046875 C 3.769531 5.035156 3.773438 5.019531 3.785156 5.011719 C 3.816406 4.988281 3.847656 4.929688 3.847656 4.898438 C 3.847656 4.886719 3.855469 4.875 3.863281 4.875 C 3.875 4.875 3.878906 4.859375 3.878906 4.847656 C 3.878906 4.832031 3.890625 4.808594 3.902344 4.796875 C 3.921875 4.769531 3.984375 4.664062 4.035156 4.566406 C 4.046875 4.539062 4.066406 4.523438 4.074219 4.523438 C 4.082031 4.523438 4.089844 4.503906 4.097656 4.480469 C 4.101562 4.460938 4.117188 4.433594 4.132812 4.425781 C 4.144531 4.414062 4.164062 4.382812 4.175781 4.355469 C 4.1875 4.328125 4.21875 4.285156 4.246094 4.257812 C 4.273438 4.230469 4.304688 4.191406 4.316406 4.167969 C 4.335938 4.128906 4.398438 4.046875 4.492188 3.941406 C 4.515625 3.910156 4.535156 3.878906 4.535156 3.871094 C 4.535156 3.859375 4.554688 3.839844 4.582031 3.828125 C 4.605469 3.8125 4.671875 3.753906 4.726562 3.691406 C 4.785156 3.628906 4.839844 3.578125 4.851562 3.578125 C 4.863281 3.578125 4.871094 3.566406 4.871094 3.554688 C 4.871094 3.539062 4.882812 3.53125 4.894531 3.53125 C 4.910156 3.53125 4.925781 3.515625 4.9375 3.496094 C 4.945312 3.480469 4.960938 3.464844 4.972656 3.464844 C 4.984375 3.464844 5.03125 3.425781 5.078125 3.378906 C 5.128906 3.328125 5.175781 3.292969 5.1875 3.289062 C 5.195312 3.289062 5.207031 3.277344 5.214844 3.265625 C 5.21875 3.253906 5.234375 3.242188 5.246094 3.242188 C 5.261719 3.242188 5.300781 3.214844 5.332031 3.183594 C 5.363281 3.152344 5.421875 3.113281 5.457031 3.097656 C 5.496094 3.078125 5.550781 3.039062 5.585938 3.007812 C 5.621094 2.976562 5.667969 2.945312 5.691406 2.941406 C 5.71875 2.9375 5.742188 2.925781 5.746094 2.921875 C 5.75 2.910156 5.769531 2.90625 5.785156 2.90625 C 5.800781 2.90625 5.816406 2.894531 5.816406 2.882812 C 5.816406 2.867188 5.832031 2.859375 5.847656 2.859375 C 5.867188 2.859375 5.878906 2.847656 5.878906 2.839844 C 5.878906 2.832031 5.890625 2.824219 5.902344 2.832031 C 5.914062 2.835938 5.929688 2.828125 5.933594 2.8125 C 5.941406 2.800781 5.957031 2.792969 5.96875 2.800781 C 5.980469 2.804688 5.996094 2.796875 6.003906 2.789062 C 6.015625 2.769531 6.0625 2.742188 6.097656 2.738281 C 6.140625 2.734375 6.230469 2.691406 6.246094 2.671875 C 6.257812 2.660156 6.285156 2.648438 6.304688 2.648438 C 6.328125 2.648438 6.34375 2.640625 6.34375 2.625 C 6.34375 2.609375 6.371094 2.601562 6.425781 2.59375 C 6.46875 2.585938 6.507812 2.574219 6.511719 2.566406 C 6.519531 2.558594 6.542969 2.554688 6.566406 2.554688 C 6.617188 2.554688 6.71875 2.515625 6.734375 2.488281 C 6.742188 2.480469 6.761719 2.476562 6.777344 2.480469 C 6.796875 2.488281 6.820312 2.484375 6.835938 2.46875 C 6.847656 2.460938 6.882812 2.449219 6.910156 2.449219 C 6.996094 2.445312 7.085938 2.421875 7.113281 2.398438 C 7.128906 2.386719 7.15625 2.378906 7.1875 2.386719 C 7.21875 2.394531 7.242188 2.390625 7.257812 2.375 C 7.273438 2.363281 7.324219 2.355469 7.398438 2.351562 C 7.460938 2.351562 7.519531 2.34375 7.527344 2.335938 C 7.53125 2.328125 7.769531 2.320312 8.105469 2.320312 C 8.546875 2.320312 8.679688 2.328125 8.710938 2.34375 C 8.730469 2.355469 8.769531 2.363281 8.800781 2.359375 C 8.832031 2.355469 8.859375 2.359375 8.859375 2.367188 C 8.863281 2.371094 8.910156 2.382812 8.964844 2.386719 C 9.023438 2.390625 9.078125 2.398438 9.089844 2.410156 C 9.101562 2.421875 9.125 2.425781 9.148438 2.425781 C 9.167969 2.421875 9.203125 2.425781 9.222656 2.4375 C 9.300781 2.46875 9.378906 2.488281 9.417969 2.488281 C 9.441406 2.488281 9.464844 2.496094 9.46875 2.5 C 9.484375 2.511719 9.828125 2.632812 9.886719 2.644531 C 9.910156 2.648438 9.929688 2.65625 9.929688 2.664062 C 9.929688 2.675781 10.054688 2.734375 10.078125 2.730469 C 10.085938 2.726562 10.097656 2.734375 10.105469 2.746094 C 10.109375 2.753906 10.125 2.765625 10.140625 2.769531 C 10.152344 2.769531 10.175781 2.777344 10.1875 2.789062 C 10.199219 2.796875 10.226562 2.8125 10.246094 2.816406 C 10.269531 2.824219 10.292969 2.835938 10.296875 2.84375 C 10.300781 2.851562 10.320312 2.859375 10.332031 2.863281 C 10.34375 2.867188 10.367188 2.875 10.382812 2.886719 C 10.398438 2.898438 10.40625 2.90625 10.40625 2.898438 C 10.40625 2.894531 10.4375 2.910156 10.476562 2.9375 C 10.511719 2.964844 10.546875 2.984375 10.554688 2.984375 C 10.558594 2.984375 10.632812 3.03125 10.710938 3.085938 C 10.789062 3.140625 10.890625 3.207031 10.929688 3.238281 C 10.972656 3.265625 11.007812 3.292969 11.015625 3.300781 C 11.019531 3.308594 11.066406 3.347656 11.121094 3.390625 C 11.207031 3.453125 11.3125 3.546875 11.441406 3.671875 C 11.667969 3.890625 12.078125 4.417969 12.179688 4.617188 C 12.191406 4.640625 12.214844 4.683594 12.234375 4.714844 C 12.265625 4.769531 12.410156 5.054688 12.492188 5.226562 C 12.554688 5.355469 12.617188 5.535156 12.671875 5.742188 C 12.683594 5.792969 12.707031 5.875 12.722656 5.925781 C 12.75 6.027344 12.792969 6.214844 12.789062 6.230469 C 12.789062 6.238281 12.789062 6.246094 12.792969 6.25 C 12.796875 6.253906 12.808594 6.359375 12.824219 6.480469 C 12.859375 6.753906 12.859375 7.476562 12.824219 7.679688 C 12.789062 7.894531 12.730469 8.195312 12.707031 8.269531 C 12.691406 8.308594 12.679688 8.359375 12.671875 8.386719 C 12.65625 8.472656 12.609375 8.609375 12.597656 8.625 C 12.589844 8.632812 12.585938 8.648438 12.585938 8.664062 C 12.585938 8.691406 12.515625 8.839844 12.5 8.839844 C 12.496094 8.839844 12.429688 8.804688 12.355469 8.757812 C 12.109375 8.597656 11.640625 8.359375 11.296875 8.210938 C 11.058594 8.113281 10.644531 7.972656 10.390625 7.902344 L 10.214844 7.859375 L 10.214844 7.800781 C 10.214844 7.769531 10.226562 7.679688 10.242188 7.609375 C 10.292969 7.359375 10.277344 7.050781 10.207031 6.773438 C 10.1875 6.703125 10.1875 6.671875 10.199219 6.648438 C 10.210938 6.628906 10.210938 6.59375 10.207031 6.566406 C 10.199219 6.535156 10.191406 6.523438 10.1875 6.535156 C 10.171875 6.582031 10.136719 6.542969 10.058594 6.382812 C 10 6.257812 9.976562 6.191406 9.976562 6.144531 C 9.976562 6.105469 9.964844 6.070312 9.953125 6.058594 C 9.933594 6.042969 9.929688 6.007812 9.9375 5.882812 C 9.945312 5.761719 9.941406 5.71875 9.921875 5.671875 C 9.886719 5.59375 9.832031 5.554688 9.769531 5.570312 C 9.703125 5.585938 9.691406 5.609375 9.746094 5.609375 C 9.832031 5.609375 9.851562 5.644531 9.855469 5.773438 L 9.855469 5.890625 L 9.800781 5.894531 C 9.753906 5.898438 9.734375 5.886719 9.664062 5.820312 C 9.601562 5.753906 9.589844 5.734375 9.605469 5.71875 C 9.632812 5.683594 9.570312 5.628906 9.539062 5.65625 C 9.519531 5.671875 9.488281 5.65625 9.382812 5.578125 C 8.789062 5.148438 8.050781 5.066406 7.386719 5.355469 C 7.027344 5.511719 6.746094 5.734375 6.511719 6.050781 C 6.40625 6.1875 6.253906 6.488281 6.203125 6.644531 C 6.167969 6.761719 6.105469 7.042969 6.105469 7.09375 C 6.105469 7.128906 6.007812 7.140625 5.957031 7.113281 C 5.910156 7.085938 5.664062 6.867188 5.558594 6.753906 C 5.503906 6.699219 5.464844 6.644531 5.464844 6.621094 C 5.464844 6.589844 5.460938 6.589844 5.414062 6.605469 C 5.382812 6.613281 5.355469 6.628906 5.347656 6.632812 C 5.328125 6.648438 5.457031 6.800781 5.609375 6.949219 C 5.726562 7.0625 6 7.285156 6.035156 7.300781 C 6.046875 7.304688 6.054688 7.328125 6.054688 7.355469 C 6.054688 7.378906 6.066406 7.40625 6.078125 7.414062 C 6.097656 7.425781 6.167969 7.722656 6.179688 7.859375 L 6.1875 7.921875 L 5.902344 8.015625 C 5.203125 8.238281 4.433594 8.628906 3.90625 9.027344 C 3.8125 9.101562 3.785156 9.113281 3.785156 9.074219 Z M 5.007812 7.65625 L 5.046875 7.640625 L 5.046875 7.328125 C 5.050781 6.664062 5.089844 5.980469 5.136719 5.804688 C 5.148438 5.773438 5.140625 5.769531 5.097656 5.769531 L 5.046875 5.769531 L 5.046875 5.671875 C 5.046875 5.621094 5.042969 5.527344 5.035156 5.460938 C 5.023438 5.398438 5.007812 5.273438 5 5.1875 C 4.988281 5.097656 4.972656 5 4.964844 4.964844 L 4.949219 4.90625 L 4.886719 4.945312 C 4.851562 4.972656 4.828125 4.996094 4.832031 5.003906 C 4.835938 5.007812 4.847656 5.0625 4.855469 5.125 C 4.863281 5.183594 4.882812 5.3125 4.894531 5.410156 C 4.917969 5.570312 4.957031 6.453125 4.945312 6.496094 C 4.941406 6.503906 4.933594 6.773438 4.929688 7.09375 C 4.917969 7.726562 4.914062 7.691406 5.007812 7.65625 Z M 10.816406 7.449219 C 10.839844 7.4375 10.832031 7.433594 10.773438 7.433594 C 10.734375 7.433594 10.675781 7.425781 10.648438 7.414062 C 10.605469 7.402344 10.59375 7.402344 10.582031 7.417969 C 10.574219 7.433594 10.578125 7.445312 10.589844 7.453125 C 10.613281 7.46875 10.777344 7.46875 10.816406 7.449219 Z M 11.273438 6.960938 C 11.296875 6.902344 11.320312 6.722656 11.335938 6.433594 C 11.34375 6.273438 11.359375 6.035156 11.367188 5.898438 C 11.375 5.761719 11.386719 5.558594 11.394531 5.449219 L 11.402344 5.25 L 11.367188 5.277344 C 11.34375 5.289062 11.328125 5.316406 11.324219 5.335938 C 11.320312 5.355469 11.308594 5.371094 11.292969 5.371094 C 11.277344 5.371094 11.273438 5.375 11.289062 5.398438 C 11.320312 5.457031 11.296875 5.777344 11.25 5.957031 C 11.230469 6.035156 11.230469 6.039062 11.257812 6.046875 C 11.292969 6.054688 11.292969 6.070312 11.273438 6.410156 C 11.253906 6.714844 11.242188 7.050781 11.25 7.019531 C 11.257812 7.003906 11.265625 6.980469 11.273438 6.960938 Z M 10.773438 6.585938 C 10.789062 6.578125 10.773438 6.570312 10.734375 6.566406 C 10.660156 6.550781 10.597656 6.492188 10.570312 6.410156 C 10.546875 6.339844 10.546875 6 10.570312 5.902344 C 10.582031 5.859375 10.601562 5.785156 10.617188 5.734375 C 10.648438 5.621094 10.632812 5.628906 10.574219 5.75 C 10.496094 5.917969 10.453125 6.078125 10.453125 6.230469 C 10.453125 6.332031 10.460938 6.363281 10.5 6.441406 C 10.523438 6.492188 10.566406 6.542969 10.597656 6.566406 C 10.652344 6.601562 10.734375 6.613281 10.773438 6.585938 Z M 6.238281 5.753906 C 6.375 5.488281 6.433594 5.28125 6.429688 5.050781 C 6.425781 4.808594 6.367188 4.667969 6.222656 4.558594 C 6.148438 4.503906 6.03125 4.5 5.9375 4.550781 L 5.871094 4.585938 L 5.976562 4.585938 C 6.117188 4.585938 6.175781 4.625 6.238281 4.753906 C 6.285156 4.847656 6.289062 4.859375 6.292969 5.109375 C 6.296875 5.304688 6.292969 5.402344 6.273438 5.5 C 6.242188 5.640625 6.195312 5.792969 6.167969 5.851562 C 6.15625 5.875 6.15625 5.882812 6.164062 5.875 C 6.175781 5.867188 6.207031 5.8125 6.238281 5.753906 Z M 6.9375 5.300781 C 6.964844 5.273438 6.964844 5.265625 6.945312 5.234375 C 6.917969 5.191406 6.875 5.183594 6.839844 5.21875 C 6.796875 5.253906 6.800781 5.28125 6.84375 5.3125 C 6.890625 5.34375 6.894531 5.34375 6.9375 5.300781 Z M 8.542969 4.992188 C 8.566406 4.957031 8.566406 4.953125 8.53125 4.914062 L 8.496094 4.871094 L 8.453125 4.90625 C 8.402344 4.945312 8.398438 4.964844 8.433594 5.003906 C 8.46875 5.042969 8.511719 5.042969 8.542969 4.992188 Z M 8.542969 4.992188 "/>
<path style=" stroke:none;fill-rule:nonzero;fill:rgb(10.980392%,12.941176%,45.098039%);fill-opacity:1;" d="M 7.695312 11.8125 C 6.738281 11.707031 5.964844 11.414062 5.265625 10.894531 C 4.964844 10.671875 4.78125 10.5 4.472656 10.160156 C 4.289062 9.957031 4.011719 9.546875 3.855469 9.242188 C 3.785156 9.105469 3.769531 9.070312 3.785156 9.042969 C 3.796875 9.027344 3.894531 8.957031 4.003906 8.878906 C 4.570312 8.492188 5.199219 8.179688 5.84375 7.972656 C 6.074219 7.898438 6.125 7.875 6.117188 7.855469 C 6.113281 7.839844 6.121094 7.824219 6.140625 7.820312 C 6.417969 7.742188 6.824219 7.652344 7.0625 7.617188 C 7.546875 7.546875 7.800781 7.53125 8.472656 7.539062 C 9.042969 7.542969 9.101562 7.539062 9.140625 7.515625 C 9.164062 7.5 9.210938 7.488281 9.246094 7.488281 C 9.308594 7.488281 9.3125 7.492188 9.3125 7.535156 C 9.3125 7.566406 9.320312 7.582031 9.347656 7.589844 C 9.425781 7.609375 9.480469 7.601562 9.523438 7.558594 C 9.605469 7.464844 9.679688 7.433594 9.8125 7.433594 C 9.910156 7.433594 9.941406 7.4375 9.976562 7.464844 C 10.027344 7.5 10.0625 7.582031 10.0625 7.65625 C 10.0625 7.707031 10.070312 7.707031 10.15625 7.730469 C 10.226562 7.746094 10.25 7.761719 10.253906 7.785156 C 10.257812 7.808594 10.289062 7.824219 10.429688 7.863281 C 10.683594 7.929688 11.097656 8.070312 11.335938 8.171875 C 11.804688 8.367188 12.511719 8.753906 12.511719 8.808594 C 12.511719 8.863281 12.316406 9.269531 12.183594 9.496094 C 12.117188 9.609375 11.980469 9.808594 11.867188 9.960938 C 11.796875 10.054688 11.628906 10.25 11.503906 10.375 C 11.375 10.511719 11.039062 10.8125 10.964844 10.859375 C 10.941406 10.875 10.875 10.921875 10.824219 10.960938 C 10.554688 11.167969 9.992188 11.453125 9.601562 11.582031 C 9.355469 11.660156 9 11.746094 8.742188 11.785156 C 8.59375 11.808594 7.832031 11.832031 7.695312 11.8125 Z M 6.9375 9.164062 C 7.035156 9.128906 7.144531 9.027344 7.191406 8.9375 C 7.214844 8.890625 7.222656 8.839844 7.222656 8.75 C 7.222656 8.585938 7.1875 8.53125 6.949219 8.375 C 6.820312 8.289062 6.765625 8.238281 6.746094 8.203125 C 6.710938 8.132812 6.714844 8.113281 6.753906 8.050781 C 6.851562 7.886719 7.085938 7.898438 7.171875 8.070312 L 7.203125 8.132812 L 7.242188 8.089844 C 7.324219 7.992188 7.265625 7.859375 7.125 7.824219 C 6.933594 7.777344 6.691406 7.921875 6.621094 8.125 C 6.59375 8.207031 6.609375 8.324219 6.660156 8.390625 C 6.683594 8.417969 6.785156 8.5 6.886719 8.566406 C 6.984375 8.636719 7.078125 8.714844 7.09375 8.738281 C 7.160156 8.84375 7.105469 8.988281 6.976562 9.054688 C 6.847656 9.117188 6.710938 9.085938 6.601562 8.960938 C 6.570312 8.921875 6.542969 8.894531 6.539062 8.898438 C 6.535156 8.902344 6.507812 8.9375 6.480469 8.980469 L 6.425781 9.0625 L 6.472656 9.097656 C 6.613281 9.214844 6.75 9.234375 6.9375 9.164062 Z M 8.003906 9.007812 C 8.078125 8.96875 8.210938 8.835938 8.25 8.765625 C 8.277344 8.707031 8.292969 8.71875 8.320312 8.8125 C 8.34375 8.90625 8.414062 8.976562 8.476562 8.976562 C 8.542969 8.976562 8.613281 8.910156 8.71875 8.761719 C 8.789062 8.660156 8.796875 8.640625 8.773438 8.632812 C 8.753906 8.625 8.726562 8.644531 8.683594 8.695312 C 8.617188 8.773438 8.550781 8.816406 8.515625 8.804688 C 8.503906 8.800781 8.484375 8.773438 8.46875 8.746094 C 8.425781 8.671875 8.4375 8.496094 8.503906 8.027344 C 8.539062 7.800781 8.558594 7.609375 8.554688 7.605469 C 8.550781 7.601562 8.5 7.625 8.445312 7.660156 L 8.34375 7.71875 L 8.296875 8.570312 L 8.238281 8.660156 C 8.175781 8.761719 8.09375 8.855469 8.023438 8.898438 C 7.957031 8.941406 7.851562 8.9375 7.796875 8.890625 C 7.757812 8.855469 7.753906 8.839844 7.746094 8.726562 C 7.742188 8.644531 7.761719 8.433594 7.800781 8.144531 C 7.832031 7.894531 7.855469 7.691406 7.851562 7.6875 C 7.847656 7.683594 7.800781 7.707031 7.742188 7.742188 L 7.636719 7.804688 L 7.609375 8.226562 C 7.578125 8.75 7.574219 8.851562 7.609375 8.921875 C 7.640625 8.984375 7.664062 9.003906 7.738281 9.035156 C 7.8125 9.0625 7.914062 9.050781 8.003906 9.007812 Z M 9.121094 8.84375 C 9.128906 8.835938 9.136719 8.796875 9.140625 8.761719 C 9.160156 8.65625 9.246094 8.335938 9.28125 8.238281 C 9.339844 8.085938 9.472656 7.847656 9.546875 7.761719 L 9.613281 7.683594 L 9.5625 7.671875 C 9.519531 7.664062 9.507812 7.671875 9.476562 7.707031 C 9.429688 7.765625 9.300781 8.007812 9.238281 8.164062 L 9.183594 8.296875 L 9.195312 8.207031 C 9.199219 8.160156 9.214844 8.007812 9.230469 7.871094 L 9.257812 7.625 L 9.167969 7.621094 C 9.121094 7.617188 9.078125 7.621094 9.070312 7.628906 C 9.054688 7.640625 8.976562 8.691406 8.976562 8.851562 L 8.976562 8.929688 L 9.042969 8.894531 C 9.082031 8.875 9.117188 8.851562 9.121094 8.84375 Z M 10.078125 8.761719 C 10.101562 8.738281 10.160156 8.664062 10.207031 8.601562 C 10.273438 8.503906 10.289062 8.472656 10.273438 8.460938 C 10.257812 8.445312 10.238281 8.460938 10.179688 8.523438 C 10.097656 8.613281 10.046875 8.644531 10.011719 8.628906 C 9.976562 8.617188 9.9375 8.507812 9.9375 8.433594 C 9.9375 8.386719 9.976562 8.039062 10.007812 7.816406 C 10.011719 7.769531 10.007812 7.765625 9.921875 7.742188 L 9.828125 7.71875 L 9.808594 8.136719 C 9.785156 8.601562 9.789062 8.648438 9.875 8.742188 C 9.9375 8.8125 10.007812 8.820312 10.078125 8.761719 Z M 10.078125 8.761719 "/>
<path style=" stroke:none;fill-rule:nonzero;fill:rgb(99.607843%,19.215686%,27.843137%);fill-opacity:1;" d="M 6.125 7.859375 C 6.105469 7.835938 6.046875 7.519531 6.046875 7.460938 L 6.046875 7.40625 L 6.125 7.449219 C 6.167969 7.472656 6.222656 7.507812 6.25 7.523438 L 6.296875 7.550781 L 6.363281 7.457031 C 6.402344 7.40625 6.433594 7.359375 6.433594 7.355469 C 6.433594 7.347656 6.398438 7.328125 6.355469 7.304688 C 6.3125 7.285156 6.230469 7.234375 6.167969 7.195312 C 6.109375 7.152344 6.058594 7.121094 6.054688 7.121094 C 6.050781 7.121094 6.046875 7.179688 6.046875 7.257812 C 6.046875 7.332031 6.042969 7.390625 6.039062 7.390625 C 6.007812 7.390625 5.703125 7.148438 5.546875 6.996094 C 5.40625 6.859375 5.230469 6.648438 5.230469 6.617188 C 5.230469 6.609375 5.265625 6.589844 5.308594 6.578125 C 5.597656 6.5 5.902344 6.230469 6.066406 5.898438 C 6.195312 5.640625 6.246094 5.417969 6.238281 5.113281 C 6.230469 4.917969 6.230469 4.898438 6.183594 4.808594 C 6.128906 4.695312 6.054688 4.640625 5.964844 4.640625 C 5.660156 4.640625 5.308594 5.191406 5.167969 5.894531 C 5.121094 6.140625 5.089844 6.726562 5.089844 7.378906 L 5.089844 7.695312 L 5.042969 7.714844 C 5.019531 7.722656 4.96875 7.734375 4.929688 7.738281 L 4.859375 7.75 L 4.871094 7.277344 C 4.886719 6.636719 4.882812 5.96875 4.863281 5.71875 C 4.847656 5.523438 4.839844 5.449219 4.800781 5.1875 C 4.757812 4.929688 4.753906 4.960938 4.863281 4.882812 C 4.917969 4.847656 4.96875 4.816406 4.972656 4.816406 C 4.988281 4.816406 5.015625 4.960938 5.039062 5.144531 C 5.082031 5.488281 5.089844 5.550781 5.089844 5.636719 C 5.089844 5.785156 5.109375 5.761719 5.183594 5.519531 C 5.203125 5.453125 5.226562 5.394531 5.230469 5.382812 C 5.238281 5.375 5.253906 5.34375 5.265625 5.3125 C 5.394531 4.96875 5.652344 4.625 5.859375 4.515625 C 5.929688 4.480469 5.964844 4.472656 6.074219 4.472656 C 6.191406 4.472656 6.207031 4.476562 6.261719 4.519531 C 6.34375 4.582031 6.40625 4.671875 6.441406 4.78125 C 6.484375 4.910156 6.484375 5.230469 6.441406 5.382812 C 6.335938 5.78125 6.09375 6.160156 5.785156 6.410156 C 5.714844 6.46875 5.632812 6.527344 5.601562 6.542969 C 5.496094 6.597656 5.496094 6.605469 5.597656 6.710938 C 5.699219 6.820312 5.917969 7.015625 5.996094 7.070312 L 6.046875 7.105469 L 6.046875 7.066406 C 6.046875 7.003906 6.105469 6.734375 6.144531 6.601562 C 6.195312 6.445312 6.351562 6.144531 6.453125 6.007812 C 6.621094 5.785156 6.839844 5.585938 7.054688 5.457031 C 7.539062 5.167969 8.058594 5.078125 8.632812 5.183594 C 8.859375 5.222656 9.203125 5.378906 9.421875 5.535156 L 9.554688 5.632812 L 9.613281 5.585938 C 9.644531 5.558594 9.703125 5.53125 9.738281 5.519531 C 9.796875 5.503906 9.8125 5.503906 9.867188 5.53125 C 9.964844 5.578125 9.984375 5.636719 9.980469 5.859375 C 9.976562 6.066406 9.96875 6.097656 9.933594 6.054688 C 9.921875 6.035156 9.886719 6.003906 9.859375 5.976562 L 9.804688 5.929688 L 9.8125 6.257812 C 9.820312 6.613281 9.828125 6.664062 9.910156 6.75 C 9.945312 6.789062 9.972656 6.800781 10.019531 6.800781 C 10.070312 6.800781 10.085938 6.789062 10.132812 6.734375 C 10.167969 6.695312 10.191406 6.660156 10.191406 6.652344 C 10.191406 6.644531 10.199219 6.640625 10.207031 6.640625 C 10.222656 6.640625 10.257812 6.753906 10.289062 6.921875 C 10.320312 7.078125 10.316406 7.492188 10.28125 7.664062 C 10.265625 7.738281 10.253906 7.800781 10.25 7.804688 C 10.246094 7.808594 10.191406 7.796875 10.128906 7.785156 C 10.019531 7.757812 10.015625 7.753906 10.015625 7.707031 C 10.007812 7.453125 9.761719 7.402344 9.5625 7.613281 C 9.519531 7.65625 9.507812 7.664062 9.441406 7.65625 C 9.265625 7.636719 9.265625 7.632812 9.265625 7.585938 C 9.265625 7.527344 9.25 7.523438 9.167969 7.574219 C 9.105469 7.613281 9.101562 7.617188 8.957031 7.601562 C 8.589844 7.5625 7.71875 7.585938 7.238281 7.648438 C 7.011719 7.675781 6.554688 7.769531 6.351562 7.824219 C 6.1875 7.867188 6.132812 7.878906 6.125 7.859375 Z M 7.023438 7.351562 C 7.074219 7.328125 7.257812 7.050781 7.238281 7.023438 C 7.222656 6.992188 7.203125 7.007812 7.132812 7.097656 C 7.027344 7.238281 6.949219 7.230469 6.910156 7.066406 C 6.890625 6.980469 6.894531 6.84375 6.9375 6.3125 C 6.945312 6.152344 6.957031 6.019531 6.953125 6.019531 C 6.949219 6.015625 6.902344 6.039062 6.851562 6.074219 L 6.761719 6.136719 L 6.753906 6.574219 C 6.75 7.164062 6.773438 7.296875 6.902344 7.355469 C 6.964844 7.378906 6.96875 7.378906 7.023438 7.351562 Z M 7.726562 7.238281 C 7.957031 7.125 8.074219 6.867188 7.984375 6.679688 C 7.941406 6.59375 7.878906 6.539062 7.695312 6.441406 C 7.621094 6.398438 7.539062 6.34375 7.515625 6.320312 C 7.402344 6.195312 7.523438 6.015625 7.710938 6.015625 C 7.796875 6.015625 7.855469 6.050781 7.90625 6.132812 L 7.945312 6.195312 L 7.972656 6.160156 C 7.988281 6.136719 8 6.097656 8 6.058594 C 8 5.859375 7.710938 5.828125 7.511719 6.003906 C 7.375 6.125 7.328125 6.289062 7.390625 6.425781 C 7.425781 6.5 7.449219 6.519531 7.679688 6.65625 C 7.769531 6.707031 7.855469 6.769531 7.871094 6.789062 C 7.988281 6.929688 7.84375 7.152344 7.632812 7.152344 C 7.546875 7.152344 7.492188 7.125 7.414062 7.050781 C 7.335938 6.980469 7.335938 6.980469 7.277344 7.085938 L 7.238281 7.15625 L 7.289062 7.195312 C 7.316406 7.214844 7.363281 7.242188 7.398438 7.257812 C 7.480469 7.285156 7.652344 7.277344 7.726562 7.238281 Z M 8.632812 7.042969 C 8.699219 7 8.859375 6.742188 8.832031 6.714844 C 8.816406 6.699219 8.804688 6.710938 8.761719 6.761719 C 8.652344 6.898438 8.605469 6.921875 8.554688 6.867188 C 8.488281 6.789062 8.484375 6.671875 8.542969 5.894531 C 8.550781 5.800781 8.554688 5.71875 8.550781 5.714844 C 8.550781 5.710938 8.503906 5.738281 8.453125 5.769531 L 8.355469 5.832031 L 8.351562 6.28125 C 8.351562 6.867188 8.375 6.992188 8.503906 7.050781 C 8.566406 7.078125 8.574219 7.078125 8.632812 7.042969 Z M 9.1875 6.855469 C 9.195312 6.820312 9.210938 6.707031 9.230469 6.601562 C 9.285156 6.277344 9.433594 5.902344 9.5625 5.757812 L 9.617188 5.699219 L 9.582031 5.671875 C 9.546875 5.640625 9.546875 5.640625 9.5 5.695312 C 9.441406 5.769531 9.328125 6.003906 9.269531 6.175781 C 9.246094 6.25 9.222656 6.316406 9.21875 6.324219 C 9.210938 6.328125 9.214844 6.171875 9.222656 5.972656 C 9.230469 5.777344 9.230469 5.609375 9.226562 5.605469 C 9.222656 5.601562 9.179688 5.625 9.128906 5.65625 L 9.039062 5.71875 L 9.039062 6.992188 L 9.109375 6.953125 C 9.164062 6.921875 9.175781 6.902344 9.1875 6.855469 Z M 9.796875 5.769531 C 9.792969 5.734375 9.777344 5.695312 9.761719 5.683594 C 9.726562 5.660156 9.675781 5.660156 9.652344 5.683594 C 9.636719 5.699219 9.648438 5.71875 9.707031 5.777344 C 9.746094 5.820312 9.789062 5.851562 9.796875 5.847656 C 9.804688 5.839844 9.804688 5.804688 9.796875 5.769531 Z M 9.796875 5.769531 "/>
<path style=" stroke:none;fill-rule:nonzero;fill:rgb(99.607843%,19.215686%,27.843137%);fill-opacity:1;" d="M 9.695312 7.691406 C 9.628906 7.679688 9.628906 7.675781 9.65625 7.65625 C 9.707031 7.617188 9.773438 7.621094 9.804688 7.660156 C 9.847656 7.714844 9.824219 7.722656 9.695312 7.691406 Z M 10.578125 7.519531 C 10.476562 7.5 10.46875 7.488281 10.519531 7.394531 L 10.5625 7.316406 L 10.644531 7.355469 C 10.753906 7.402344 10.882812 7.40625 10.960938 7.359375 C 11.148438 7.246094 11.1875 7.113281 11.207031 6.558594 C 11.210938 6.390625 11.222656 6.222656 11.226562 6.195312 C 11.246094 6.078125 11.214844 6.089844 11.160156 6.210938 C 11.015625 6.546875 10.820312 6.707031 10.625 6.65625 C 10.539062 6.632812 10.488281 6.585938 10.4375 6.484375 C 10.398438 6.402344 10.394531 6.378906 10.394531 6.234375 C 10.398438 5.976562 10.472656 5.746094 10.613281 5.558594 C 10.761719 5.363281 10.886719 5.28125 11.042969 5.28125 C 11.101562 5.28125 11.160156 5.292969 11.183594 5.304688 C 11.238281 5.335938 11.265625 5.332031 11.265625 5.296875 C 11.265625 5.265625 11.433594 5.140625 11.453125 5.15625 C 11.457031 5.160156 11.453125 5.277344 11.441406 5.410156 C 11.433594 5.546875 11.417969 5.78125 11.40625 5.9375 C 11.359375 6.804688 11.347656 6.929688 11.3125 7.015625 C 11.230469 7.226562 11.097656 7.390625 10.953125 7.460938 C 10.90625 7.488281 10.824219 7.511719 10.773438 7.519531 C 10.667969 7.539062 10.675781 7.539062 10.578125 7.519531 Z M 10.84375 6.511719 C 10.972656 6.460938 11.117188 6.21875 11.191406 5.929688 C 11.222656 5.804688 11.253906 5.53125 11.242188 5.476562 C 11.230469 5.433594 11.101562 5.34375 11.042969 5.34375 C 10.980469 5.34375 10.855469 5.417969 10.800781 5.488281 C 10.738281 5.566406 10.667969 5.722656 10.640625 5.839844 C 10.628906 5.886719 10.613281 5.949219 10.605469 5.972656 C 10.585938 6.042969 10.589844 6.304688 10.609375 6.371094 C 10.636719 6.457031 10.710938 6.523438 10.777344 6.527344 C 10.789062 6.527344 10.816406 6.519531 10.84375 6.511719 Z M 10.019531 6.609375 C 9.957031 6.550781 9.941406 6.4375 9.964844 6.21875 C 9.972656 6.089844 9.972656 6.089844 10.097656 6.339844 C 10.140625 6.429688 10.183594 6.507812 10.1875 6.511719 C 10.191406 6.515625 10.210938 6.5 10.230469 6.476562 C 10.253906 6.445312 10.269531 6.4375 10.285156 6.445312 C 10.304688 6.457031 10.300781 6.476562 10.261719 6.539062 C 10.21875 6.613281 10.21875 6.617188 10.203125 6.574219 L 10.1875 6.535156 L 10.136719 6.585938 C 10.074219 6.648438 10.058594 6.652344 10.019531 6.609375 Z M 6.804688 5.375 C 6.757812 5.347656 6.753906 5.335938 6.753906 5.273438 C 6.753906 5.214844 6.761719 5.195312 6.792969 5.167969 C 6.929688 5.0625 7.085938 5.246094 6.964844 5.367188 C 6.914062 5.414062 6.875 5.417969 6.804688 5.375 Z M 8.378906 5.058594 C 8.363281 5.042969 8.351562 5.003906 8.351562 4.964844 C 8.351562 4.886719 8.40625 4.832031 8.488281 4.832031 C 8.585938 4.832031 8.640625 4.957031 8.582031 5.046875 C 8.558594 5.082031 8.542969 5.089844 8.480469 5.089844 C 8.425781 5.089844 8.398438 5.078125 8.378906 5.058594 Z M 8.378906 5.058594 "/>
</g>
</svg>
