<?xml version="1.0" encoding="UTF-8" standalone="no"?>
<svg
   xmlns:dc="http://purl.org/dc/elements/1.1/"
   xmlns:cc="http://creativecommons.org/ns#"
   xmlns:rdf="http://www.w3.org/1999/02/22-rdf-syntax-ns#"
   xmlns:svg="http://www.w3.org/2000/svg"
   xmlns="http://www.w3.org/2000/svg"
   xmlns:sodipodi="http://sodipodi.sourceforge.net/DTD/sodipodi-0.dtd"
   xmlns:inkscape="http://www.inkscape.org/namespaces/inkscape"
   version="1.0"
   width="1000px"
   height="1000px"
   viewBox="0 0 1000 1000"
   preserveAspectRatio="xMidYMid meet"
   id="svg106"
   sodipodi:docname="Rising_sunLOGO_full.svg"
   inkscape:version="1.0.1 (3bc2e813f5, 2020-09-07)">
  <metadata
     id="metadata112">
    <rdf:RDF>
      <cc:Work
         rdf:about="">
        <dc:format>image/svg+xml</dc:format>
        <dc:type
           rdf:resource="http://purl.org/dc/dcmitype/StillImage" />
      </cc:Work>
    </rdf:RDF>
  </metadata>
  <defs
     id="defs110" />
  <sodipodi:namedview
     pagecolor="#ffffff"
     bordercolor="#666666"
     borderopacity="1"
     objecttolerance="10"
     gridtolerance="10"
     guidetolerance="10"
     inkscape:pageopacity="0"
     inkscape:pageshadow="2"
     inkscape:window-width="1366"
     inkscape:window-height="705"
     id="namedview108"
     showgrid="false"
     inkscape:zoom="1.012"
     inkscape:cx="760.30178"
     inkscape:cy="570.513"
     inkscape:window-x="-8"
     inkscape:window-y="-8"
     inkscape:window-maximized="1"
     inkscape:current-layer="svg106"
     inkscape:document-rotation="0" />
  <g
     fill="#ffffff"
     id="g82"
     transform="matrix(0.87607111,0,0,0.8411215,705.65835,141.25847)">
    <path
       d="m 414.3,578 c -4.8,-1 -7.4,-2.3 -12,-5.8 -2.6,-1.9 -3.3,-3.2 -3.3,-5.8 0,-2.2 1.2,-5.3 3.3,-8.4 2.8,-4.3 3.6,-5 6.6,-5 2.7,0 4.1,0.8 7.2,4.4 2.1,2.4 5.7,5.1 7.9,6 3.7,1.5 4.4,1.5 7.7,0.1 4.6,-1.9 7,-4.1 9,-7.9 2.5,-4.8 0,-7.9 -13.3,-17 -15.3,-10.5 -16.8,-12.5 -17.3,-23.3 -0.3,-7.4 0,-9 2.4,-13.8 2.8,-5.9 8.8,-11.5 14.8,-14 9.7,-4 23.7,-2.7 28.2,2.7 2.1,2.5 2.5,4 2.5,9.2 0,7.9 -2.4,11.6 -7.5,11.6 -2.8,0 -3.6,-0.6 -5.2,-3.7 -2,-3.9 -7.4,-8.3 -10.2,-8.3 -2.4,0 -7.8,3.6 -9.7,6.5 -2.6,4 -0.5,6.6 12.1,15 7.3,4.9 12.2,8.9 14.1,11.6 2.8,4 2.9,4.8 2.9,14.8 0,12.3 -1.3,16.1 -8.3,22.8 -7.1,6.9 -21.1,10.6 -31.9,8.3 z"
       id="path64" />
    <path
       d="m 480.7,567.6 c -10.6,-3.9 -11.2,-8.1 -8,-56.4 l 1.7,-26.3 6.6,-4 c 4,-2.3 7.9,-3.9 9.8,-3.9 2.8,0 3.2,0.3 3.2,2.8 0.1,1.5 -1.6,16.5 -3.7,33.3 -4.1,33.6 -4,36.6 0.9,40.2 2.3,1.7 3.1,1.8 5.6,0.8 4.1,-1.7 11,-8.9 15.2,-15.7 l 3.5,-5.8 1.5,-26.5 1.5,-26.6 6,-3.7 c 4,-2.4 7.2,-3.7 9.8,-3.7 L 538,472 v 4.4 c 0,2.4 -1.6,15.3 -3.5,28.7 -1.9,13.4 -3.6,26.7 -3.6,29.6 -0.2,5.2 1.6,11.3 3.2,11.3 0.4,0 2.7,-2.2 5.1,-5 3.5,-4 4.9,-5 7.5,-5 4.9,0 6.3,0.9 6.3,4.2 0,3.4 -8.3,16.1 -13.7,20.8 -2.9,2.6 -4.2,3 -9.2,3 -6.6,0 -10,-1.9 -12.1,-6.9 l -1.2,-3 -4.7,4.8 c -2.6,2.7 -6.8,5.9 -9.2,7.2 -5.5,2.8 -16.7,3.6 -22.2,1.5 z"
       id="path66" />
    <path
       d="m 558,553.3 c 0,-9.8 4.8,-78.1 5.6,-79.4 0.3,-0.5 4.6,-0.9 9.6,-0.9 h 9.1 l -0.7,6.3 c -0.4,3.4 -0.9,8.2 -1.2,10.7 l -0.5,4.5 3.6,-6.5 c 7.3,-12.7 8.1,-13.2 17.4,-11.4 4.8,1 4.3,5.2 -1.3,11.6 -4.5,5.2 -12.9,20.2 -16.6,29.8 -2.2,6 -7.5,26 -8.6,32.6 -0.3,2.3 -0.9,4.6 -1.3,5.1 -1.1,1.9 -9,5.3 -12.1,5.3 h -3 z"
       id="path68" />
    <path
       d="m 614.2,549.5 c -5.7,-6.4 -6,-9.9 -4,-47.2 1.4,-26.7 0.2,-24.6 12.1,-21.6 5.5,1.4 6.7,2.1 6.7,3.8 0,1.1 -1.1,11.3 -2.5,22.7 -2.4,18.8 -2.5,20.9 -1.1,24.2 0.8,2 1.9,3.6 2.5,3.6 0.5,0 2.8,-2.3 5.1,-5.1 4,-4.7 4.5,-5 8.4,-4.7 4,0.3 4.1,0.4 4.4,4 0.3,3.2 -0.5,5 -4.9,11.3 -7.6,11 -9.7,12.5 -17.4,12.5 -5.9,0 -6.5,-0.2 -9.3,-3.5 z"
       id="path70" />
    <path
       d="m 382.8,470.4 -7.8,-4.6 v -7.7 c 0,-4.2 -0.3,-10 -0.6,-12.8 l -0.7,-5.3 h 3.7 c 2,0 3.6,0.4 3.6,0.8 0,1 13.8,10.1 19.8,13.1 3.7,1.9 4.2,2.5 4.2,5.7 0,2.5 -1.2,5.2 -4.2,9.4 -5.3,7.6 -7.3,7.7 -18,1.4 z"
       id="path72" />
    <path
       d="M 428.4,462.6 C 420.3,459 418.8,451 419.2,411 l 0.3,-30.5 5.5,-3.7 c 4,-2.7 6.6,-3.7 9.4,-3.8 h 3.9 l -0.7,9.3 c -0.4,5 -1.4,18.6 -2.3,30.1 -1.2,16.7 -1.3,22 -0.4,26.2 1.8,8 3.1,8.4 7.9,2 l 4.1,-5.4 7.7,-0.7 7.6,-0.7 4.2,3.9 c 8,7.7 14.2,7.8 21,0.2 6.4,-7 4.8,-9.9 -10.5,-18.9 -5.6,-3.4 -11.6,-7 -13.2,-8.2 -4.4,-3.1 -6.7,-9 -6.7,-17.3 0,-8.9 2.9,-15.5 9.4,-21.2 6.4,-5.6 12.6,-7.6 22.6,-7.1 7.1,0.3 8.2,0.6 10.9,3.2 2.9,2.8 3.1,3.5 3.1,10.1 0,8.6 -1.6,11.5 -6.3,11.5 -2.7,0 -3.6,-0.7 -5.6,-3.9 -3,-4.8 -7.3,-7.5 -10.8,-6.6 -3.8,0.9 -7.2,3.5 -8.9,6.6 -1.3,2.7 -1.3,3 1.3,5.8 1.6,1.7 6.6,5.1 11.3,7.7 11.4,6.2 15.4,9.6 18,15 1.9,3.9 2.2,5.7 1.8,13.2 -0.5,10.5 -3.5,17.2 -10,22.5 -8,6.5 -10.2,7.2 -21.8,7.2 -9.6,0 -11.1,-0.3 -16,-2.8 -4.1,-2.2 -5.5,-2.5 -6.2,-1.5 -0.5,0.7 -1.8,2.8 -2.9,4.6 -3.7,5.8 -11.4,7.8 -18.5,4.8 z"
       id="path74" />
    <path
       d="m 528.4,443.6 c -4.1,-1.8 -7,-6.7 -8.3,-14 -0.7,-3.5 -1.1,-18.8 -1.1,-37 l 0.1,-31.1 6,-3.7 c 3.9,-2.5 7.2,-3.8 9.4,-3.8 4.1,0 4,-0.9 2.5,17.5 -2.9,36.7 -3.2,44.9 -1.8,49.5 0.8,2.5 2.1,4.6 2.9,4.8 0.8,0.1 3.2,-2 5.3,-4.8 3.7,-4.8 4.1,-5.1 8,-4.8 4,0.3 4.1,0.4 4.4,4.3 0.2,3.4 -0.6,5.3 -5.6,13 -3.5,5.5 -6.9,9.5 -8.5,10.3 -3.6,1.6 -9.4,1.5 -13.3,-0.2 z"
       id="path76" />
    <path
       d="m 562,397.1 v -42.8 l 5.5,-3.7 c 3.7,-2.5 6.6,-3.6 9.1,-3.6 h 3.6 l -0.4,13.4 -0.3,13.3 3.6,-7.6 c 2,-4.2 5,-9.5 6.8,-11.8 2.7,-3.8 3.6,-4.3 7,-4.3 7.5,0 9.5,6.6 3.8,12.9 -8.2,9.1 -17.4,32.4 -20.8,52.6 -3.5,21.1 -2.9,19.4 -7.7,22.1 -2.3,1.3 -5.6,2.4 -7.2,2.4 h -3 z"
       id="path78" />
    <path
       d="m 616.3,424.8 c -5.1,-5.5 -5.6,-8.3 -6.1,-33.5 L 609.8,368 h 3.4 c 2.4,0 4.3,1 7,3.5 2,1.9 4.4,3.5 5.2,3.5 1.9,0 1.9,-0.5 0.5,13.7 -1,11.1 -0.4,16.5 2.1,20.3 0.9,1.3 1.4,1.1 3.5,-1.2 3.1,-3.6 8,-3.9 8.9,-0.5 1.8,6.9 0.4,11.8 -5.2,18 -2.3,2.4 -3.3,2.7 -9.2,2.7 -6.2,0 -6.8,-0.2 -9.7,-3.2 z"
       id="path80" />
  </g>
  <g
     fill="#48fffb"
     id="g86"
     transform="translate(0.5,-0.4)">
    <path
       d="m 236,567.6 c 0,-0.7 -0.6,-1.9 -1.4,-2.5 -0.8,-0.7 -2.1,-3.4 -3,-6.2 -0.9,-2.8 -3.1,-8 -4.8,-11.7 -1.7,-3.7 -3.2,-7.4 -3.4,-8.2 -0.1,-0.8 -1.1,-4.6 -2.1,-8.5 -1.1,-3.8 -2.8,-9.9 -3.7,-13.5 -0.9,-3.6 -2.1,-7.8 -2.6,-9.5 -0.4,-1.6 -1.3,-6.1 -2,-10 -0.7,-3.8 -1.8,-8.5 -2.6,-10.2 -0.7,-1.8 -1,-3.3 -0.6,-3.3 0.5,0 0.3,-5.1 -0.4,-11.2 -2.6,-22.8 -1.5,-54.2 2.6,-80.3 0.6,-3.8 1.4,-8.9 1.7,-11.3 0.3,-2.3 1,-4.5 1.4,-4.8 0.5,-0.3 0.9,-1.4 0.9,-2.5 0,-3.9 7.3,-28.5 11,-37.4 3.1,-7.2 4.8,-11.5 6,-15.2 0.7,-2.4 1.7,-4.3 2.2,-4.3 0.5,0 0.6,-0.5 0.2,-1.2 -0.4,-0.6 -0.1,-1.6 0.7,-2.2 1.9,-1.5 3.9,-5.2 3.9,-7.1 0,-0.8 0.5,-1.5 1,-1.5 0.6,0 1,-0.8 1,-1.7 0,-0.9 0.6,-2.4 1.4,-3.2 1.3,-1.5 5.2,-8.3 8.3,-14.3 0.8,-1.6 1.9,-2.8 2.4,-2.8 0.5,0 1.1,-1.1 1.5,-2.5 0.3,-1.3 1.3,-3 2.1,-3.6 0.8,-0.7 2,-2.6 2.7,-4.3 0.7,-1.7 2.7,-4.4 4.4,-6.1 1.7,-1.6 3.7,-4.2 4.4,-5.6 1.3,-2.5 5.2,-7.5 11,-14.2 1.5,-1.8 2.8,-3.8 2.8,-4.4 0,-0.7 1.2,-1.9 2.8,-2.7 1.5,-0.8 5.6,-4.7 9.1,-8.5 3.6,-3.9 7.1,-7.1 7.8,-7.1 0.7,0 1.3,-0.7 1.3,-1.5 0,-0.8 0.7,-1.5 1.5,-1.5 0.8,0 1.9,-0.9 2.5,-2 0.6,-1.1 1.6,-2 2.3,-2 0.7,0 3.7,-2.5 6.7,-5.5 3,-3 6,-5.4 6.6,-5.5 0.7,0 1.4,-0.7 1.8,-1.5 0.3,-0.8 1.2,-1.5 2.1,-1.5 0.8,0 3.2,-1.6 5.2,-3.6 2.1,-2 5.7,-4.5 7.9,-5.5 2.3,-1.1 5.9,-3.6 8,-5.5 2.2,-1.9 5.1,-3.8 6.7,-4.1 1.5,-0.3 3,-1 3.3,-1.4 0.3,-0.5 1.4,-0.9 2.5,-0.9 1,0 1.9,-0.7 1.9,-1.5 0,-0.8 0.9,-1.5 2,-1.5 1.1,0 2,-0.5 2,-1.1 0,-0.6 0.6,-0.9 1.4,-0.6 0.8,0.3 1.7,-0.1 2,-1 0.4,-0.8 1.3,-1.3 2.1,-0.9 0.8,0.3 1.8,-0.1 2.2,-0.8 0.8,-1.2 3.8,-2.9 5.8,-3.1 2.7,-0.3 8.5,-2.8 9.5,-4.1 0.7,-0.7 2.3,-1.4 3.6,-1.4 1.4,0 2.4,-0.6 2.4,-1.5 0,-1 1.6,-1.6 5,-2.1 2.8,-0.4 5.3,-1.1 5.6,-1.5 0.3,-0.5 1.8,-0.9 3.3,-0.9 3.2,0 9.6,-2.4 10.6,-4 0.4,-0.6 1.6,-0.8 2.6,-0.5 1.1,0.4 2.7,0.1 3.6,-0.7 0.9,-0.7 3,-1.3 4.7,-1.4 5.3,-0.2 11,-1.6 12.7,-3 1,-0.9 2.7,-1.2 4.6,-0.8 1.9,0.4 3.5,0.1 4.4,-0.8 0.9,-0.8 4.1,-1.3 8.8,-1.4 4,-0.1 7.6,-0.6 8,-1.1 0.3,-0.5 15.2,-0.9 36.1,-0.9 27.8,0.1 36,0.4 37.9,1.4 1.3,0.8 3.8,1.2 5.7,1 1.9,-0.2 3.5,0 3.7,0.5 0.1,0.4 3.1,1 6.6,1.2 3.5,0.2 6.9,0.9 7.7,1.5 0.7,0.7 2.3,1 3.6,0.9 1.3,-0.1 3.4,0.2 4.8,0.8 4.7,2 9.6,3.3 12.2,3.3 1.3,0 2.8,0.3 3.1,0.7 0.9,0.8 22.4,8.3 26,9 1.5,0.3 2.7,0.8 2.7,1.2 0,0.8 8,4.3 9.4,4.1 0.5,-0.1 1.2,0.3 1.6,1 0.4,0.6 1.4,1.2 2.2,1.4 0.9,0.1 2.2,0.7 2.9,1.3 0.8,0.6 2.5,1.4 3.9,1.8 1.4,0.4 2.8,1.2 3.1,1.7 0.3,0.5 1.3,1 2.1,1.2 0.9,0.1 2.3,0.8 3.2,1.5 0.9,0.7 1.6,1.1 1.6,0.7 0,-0.3 1.9,0.7 4.2,2.4 2.2,1.6 4.5,3 4.9,3 0.4,0 4.9,2.8 9.8,6.2 5,3.5 11.2,7.7 13.7,9.5 2.6,1.8 5,3.6 5.3,4 0.3,0.5 3.3,3 6.6,5.5 5.5,4.1 12.1,10 20,17.6 14.3,13.8 40,46.8 46.2,59.2 0.7,1.4 2.2,4.1 3.4,6 2.1,3.4 11,21.2 16.2,32 3.8,8.2 7.7,19.3 11.2,32.3 0.8,3.1 2.2,8.3 3.1,11.5 1.8,6.4 4.4,18 4.2,19 0,0.4 0.1,0.9 0.2,1.2 0.2,0.3 1,6.8 2,14.5 2.1,17.1 2.1,62.3 0.1,75 -2.2,13.3 -6,32.2 -7.5,36.7 -0.8,2.4 -1.7,5.7 -2,7.3 -1.2,5.4 -3.9,14 -4.8,14.9 -0.4,0.6 -0.8,1.6 -0.8,2.4 0,1.9 -4.3,11.2 -5.2,11.2 -0.4,0 -4.5,-2.4 -9,-5.3 -15.5,-9.9 -44.7,-24.9 -66.3,-34 -14.8,-6.2 -40.8,-15.1 -56.7,-19.3 L 638,491.5 v -3.6 c 0,-2 0.7,-7.4 1.7,-12 3,-15.5 2.2,-34.8 -2.3,-52.1 -1.1,-4.4 -1.2,-6.3 -0.4,-7.8 0.7,-1.3 0.8,-3.4 0.4,-5.3 -0.4,-1.8 -0.9,-2.6 -1.1,-1.9 -1.1,3 -3.2,0.5 -8.1,-9.5 -3.8,-7.8 -5.2,-12 -5.2,-14.9 0,-2.5 -0.6,-4.7 -1.5,-5.4 -1.2,-1 -1.4,-3 -0.9,-10.9 0.5,-7.6 0.3,-10.4 -1,-13.3 -2.1,-4.9 -5.6,-7.2 -9.5,-6.3 -4.1,0.9 -4.9,2.5 -1.4,2.5 5.2,0.1 6.5,2.1 6.7,10.2 l 0.1,7.3 -3.5,0.3 c -3,0.2 -4.1,-0.4 -8.4,-4.7 -3.9,-4 -4.7,-5.3 -3.8,-6.4 1.7,-2 -2.1,-5.5 -4.2,-3.8 -1.1,0.9 -3.1,0 -9.7,-4.9 -37.2,-26.9 -83.2,-32 -124.7,-13.8 -22.5,9.8 -40,23.7 -54.8,43.3 -6.4,8.5 -16.1,27.3 -19.3,37.2 -2.2,7.2 -6.1,25 -6.1,28.1 0,2.1 -6.1,2.8 -9.2,1.1 -3,-1.6 -18.3,-15.3 -25,-22.4 -3.4,-3.5 -5.8,-6.9 -5.8,-8.2 0,-2 -0.2,-2.1 -3.2,-1.1 -1.8,0.6 -3.7,1.4 -4.1,1.8 -1.1,0.9 6.9,10.4 16.4,19.7 7.3,7.1 24.3,21.1 26.7,22 0.6,0.3 1.2,1.8 1.2,3.4 0,1.5 0.6,3.2 1.3,3.6 1.3,0.8 5.6,19.4 6.4,27.8 l 0.4,4 -17.8,5.8 c -43.5,14 -91.6,38.5 -124.6,63.4 -6,4.5 -7.7,5.2 -7.7,2.9 z m 76.4,-88.6 2.6,-1 v -19.7 c 0.1,-41.5 2.6,-84.1 5.6,-95 0.6,-2 0.3,-2.3 -2.5,-2.3 H 315 v -6 c 0,-3.2 -0.4,-9.2 -0.9,-13.2 -0.6,-4 -1.5,-11.8 -2.1,-17.3 -0.7,-5.5 -1.6,-11.7 -2.1,-13.7 l -1,-3.8 -3.9,2.6 c -2.2,1.5 -3.7,3 -3.5,3.5 0.3,0.4 1,3.8 1.5,7.6 0.5,3.7 1.6,11.8 2.5,17.8 1.4,10.1 3.8,65.1 3,67.8 -0.2,0.7 -0.6,17.5 -1,37.5 -0.6,39.5 -0.9,37.4 4.9,35.2 z m 363.1,-13 c 1.5,-0.7 0.9,-0.9 -2.6,-0.9 -2.5,-0.1 -6.1,-0.6 -7.9,-1.2 -2.6,-0.9 -3.4,-0.9 -4.1,0.2 -0.5,0.8 -0.3,1.6 0.4,2.1 1.6,1 11.7,0.9 14.2,-0.2 z M 704,435.5 c 1.6,-3.7 2.9,-14.9 4,-33 0.6,-9.9 1.5,-25 2,-33.5 0.5,-8.5 1.2,-21.1 1.6,-28 l 0.6,-12.4 -2.3,1.6 c -1.3,0.8 -2.5,2.5 -2.7,3.7 -0.2,1.1 -1,2.1 -1.8,2.1 -1.1,0 -1.2,0.4 -0.4,1.9 1.9,3.6 0.6,23.7 -2.3,34.8 -1.3,4.8 -1.2,5.2 0.5,5.6 2.1,0.6 2.2,1.4 0.8,22.8 -1.1,18.9 -1.9,39.9 -1.3,37.9 0.3,-0.8 0.8,-2.4 1.3,-3.5 z m -31.2,-23.4 c 0.9,-0.5 0.1,-1 -2.5,-1.4 -4.5,-0.8 -8.5,-4.5 -10.2,-9.6 -1.4,-4.4 -1.4,-25.7 0,-31.8 0.7,-2.7 1.9,-7.4 2.9,-10.5 2.1,-7 1.1,-6.7 -2.5,0.9 -5,10.5 -7.6,20.7 -7.6,30.2 0,6.2 0.4,8.3 2.8,13 1.6,3.2 4.3,6.5 6.2,7.8 3.4,2.3 8.5,3 10.9,1.4 z M 389.3,360 c 8.7,-16.7 12.2,-29.5 12,-44 -0.2,-15.1 -3.9,-23.8 -13,-30.7 -4.6,-3.5 -11.8,-3.7 -17.8,-0.5 l -4,2.1 6.6,0.1 c 8.7,0 12.3,2.4 16.4,10.5 2.9,5.8 3,6.5 3.3,22.2 0.3,12.3 -0.1,18.3 -1.3,24.5 -1.8,8.8 -4.7,18.3 -6.6,22 -0.6,1.3 -0.7,1.9 -0.1,1.3 0.6,-0.5 2.6,-3.9 4.5,-7.5 z M 433,331.8 c 1.7,-1.9 1.8,-2.4 0.6,-4.2 -1.8,-2.8 -4.3,-3.2 -6.7,-1 -2.5,2.2 -2.4,3.9 0.3,5.8 2.9,2.1 3.3,2 5.8,-0.6 z m 100.4,-19.3 c 1.5,-2.3 1.5,-2.6 -0.7,-5 l -2.2,-2.7 -2.8,2.2 c -3.1,2.5 -3.3,3.6 -1,6.2 2.2,2.5 4.8,2.3 6.7,-0.7 z"
       id="path84" />
  </g>
  <g
     fill="#1c2173"
     id="g90">
    <path
       d="M481 738.4 c-59.9 -6.7 -108.2 -25 -152 -57.6 -18.8 -13.9 -30.2 -24.5 -49.5 -45.8 -11.4 -12.6 -28.7 -38.3 -38.5 -57.3 -4.5 -8.6 -5.3 -10.9 -4.4 -12.4 0.6 -1 6.7 -5.6 13.6 -10.3 35.4 -24.2 74.8 -43.7 115 -56.7 14.5 -4.7 17.7 -6.1 17.2 -7.4 -0.3 -1 0.2 -1.8 1.3 -2.1 17.5 -4.9 42.9 -10.5 57.8 -12.7 30.2 -4.4 46.1 -5.3 88.1 -5 35.7 0.3 39.2 0.2 41.7 -1.4 1.4 -0.9 4.4 -1.7 6.7 -1.7 3.7 0 4 0.2 4 2.9 0 2.1 0.6 3 2.3 3.5 4.8 1.3 8.3 0.6 10.8 -2 5.3 -5.8 9.8 -7.7 18.1 -7.8 6.2 -0.1 8.2 0.3 10.4 2 3 2.2 5.2 7.2 5.3 12 0.1 3 0.4 3.2 5.9 4.5 4.4 1.1 5.8 1.9 6 3.4 0.2 1.6 2.2 2.5 11 4.9 15.9 4.3 41.9 13.1 56.7 19.3 29.2 12.3 73.5 36.3 73.5 39.8 0 3.4 -12.2 28.9 -20.5 43 -4.1 7 -12.7 19.6 -19.8 29 -4.4 5.9 -15 18.1 -22.6 25.9 -8.2 8.6 -29.2 27.3 -33.8 30.3 -1.5 1 -5.5 3.8 -8.8 6.4 -16.9 12.9 -51.9 30.6 -76.5 38.7 -15.3 5 -37.4 10.3 -53.5 12.8 -9.5 1.4 -56.9 2.8 -65.5 1.8z m-47.3 -165.6 c6 -2.2 12.9 -8.5 15.8 -14.3 1.5 -2.9 2 -6 2 -11.6 0 -10.4 -2.3 -13.7 -17.1 -23.5 -8.1 -5.4 -11.6 -8.4 -12.8 -10.8 -2.1 -4.4 -2 -5.4 0.4 -9.4 6.2 -10.2 20.8 -9.5 26.3 1.2 l2 3.9 2.4 -2.7 c5.1 -6 1.4 -14.3 -7.3 -16.5 -12.1 -3.1 -27.3 6 -31.5 18.6 -1.7 5.3 -0.7 12.6 2.4 16.6 1.4 1.9 7.7 6.9 14 11.2 6.3 4.3 12.2 9.1 13.1 10.6 4 6.7 0.6 15.6 -7.4 19.7 -8.1 4.1 -16.6 2 -23.3 -5.8 -2 -2.4 -3.8 -4.2 -4 -3.9 -0.2 0.2 -1.9 2.6 -3.7 5.3 l-3.3 4.9 2.9 2.4 c8.8 7.2 17.3 8.4 29.1 4.1z m66.5 -9.9 c4.7 -2.4 13.1 -10.6 15.4 -15.1 1.8 -3.5 2.6 -3 4.3 3.1 1.7 5.7 6 10.1 10 10.1 4 0 8.5 -4 15 -13.4 4.3 -6.3 4.8 -7.5 3.4 -8 -1.2 -0.5 -2.8 0.6 -5.6 3.9 -4.1 4.8 -8.3 7.5 -10.5 6.8 -0.7 -0.3 -2 -1.9 -2.9 -3.6 -2.6 -4.8 -2 -15.6 2.2 -45 2.1 -14.2 3.5 -26 3.2 -26.3 -0.3 -0.3 -3.4 1.2 -6.8 3.3 l-6.4 3.8 -1.5 26.6 -1.5 26.5 -3.5 5.7 c-3.9 6.4 -9.1 12.1 -13.5 14.9 -4.3 2.6 -10.7 2.4 -14.2 -0.6 -2.5 -2.2 -2.8 -3.1 -3.1 -10.3 -0.2 -4.9 1 -18.2 3.3 -36.2 1.9 -15.6 3.4 -28.5 3.2 -28.7 -0.1 -0.2 -3.2 1.4 -6.8 3.6 l-6.5 3.9 -1.7 26.3 c-2.1 32.6 -2.2 39 -0.1 43.4 1.9 4 3.3 5.2 8.1 7 4.7 1.8 11 1.1 16.5 -1.7z m69.9 -10.2 c0.4 -0.5 1 -2.8 1.3 -5.1 1.1 -6.6 6.4 -26.6 8.6 -32.6 3.7 -9.6 12.1 -24.6 16.6 -29.8 l4.3 -5 -3.2 -0.6 c-2.7 -0.6 -3.5 -0.2 -5.3 2 -3 3.7 -11 19 -15 28.7 l-3.4 8.2 0.6 -5.5 c0.3 -3 1.3 -12.5 2.3 -21 l1.6 -15.5 -5.4 -0.3 c-3 -0.2 -5.8 0.1 -6.2 0.5 -0.9 0.9 -5.9 66.6 -5.9 76.6 l0 4.7 4.3 -2.1 c2.3 -1.2 4.5 -2.6 4.8 -3.2z m59.7 -5.2 c1.6 -1.3 5.3 -5.9 8.2 -10 4 -5.9 5 -7.9 4 -8.8 -0.9 -0.9 -2.2 0 -5.8 4 -5.1 5.6 -8.2 7.6 -10.5 6.7 -2.1 -0.8 -4.7 -7.6 -4.7 -12.2 0 -3 2.5 -24.8 4.4 -38.7 0.4 -3 0.2 -3.1 -5.3 -4.6 l-5.8 -1.5 -1.2 26.1 c-1.5 29 -1.2 32.1 4 38 3.9 4.4 8.3 4.7 12.7 1z"
       id="path88" />
  </g>
  <g
     fill="#fe3147"
     id="g104">
    <path
       d="m 382.7,491.3 c -1,-1.6 -4.7,-21.4 -4.7,-25 v -3.5 l 4.8,2.8 c 2.6,1.5 6.1,3.6 7.8,4.6 l 3,1.8 4.2,-6 c 2.3,-3.2 4.2,-6.1 4.2,-6.4 0,-0.3 -2.2,-1.7 -4.8,-3 -2.6,-1.3 -7.8,-4.5 -11.6,-7 -3.8,-2.5 -7,-4.6 -7.2,-4.6 -0.2,0 -0.4,3.8 -0.4,8.5 0,4.7 -0.3,8.5 -0.6,8.5 -2,0 -21,-15.3 -30.8,-24.8 -8.6,-8.4 -19.6,-21.6 -19.6,-23.6 0,-0.6 2.1,-1.8 4.7,-2.5 18.2,-4.8 37.1,-21.7 47.5,-42.4 8,-16.1 11.1,-30.1 10.6,-49 -0.3,-12.3 -0.5,-13.6 -3.3,-19.2 -3.5,-7.1 -8,-10.5 -13.6,-10.5 -19.2,0 -41,34.4 -49.8,78.5 -3,15.3 -5,51.9 -5.1,92.8 V 481 l -2.7,1.1 c -1.5,0.5 -4.7,1.3 -7.1,1.6 l -4.5,0.6 0.7,-29.4 c 1,-40.2 0.8,-81.8 -0.4,-97.4 -1,-12.3 -1.5,-16.9 -4,-33.2 -2.6,-16.3 -3,-14.3 4,-19.1 3.4,-2.3 6.5,-4.2 6.9,-4.2 0.8,0 2.6,9 4.1,20.5 2.6,21.4 3,25.4 3,30.8 0,9.2 1.3,7.7 6,-7.3 1.3,-4.1 2.7,-7.9 3,-8.5 0.4,-0.5 1.3,-2.6 2,-4.5 8.1,-21.4 24.2,-42.9 37.1,-49.7 4.6,-2.3 6.6,-2.8 13.5,-2.8 7.3,0 8.4,0.3 11.8,2.9 5.2,3.9 9.1,9.6 11.3,16.4 2.5,8 2.5,28 -0.1,37.7 -6.5,24.8 -21.7,48.6 -41,64.2 -4.4,3.6 -9.6,7.3 -11.6,8.3 -6.5,3.3 -6.5,3.9 -0.2,10.5 6.4,6.8 20,19 25,22.4 l 3.2,2.2 v -2.4 c 0,-3.9 3.6,-20.9 6.1,-29 3.2,-9.9 12.9,-28.7 19.3,-37.2 10.5,-14 24,-26.3 37.5,-34.5 30.2,-18.1 62.7,-23.7 98.6,-17.1 14.2,2.6 35.7,12.2 49.3,22.1 l 8.3,6 3.7,-2.9 c 2,-1.6 5.6,-3.5 7.9,-4.1 3.6,-1.1 4.6,-1 8,0.6 6.1,3 7.3,6.7 7.1,20.7 -0.2,12.8 -0.8,14.9 -3,12.1 -0.7,-1.1 -2.9,-3.2 -4.7,-4.9 l -3.3,-3 0.4,20.5 c 0.5,22.3 1.1,25.5 6.1,30.8 2.4,2.5 3.9,3.2 6.8,3.2 3.2,0 4.3,-0.7 7.3,-4.2 2,-2.3 3.6,-4.5 3.6,-5 0,-0.4 0.4,-0.8 0.9,-0.8 1.1,0 3.2,7.1 5.2,17.5 1.9,10 1.7,35.8 -0.4,46.4 -1,4.7 -1.9,8.6 -2.1,8.9 -0.3,0.2 -3.6,-0.4 -7.5,-1.3 -6.9,-1.7 -7.1,-1.9 -7.2,-4.9 -0.4,-15.7 -15.9,-18.9 -28.3,-5.8 -2.6,2.8 -3.3,3.1 -7.5,2.6 -11,-1.2 -11.1,-1.3 -11.1,-4.4 0,-3.6 -0.9,-3.7 -6,-0.5 -3.8,2.4 -4.2,2.5 -13.2,1.5 -23,-2.4 -77.3,-0.9 -107.3,3 -14.3,1.8 -42.8,7.5 -55.5,11 -10.3,2.8 -13.6,3.4 -14.3,2.3 z m 56.2,-31.8 c 3.2,-1.6 14.6,-18.8 13.6,-20.5 -1.2,-1.9 -2.4,-1 -6.6,4.5 -6.7,8.9 -11.6,8.3 -14,-1.8 -1.3,-5.4 -1,-13.9 1.6,-47.2 0.7,-9.9 1.2,-18.2 1,-18.4 -0.2,-0.2 -3,1.4 -6.2,3.5 l -5.8,3.9 -0.3,27.5 c -0.4,36.7 1.2,45.1 9.2,48.6 3.9,1.7 4.1,1.7 7.5,-0.1 z m 44.1,-7 c 14.4,-7.3 21.7,-23.2 16.1,-34.9 -2.7,-5.4 -6.7,-8.8 -18.1,-15 -4.7,-2.6 -9.7,-6 -11.2,-7.6 -7.1,-7.7 0.3,-19 12.2,-19 5.3,0 9,2.2 12.1,7.2 l 2.4,3.9 1.8,-2.2 c 1,-1.3 1.7,-3.8 1.7,-6.3 0,-12.3 -18.1,-14.3 -30.6,-3.3 -8.5,7.5 -11.4,17.7 -7.5,26.3 2.1,4.6 3.7,5.9 18,14.4 5.7,3.3 11.1,7 12.1,8.3 7.3,8.8 -1.8,22.7 -14.9,22.7 -5.4,0 -8.8,-1.6 -13.8,-6.4 -4.7,-4.4 -4.8,-4.4 -8.4,2.3 l -2.4,4.3 3,2.4 c 1.7,1.3 4.8,3.1 7,3.9 5.1,1.9 15.8,1.4 20.5,-1 z m 56.5,-12.4 c 4.3,-2.6 14.2,-18.8 12.6,-20.4 -1,-0.9 -1.9,-0.3 -4.4,2.8 -6.9,8.6 -9.9,10.2 -13,6.7 -4.3,-4.8 -4.4,-12.3 -0.7,-60.7 0.4,-6 0.7,-11.1 0.5,-11.3 -0.1,-0.2 -3,1.4 -6.3,3.5 l -6.1,3.8 -0.1,28.1 c 0,36.7 1.5,44.5 9.4,48 4.1,1.7 4.6,1.7 8.1,-0.5 z m 34.7,-11.7 c 0.4,-2.2 1.6,-9.3 2.7,-15.9 3.4,-20.2 12.6,-43.5 20.8,-52.6 l 3.3,-3.6 -2.1,-1.9 c -2.1,-1.9 -2.1,-1.9 -5.1,1.6 -3.8,4.5 -10.9,19.2 -14.4,30 -1.5,4.7 -3,8.8 -3.3,9.2 -0.3,0.4 -0.2,-9.4 0.2,-21.8 0.5,-12.4 0.7,-22.8 0.4,-23.1 -0.3,-0.2 -3,1.2 -6.1,3.3 l -5.6,3.7 v 39.8 39.9 l 4.3,-2.4 c 3.5,-2 4.3,-3.1 4.9,-6.2 z m 38.2,-67.7 c -0.3,-2.3 -1.4,-4.7 -2.3,-5.4 -2.1,-1.6 -5.4,-1.6 -6.9,-0.1 -1,1 -0.2,2.3 3.5,6 2.5,2.6 5,4.5 5.5,4.2 0.5,-0.4 0.6,-2.5 0.2,-4.7 z"
       id="path92" />
    <path
       d="m 606,480.8 c -4.1,-0.9 -4.3,-1.1 -2.5,-2.4 3.1,-2.3 7.3,-2.1 9.3,0.4 2.6,3.4 1.3,3.8 -6.8,2 z"
       id="path94" />
    <path
       d="m 661.1,469.9 c -6.4,-1.2 -6.7,-2 -3.6,-7.7 l 2.7,-5 5.2,2.4 c 6.7,3.1 14.7,3.2 19.6,0.3 11.8,-7.1 14.3,-15.2 15.5,-49.9 0.3,-10.7 0.8,-21 1.1,-22.8 1.2,-7.2 -0.7,-6.7 -4,1.1 -9.1,20.9 -21.4,31 -33.6,27.7 -5.4,-1.5 -8.5,-4.3 -11.6,-10.7 -2.5,-5.1 -2.8,-6.6 -2.7,-15.7 0.2,-16 4.9,-30.4 13.7,-42.2 9.1,-12.3 17.1,-17.4 26.9,-17.4 3.5,0.1 7.3,0.7 8.7,1.5 3.5,2 5,1.8 5,-0.4 0,-2 10.5,-9.9 11.7,-8.8 0.3,0.3 0,7.5 -0.6,15.9 -0.6,8.4 -1.5,23.2 -2.1,32.8 -3.1,54.4 -3.8,62 -5.9,67.5 -5.1,13.2 -13.4,23.5 -22.5,27.9 -3,1.5 -8.1,3.1 -11.3,3.6 -6.5,1.1 -6.1,1.1 -12.2,-0.1 z m 16.6,-63 c 8,-3 17.1,-18.3 21.8,-36.4 2,-7.8 3.9,-24.9 3.1,-28.1 -0.8,-2.9 -8.8,-8.4 -12.3,-8.4 -3.9,0 -11.9,4.7 -15.2,8.9 -3.9,4.9 -8.4,14.8 -10.1,22.1 -0.7,3 -1.6,6.8 -2.1,8.4 -1.3,4.2 -1.1,20.7 0.2,24.7 1.8,5.4 6.4,9.6 10.6,9.8 0.6,0.1 2.4,-0.4 4,-1 z"
       id="path96" />
    <path
       d="m 626.1,413.1 c -3.7,-3.7 -4.7,-10.8 -3.4,-24.4 0.7,-8 0.7,-8 8.4,7.5 2.8,5.6 5.3,10.5 5.6,10.8 0.2,0.2 1.4,-0.8 2.6,-2.3 1.6,-1.9 2.6,-2.4 3.6,-1.8 1.2,0.7 0.9,1.8 -1.5,5.8 -2.8,4.7 -2.8,4.8 -3.7,2.3 l -0.9,-2.6 -3.3,3.3 c -3.8,3.8 -4.8,4 -7.4,1.4 z"
       id="path98" />
    <path
       d="m 425.3,336 c -2.9,-1.7 -3.3,-2.5 -3.3,-6.4 0,-3.6 0.5,-4.8 2.6,-6.5 8.4,-6.6 18.3,4.7 10.8,12.3 -3.2,3.1 -5.8,3.3 -10.1,0.6 z"
       id="path100" />
    <path
       d="m 523.7,316.2 c -1,-1.1 -1.7,-3.5 -1.7,-6 0,-4.9 3.4,-8.2 8.6,-8.2 6.1,0 9.5,7.9 5.8,13.5 -1.4,2.1 -2.4,2.5 -6.4,2.5 -3.3,0 -5.2,-0.5 -6.3,-1.8 z"
       id="path102" />
  </g>
  <rect
     style="fill:#000000;fill-opacity:0"
     id="rect60"
     width="265.81027"
     height="250"
     x="921.93677"
     y="396.24506" />
  <rect
     style="fill:#000000;fill-opacity:0"
     id="rect62"
     width="174.90118"
     height="316.20554"
     x="1079.0514"
     y="390.31619" />
  <rect
     style="fill:#000000;fill-opacity:0"
     id="rect64"
     width="49.407116"
     height="190.71146"
     x="1157.1146"
     y="469.36758" />
  <path
     style="fill:#000000;fill-opacity:0"
     id="path67"
     d="m 1259.9897,724.47473 c -25.4951,-41.08322 -45.7982,-85.08792 -63.643,-129.95285 -3.9812,-10.00966 -7.6499,-20.14084 -11.4749,-30.21127 -7.8186,-21.20635 -14.7829,-42.7362 -20.3603,-64.64412 -3.8288,-15.0396 -6.7672,-30.29363 -9.8279,-45.50117 -3.2305,-17.23622 -6.0053,-34.55171 -8.995,-51.83115 0,0 -11.2797,6.02429 -11.2797,6.02429 v 0 c 3.7168,17.01943 6.9773,34.12341 10.0412,51.27265 2.1159,11.13065 3.5267,19.39071 6.2178,30.34173 6.6041,26.8738 16.7238,52.73026 26.9565,78.38143 11.0662,26.86078 14.7674,36.12925 26.599,63.59087 9.6861,22.48192 19.5672,44.87939 29.405,67.29533 3.0939,7.04948 6.3593,14.02438 9.3519,21.11744 1.5347,3.63768 2.8173,7.37667 4.226,11.06501 0,0 12.7834,-6.94819 12.7834,-6.94819 z" />
  <path
     style="fill:#000000;fill-opacity:0"
     id="path69"
     d="m 1170.338,406.21511 c -3.2598,15.26242 -8.6569,30.00669 -13.8542,44.68882 -10.2644,26.82765 -23.2172,52.51787 -37.4928,77.41297 -7.0436,12.2832 -13.0749,21.89173 -20.445,33.86963 -10.0834,16.26361 -20.0883,32.72841 -27.0039,50.64715 -3.9179,10.15142 -4.9364,14.69988 -7.8783,25.14152 -0.992,4.57816 -2.1423,9.12488 -2.9762,13.73449 -1.6277,8.99837 -3.2007,22.26749 -4.1461,31.32817 -1.4324,13.72852 -2.3548,27.47574 -3.0884,41.25525 -0.1342,3.29362 -0.2684,6.58725 -0.4027,9.88088 0,0 11.4589,-5.80826 11.4589,-5.80826 v 0 c 0,-3.21804 0.01,-6.43608 0.01,-9.65412 0.7804,-28.86723 2.9076,-57.90456 10.1426,-85.96248 3.3227,-11.69847 3.5759,-13.64494 8.0232,-25.03589 6.8512,-17.54853 16.2758,-33.9067 25.9726,-50.00179 21.5577,-36.0909 42.4194,-72.71925 58.3674,-111.70936 1.9811,-5.00425 4.0303,-9.98205 5.9431,-15.01276 1.945,-5.11512 4.9837,-13.95468 6.8553,-19.4555 0.9888,-2.90624 2.3796,-6.86239 3.2013,-9.99905 0.1709,-0.65214 0.2628,-1.32245 0.3942,-1.98368 0,0 -13.0789,6.66401 -13.0789,6.66401 z" />
  <path
     style="fill:#000000;fill-opacity:0"
     id="path71"
     d="m 1098.2052,698.03719 c 7.3872,-26.71537 19.289,-51.95487 32.0053,-76.48641 5.3063,-10.23665 10.8363,-20.35987 16.5617,-30.36813 5.3722,-9.39086 11.1493,-18.54426 16.724,-27.81639 16.2663,-25.70472 33.7002,-51.31683 56.8983,-71.36174 12.8718,-11.12229 15.0653,-11.5186 29.8504,-20.29126 11.3377,-3.97498 21.8719,-9.95032 33.3546,-13.56101 3.0022,-0.94404 6.0645,-1.92167 9.2072,-2.09011 2.2667,-0.12149 5.2834,-0.53876 6.6965,1.23772 2.3671,2.97577 2.0233,7.33073 3.0349,10.9961 -0.2219,6.1598 0.1335,12.36767 -0.6659,18.47941 -2.1189,16.20032 -7.1022,32.20506 -12.9509,47.37818 -5.8832,15.26263 -14.6509,33.61332 -23.0904,47.64712 -4.4887,7.46426 -9.718,14.45744 -14.577,21.68615 -6.7823,7.29291 -13.0815,15.06701 -20.3469,21.87873 -18.6591,17.49385 -35.1547,28.63229 -57.7371,41.12866 -10.1556,5.61981 -20.6294,10.70828 -31.3572,15.139 -14.7198,6.07939 -29.4723,12.36859 -44.8917,16.35255 -19.7484,5.10246 -40.1526,7.20517 -60.2288,10.80775 -21.5309,1.47499 -43.02131,3.76786 -64.59263,4.42498 -20.64597,0.62894 -41.32277,0.19892 -61.964,-0.5697 -18.3285,-0.6825 -36.62554,-2.14417 -54.89349,-3.78174 -24.33184,-2.18114 -54.7631,-6.25324 -79.35023,-10.36565 -8.56405,-1.43241 -17.06217,-3.23436 -25.59326,-4.85154 -2.4967,-0.56399 -25.99525,-5.57207 -30.62712,-7.54573 -3.07163,-1.30883 -6.98045,-2.43193 -8.40218,-5.45296 -2.2176,-4.71221 -1.9299,-10.36445 -1.48353,-15.55323 2.51484,-29.23323 9.77496,-31.20878 27.74289,-59.38231 12.63171,-13.77096 24.53778,-28.24459 37.89514,-41.31289 30.17415,-29.52114 59.96758,-52.72468 94.51456,-76.83356 20.65731,-14.41585 56.77692,-37.32767 80.67411,-49.62188 11.05971,-5.68981 22.63136,-10.32407 33.94705,-15.4861 10.15418,-2.99233 20.11439,-6.74612 30.46249,-8.977 15.1167,-3.25886 32.7273,-4.40781 48.231,-2.52246 10.1268,1.23148 21.5442,3.95016 29.1072,11.60497 3.2777,3.31748 4.8165,7.98734 7.2247,11.98101 0.2658,5.76229 1.3915,11.54913 0.7974,17.28687 -1.5675,15.13942 -7.5559,29.295 -14.6814,42.53572 -9.2863,17.25595 -19.9985,31.43073 -33.0234,46.12137 -7.9371,8.95219 -16.5786,17.25424 -24.8679,25.88136 -26.2308,25.82461 -54.13648,49.83939 -81.3009,74.65449 -14.44017,13.19132 -25.9246,23.55159 -39.09999,37.70478 -4.48629,4.81924 -8.60976,9.96391 -12.91464,14.94587 -2.86096,4.07787 -6.1706,7.87527 -8.58286,12.2336 -2.10544,3.80398 -7.63275,13.37076 2.4659,14.2279 11.87665,1.00805 32.79084,-10.33151 40.60887,-14.3583 10.04138,-5.17198 19.69253,-11.06884 29.5388,-16.60326 11.90936,-7.36993 23.81871,-14.73986 35.72807,-22.1098 0,0 -7.39139,2.86869 -7.39139,2.86869 v 0 c -7.34156,4.71475 -14.68313,9.4295 -22.02469,14.14425 -9.46338,5.25969 -18.73302,10.88416 -28.39013,15.77907 -7.71381,3.90991 -25.70275,13.18178 -36.75421,13.0585 -8.90147,-0.0993 -5.089,-7.41802 -2.88367,-11.76241 2.12192,-4.18008 5.16075,-7.82746 7.74112,-11.7412 4.00636,-4.83051 7.82132,-9.82639 12.01909,-14.49153 12.1973,-13.55536 23.84697,-24.38958 37.29195,-36.90083 26.82794,-24.96477 54.55958,-48.9453 80.82938,-74.51153 8.6441,-8.80245 17.6572,-17.25721 25.9324,-26.40735 13.6679,-15.11287 24.2871,-29.04107 34.0416,-46.82575 7.3939,-13.48074 13.8368,-28.11591 15.7131,-43.58147 0.7285,-6.00481 -0.3126,-12.09365 -0.4689,-18.14048 -2.5341,-4.13746 -4.1353,-9.01821 -7.6023,-12.41239 -8.0124,-7.84417 -20.1566,-10.23739 -30.6704,-11.24099 -15.9625,-1.52373 -34.6068,-0.005 -50.053,3.51595 -10.6828,2.43544 -20.9578,6.40178 -31.43674,9.60267 -11.70074,5.44603 -23.69226,10.30655 -35.10222,16.33808 -26.65634,14.09107 -63.09957,36.99136 -87.52706,54.1717 -35.1281,24.70628 -64.00624,47.31294 -95.08504,77.12284 -14.0677,13.49332 -26.84411,28.27142 -40.26616,42.40712 -20.04283,28.71317 -28.77586,31.70087 -32.59212,62.33769 -0.70796,5.68354 -1.34922,11.92694 0.99282,17.15366 1.44904,3.2338 5.80404,4.22542 9.13218,5.44224 4.24554,1.55223 31.32165,5.80703 32.88716,6.06875 9.03363,1.27471 18.04742,2.69881 27.10087,3.82412 25.15636,3.12683 57.98584,6.37866 82.63698,8.07265 39.90186,2.74201 78.25032,4.46115 118.32309,3.3282 21.33243,-0.60312 42.60324,-2.58961 63.90494,-3.88442 19.4046,-3.05817 39.1213,-4.55218 58.2138,-9.17452 15.1271,-3.66228 29.7125,-9.44387 44.0176,-15.57588 14.7379,-6.31746 28.9123,-13.91709 42.9337,-21.69629 11.4019,-6.32591 22.6261,-13.043 33.2661,-20.58022 22.8064,-16.15563 28.3528,-23.91719 47.0105,-43.71237 4.8294,-7.25022 10.0271,-14.26816 14.4882,-21.75065 8.3848,-14.06381 17.1389,-32.60049 23.0953,-47.81864 5.99,-15.3042 11.3639,-31.96714 14.1119,-48.24487 1.0822,-6.41003 1.1377,-12.95159 1.7066,-19.42739 -0.9783,-4.26117 -0.3498,-9.25758 -2.9348,-12.78352 -1.4903,-2.03274 -4.9211,-1.50825 -7.4375,-1.3641 -6.218,0.35621 -17.1762,5.11751 -22.2484,7.24255 -19.1797,8.03553 -18.5189,8.44993 -40.8374,20.16924 -14.703,8.83517 -17.1671,9.37408 -29.8264,20.55568 -22.3959,19.78161 -38.7731,45.20579 -54.2001,70.48856 -5.4215,9.21433 -10.9836,18.34734 -16.2644,27.64299 -19.0006,33.44588 -36.8147,67.59947 -51.7854,103.05301 -0.9298,2.20194 -1.7287,4.4569 -2.593,6.68535 0,0 12.9374,-6.07589 12.9374,-6.07589 z" />
  <path
     style="fill:#000000;fill-opacity:0"
     id="path73"
     d="m 1082.4141,560.8102 c 0.7044,-1.34454 1.3287,-2.73416 2.1132,-4.03361 14.25,-23.60476 33.0566,-44.24378 52.5075,-63.63716 5.6103,-5.59373 11.4808,-10.9203 17.2212,-16.38045 5.8381,-5.18909 20.1541,-18.51626 27.6018,-23.0894 0.5127,-0.31482 -0.1102,1.55988 0.4623,1.74471 3.046,0.98333 6.6132,0.0638 9.4895,1.468 8.8618,4.32647 12.0717,12.57196 16.9181,20.44645 2.0664,5.33269 4.614,10.50311 6.1993,15.99806 4.5957,15.92888 5.7881,33.56718 2.1017,49.8135 -2.491,10.9782 -4.716,13.38315 -10.028,22.62607 -5.577,6.86887 -5.2101,7.1456 -11.5473,12.45877 -5.2029,4.36215 -7.1351,4.72381 -11.9785,9.95264 -6.8503,7.39555 -7.4411,9.88459 -12.4826,19.01458 -3.9745,10.45433 -6.8752,15.10306 -6.4922,26.81012 0.4862,14.85937 7.2546,29.54629 22.6502,34.00125 4.1986,1.21495 8.7376,0.27071 13.1064,0.40607 13.7352,-6.40128 20.5546,-8.12659 31.0855,-22.9315 5.5531,-7.80674 4.3005,-23.77127 4.3914,-32.209 0,0 -10.2004,5.17225 -10.2004,5.17225 v 0 c -1.306,45.8465 1.8225,-11.38846 -5.1723,31.73812 -0.2793,1.72202 2.6173,3.75223 1.4333,5.03347 -2.9712,3.21528 -7.7758,4.02496 -11.6638,6.03744 -4.2895,0.0524 -8.7037,1.18552 -12.8684,0.15711 -15.3176,-3.78242 -21.8874,-18.13404 -22.082,-32.66771 -0.1527,-11.40102 2.9835,-16.43232 7.0482,-26.55424 5.6696,-9.53551 5.8955,-11.30828 13.3806,-18.94109 5.169,-5.271 6.9386,-5.43439 12.1557,-10.08609 5.6202,-5.01113 5.894,-6.11613 10.6746,-12.51385 4.9257,-9.39141 6.9206,-11.68305 9.08,-22.69314 3.1929,-16.279 1.6902,-34.22346 -2.6904,-50.12652 -1.5414,-5.59579 -3.969,-10.90882 -5.9535,-16.36322 -4.4831,-8.04907 -7.7775,-17.26105 -16.5806,-21.93471 -11.2538,-5.97467 -22.1179,2.96849 -31.2682,8.48129 -5.9249,3.56957 -21.9661,18.81875 -26.0728,22.58131 -5.588,5.41139 -11.2786,10.71897 -16.7642,16.23417 -20.3012,20.41061 -39.8898,41.87736 -56.306,65.59014 -0.9734,1.40606 -1.7876,2.91585 -2.6815,4.37378 0,0 13.2122,-5.97761 13.2122,-5.97761 z" />
  <path
     style="fill:#000000;fill-opacity:0"
     id="path75"
     d="m 909.69206,562.73356 c 0.4486,7.85907 1.07843,14.69424 -0.009,22.79229 -1.78447,13.28785 -5.87912,27.02504 -11.32764,39.24086 -2.51848,5.64653 -5.33195,11.2226 -8.8901,16.27885 -2.58455,3.67274 -6.24992,6.45091 -9.37489,9.67636 0.96755,-1.13081 3.38704,-1.98521 2.90266,-3.39242 -5.3392,-15.5111 -7.60875,14.03572 -7.25465,-11.09771 0.2031,-14.41544 11.26498,-25.21762 19.91774,-35.29877 5.4688,-7.42644 13.95886,-11.56334 20.27383,-18.04045 2.65888,-2.72715 5.47563,-5.54055 7.00062,-9.03074 2.90694,-6.65302 2.11505,-15.9427 0.21049,-22.64492 -0.98962,-3.48249 -2.89231,-6.63799 -4.33846,-9.95699 -4.3648,-5.47665 -6.94588,-10.63277 -14.34991,-12.55786 -13.5091,-3.51243 -24.63592,9.00992 -32.25092,18.21733 -10.83931,13.10595 -17.1171,41.585 -21.37027,55.99223 -8.99299,41.53575 -8.01923,84.06232 -8.21946,126.26935 0,0 8.90439,-4.55784 8.90439,-4.55784 v 0 c -0.63713,-15.01632 -1.83871,-39.02169 -1.56826,-53.33494 0.69913,-36.99962 1.71317,-34.4626 7.94063,-71.70416 19.85568,-58.88401 1.00018,-10.10272 24.81676,-57.02152 0.95581,-1.88296 -0.23351,-5.02286 1.55822,-6.14039 2.64644,-1.65062 6.28207,-1.29583 9.33419,-0.65337 7.21374,1.51845 9.87481,6.56333 14.17113,11.70187 1.42314,3.2021 3.31765,6.23392 4.26942,9.60629 1.88325,6.6729 2.38971,15.19662 -0.63811,21.72527 -1.5579,3.35918 -4.31806,6.0502 -6.89242,8.71174 -6.16163,6.37029 -14.24398,10.71707 -19.59579,17.97 -8.95978,10.59014 -20.35788,21.95144 -20.63747,36.95501 -0.0448,2.40164 1.83837,14.44615 8.39474,12.98244 6.79876,-1.51781 12.43985,-6.27356 18.65977,-9.41035 2.75611,-3.17363 5.99003,-5.98854 8.26833,-9.52088 3.2849,-5.093 5.90105,-10.6105 8.30446,-16.17403 5.37209,-12.43559 9.81076,-26.72424 12.30326,-40.05856 1.37455,-7.35359 1.70363,-16.26938 2.11849,-23.96015 0,0 -12.63169,6.43616 -12.63169,6.43616 z" />
  <path
     style="fill:#000000;fill-opacity:0"
     id="path77"
     d="m 832.99782,750.31564 c 4.47637,-6.27611 7.27949,-9.93954 11.27289,-17.68947 8.98249,-17.43224 15.23975,-33.69848 21.91222,-52.2815 8.40877,-23.41865 11.03526,-33.29038 18.00215,-56.60248 4.52966,-18.03213 6.34385,-23.72313 9.41561,-41.13061 0.6992,-3.9623 3.017,-18.71506 2.54917,-23.93598 -0.13735,-1.5329 -0.33892,-4.62193 -1.82961,-4.23915 -5.88019,1.50993 -10.62939,5.86876 -15.94408,8.80314 -0.14749,5.46688 -1.16864,10.98021 -0.44246,16.40065 3.38117,25.23814 10.50254,38.61579 21.54202,62.49559 14.52397,31.41719 31.11979,61.87604 47.32779,92.44014 4.68897,9.60701 11.81525,22.01484 14.10307,33.11842 0.42167,2.0465 -2.42817,6.84077 -0.4227,6.2542 14.42581,-4.21931 10.64948,-14.0544 13.16282,-25.001 2.19437,-9.55736 5.20411,-18.90901 7.80617,-28.36352 6.12606,-21.33837 14.31705,-42.00003 20.97372,-63.16227 2.6051,-8.28161 5.1799,-16.58993 7.1359,-25.04837 1.4928,-6.45513 5.1221,-20.84615 0.4945,-28.33351 -1.4343,-2.32068 -4.6273,-2.89115 -6.941,-4.33673 -3.12444,0.065 -6.28258,-0.26704 -9.37337,0.19506 -7.54522,1.12807 -17.70077,5.61522 -24.33821,9.50293 -17.08393,10.00648 -12.47848,6.15405 -20.94058,14.24815 0,0 12.677,-5.20273 12.677,-5.20273 v 0 c 1.32734,-1.21698 5.67888,-3.04802 3.98201,-3.65095 -2.11067,-0.74996 -7.64125,4.49587 -6.05497,2.91439 1.84872,-1.84314 4.53257,-2.59988 6.88167,-3.73859 4.82101,-2.33693 12.05471,-5.37799 17.32196,-6.39148 2.87617,-0.55341 5.8422,-0.42781 8.7633,-0.64171 2.28423,1.06019 5.27658,1.21651 6.85269,3.18059 5.446,6.78659 3.1483,19.73092 1.9678,26.41106 -1.45832,8.25264 -3.61956,16.37751 -5.95396,24.42632 -3.87419,13.35785 -17.00836,50.88396 -21.3021,63.33625 -3.39449,9.87153 -7.10815,19.63902 -10.18345,29.61459 -1.79969,5.83779 -7.80398,12.69184 -4.42861,17.78355 2.60547,3.93034 9.87965,-1.05782 13.57189,-3.99097 1.55728,-1.23712 -0.47582,-3.99009 -1.18763,-5.84721 -4.14468,-10.81342 -11.22293,-21.97057 -16.80943,-31.74138 -11.5834,-19.69386 -21.14164,-35.39464 -31.75069,-55.99096 -6.00939,-11.66659 -12.01164,-23.36174 -17.16797,-35.42964 -9.38403,-21.96239 -16.91032,-40.31847 -17.42692,-64.15138 -0.12115,-5.58931 2.06505,-10.9889 3.09757,-16.48336 -3.02769,1.12513 -6.7655,1.12557 -9.08305,3.3754 -0.93772,0.91031 2.20608,1.76647 2.46732,3.047 0.63847,3.12959 0.25937,6.39104 0.10906,9.58156 -0.85508,18.15047 -4.81019,36.00407 -8.93702,53.62857 -2.46653,8.84238 -4.69725,17.75395 -7.39959,26.52714 -8.92888,28.98771 -19.33823,56.9573 -34.91564,83.10833 -4.51669,7.58252 -8.58857,12.33732 -13.75489,18.6961 0,0 13.19763,-5.70418 13.19763,-5.70418 z" />
</svg>
