<svg xmlns="http://www.w3.org/2000/svg" version="1.0" width="1000" height="1000">
    <!-- 水色 -->
    <path d="M236.5 567.2c0-.7-.6-1.9-1.4-2.5-.8-.7-2.1-3.4-3-6.2-.9-2.8-3.1-8-4.8-11.7-1.7-3.7-3.2-7.4-3.4-8.2-.1-.8-1.1-4.6-2.1-8.5-1.1-3.8-2.8-9.9-3.7-13.5-.9-3.6-2.1-7.8-2.6-9.5-.4-1.6-1.3-6.1-2-10-.7-3.8-1.8-8.5-2.6-10.2-.7-1.8-1-3.3-.6-3.3.5 0 .3-5.1-.4-11.2-2.6-22.8-1.5-54.2 2.6-80.3.6-3.8 1.4-8.9 1.7-11.3.3-2.3 1-4.5 1.4-4.8.5-.3.9-1.4.9-2.5 0-3.9 7.3-28.5 11-37.4 3.1-7.2 4.8-11.5 6-15.2.7-2.4 1.7-4.3 2.2-4.3.5 0 .6-.5.2-1.2-.4-.6-.1-1.6.7-2.2 1.9-1.5 3.9-5.2 3.9-7.1 0-.8.5-1.5 1-1.5.6 0 1-.8 1-1.7 0-.9.6-2.4 1.4-3.2 1.3-1.5 5.2-8.3 8.3-14.3.8-1.6 1.9-2.8 2.4-2.8s1.1-1.1 1.5-2.5c.3-1.3 1.3-3 2.1-3.6.8-.7 2-2.6 2.7-4.3.7-1.7 2.7-4.4 4.4-6.1 1.7-1.6 3.7-4.2 4.4-5.6 1.3-2.5 5.2-7.5 11-14.2 1.5-1.8 2.8-3.8 2.8-4.4 0-.7 1.2-1.9 2.8-2.7 1.5-.8 5.6-4.7 9.1-8.5 3.6-3.9 7.1-7.1 7.8-7.1.7 0 1.3-.7 1.3-1.5s.7-1.5 1.5-1.5 1.9-.9 2.5-2c.6-1.1 1.6-2 2.3-2 .7 0 3.7-2.5 6.7-5.5s6-5.4 6.6-5.5c.7 0 1.4-.7 1.8-1.5.3-.8 1.2-1.5 2.1-1.5.8 0 3.2-1.6 5.2-3.6 2.1-2 5.7-4.5 7.9-5.5 2.3-1.1 5.9-3.6 8-5.5 2.2-1.9 5.1-3.8 6.7-4.1 1.5-.3 3-1 3.3-1.4.3-.5 1.4-.9 2.5-.9 1 0 1.9-.7 1.9-1.5s.9-1.5 2-1.5 2-.5 2-1.1c0-.6.6-.9 1.4-.6.8.3 1.7-.1 2-1 .4-.8 1.3-1.3 2.1-.9.8.3 1.8-.1 2.2-.8.8-1.2 3.8-2.9 5.8-3.1 2.7-.3 8.5-2.8 9.5-4.1.7-.7 2.3-1.4 3.6-1.4 1.4 0 2.4-.6 2.4-1.5 0-1 1.6-1.6 5-2.1 2.8-.4 5.3-1.1 5.6-1.5.3-.5 1.8-.9 3.3-.9 3.2 0 9.6-2.4 10.6-4 .4-.6 1.6-.8 2.6-.5 1.1.4 2.7.1 3.6-.7.9-.7 3-1.3 4.7-1.4 5.3-.2 11-1.6 12.7-3 1-.9 2.7-1.2 4.6-.8 1.9.4 3.5.1 4.4-.8.9-.8 4.1-1.3 8.8-1.4 4-.1 7.6-.6 8-1.1.3-.5 15.2-.9 36.1-.9 27.8.1 36 .4 37.9 1.4 1.3.8 3.8 1.2 5.7 1 1.9-.2 3.5 0 3.7.5.1.4 3.1 1 6.6 1.2 3.5.2 6.9.9 7.7 1.5.7.7 2.3 1 3.6.9 1.3-.1 3.4.2 4.8.8 4.7 2 9.6 3.3 12.2 3.3 1.3 0 2.8.3 3.1.7.9.8 22.4 8.3 26 9 1.5.3 2.7.8 2.7 1.2 0 .8 8 4.3 9.4 4.1.5-.1 1.2.3 1.6 1 .4.6 1.4 1.2 2.2 1.4.9.1 2.2.7 2.9 1.3.8.6 2.5 1.4 3.9 1.8 1.4.4 2.8 1.2 3.1 1.7.3.5 1.3 1 2.1 1.2.9.1 2.3.8 3.2 1.5.9.7 1.6 1.1 1.6.7 0-.3 1.9.7 4.2 2.4 2.2 1.6 4.5 3 4.9 3 .4 0 4.9 2.8 9.8 6.2 5 3.5 11.2 7.7 13.7 9.5 2.6 1.8 5 3.6 5.3 4 .3.5 3.3 3 6.6 5.5 5.5 4.1 12.1 10 20 17.6 14.3 13.8 40 46.8 46.2 59.2.7 1.4 2.2 4.1 3.4 6 2.1 3.4 11 21.2 16.2 32 3.8 8.2 7.7 19.3 11.2 32.3.8 3.1 2.2 8.3 3.1 11.5 1.8 6.4 4.4 18 4.2 19 0 .4.1.9.2 1.2.2.3 1 6.8 2 14.5 2.1 17.1 2.1 62.3.1 75-2.2 13.3-6 32.2-7.5 36.7-.8 2.4-1.7 5.7-2 7.3-1.2 5.4-3.9 14-4.8 14.9-.4.6-.8 1.6-.8 2.4 0 1.9-4.3 11.2-5.2 11.2-.4 0-4.5-2.4-9-5.3-15.5-9.9-44.7-24.9-66.3-34-14.8-6.2-40.8-15.1-56.7-19.3l-10.8-2.9v-3.6c0-2 .7-7.4 1.7-12 3-15.5 2.2-34.8-2.3-52.1-1.1-4.4-1.2-6.3-.4-7.8.7-1.3.8-3.4.4-5.3-.4-1.8-.9-2.6-1.1-1.9-1.1 3-3.2.5-8.1-9.5-3.8-7.8-5.2-12-5.2-14.9 0-2.5-.6-4.7-1.5-5.4-1.2-1-1.4-3-.9-10.9.5-7.6.3-10.4-1-13.3-2.1-4.9-5.6-7.2-9.5-6.3-4.1.9-4.9 2.5-1.4 2.5 5.2.1 6.5 2.1 6.7 10.2l.1 7.3-3.5.3c-3 .2-4.1-.4-8.4-4.7-3.9-4-4.7-5.3-3.8-6.4 1.7-2-2.1-5.5-4.2-3.8-1.1.9-3.1 0-9.7-4.9-37.2-26.9-83.2-32-124.7-13.8-22.5 9.8-40 23.7-54.8 43.3-6.4 8.5-16.1 27.3-19.3 37.2-2.2 7.2-6.1 25-6.1 28.1 0 2.1-6.1 2.8-9.2 1.1-3-1.6-18.3-15.3-25-22.4-3.4-3.5-5.8-6.9-5.8-8.2 0-2-.2-2.1-3.2-1.1-1.8.6-3.7 1.4-4.1 1.8-1.1.9 6.9 10.4 16.4 19.7 7.3 7.1 24.3 21.1 26.7 22 .6.3 1.2 1.8 1.2 3.4 0 1.5.6 3.2 1.3 3.6 1.3.8 5.6 19.4 6.4 27.8l.4 4-17.8 5.8c-43.5 14-91.6 38.5-124.6 63.4-6 4.5-7.7 5.2-7.7 2.9zm76.4-88.6 2.6-1v-19.7c.1-41.5 2.6-84.1 5.6-95 .6-2 .3-2.3-2.5-2.3h-3.1v-6c0-3.2-.4-9.2-.9-13.2-.6-4-1.5-11.8-2.1-17.3-.7-5.5-1.6-11.7-2.1-13.7l-1-3.8-3.9 2.6c-2.2 1.5-3.7 3-3.5 3.5.3.4 1 3.8 1.5 7.6.5 3.7 1.6 11.8 2.5 17.8 1.4 10.1 3.8 65.1 3 67.8-.2.7-.6 17.5-1 37.5-.6 39.5-.9 37.4 4.9 35.2zm363.1-13c1.5-.7.9-.9-2.6-.9-2.5-.1-6.1-.6-7.9-1.2-2.6-.9-3.4-.9-4.1.2-.5.8-.3 1.6.4 2.1 1.6 1 11.7.9 14.2-.2zm28.5-30.5c1.6-3.7 2.9-14.9 4-33 .6-9.9 1.5-25 2-33.5s1.2-21.1 1.6-28l.6-12.4-2.3 1.6c-1.3.8-2.5 2.5-2.7 3.7-.2 1.1-1 2.1-1.8 2.1-1.1 0-1.2.4-.4 1.9 1.9 3.6.6 23.7-2.3 34.8-1.3 4.8-1.2 5.2.5 5.6 2.1.6 2.2 1.4.8 22.8-1.1 18.9-1.9 39.9-1.3 37.9.3-.8.8-2.4 1.3-3.5zm-31.2-23.4c.9-.5.1-1-2.5-1.4-4.5-.8-8.5-4.5-10.2-9.6-1.4-4.4-1.4-25.7 0-31.8.7-2.7 1.9-7.4 2.9-10.5 2.1-7 1.1-6.7-2.5.9-5 10.5-7.6 20.7-7.6 30.2 0 6.2.4 8.3 2.8 13 1.6 3.2 4.3 6.5 6.2 7.8 3.4 2.3 8.5 3 10.9 1.4zm-283.5-52.1c8.7-16.7 12.2-29.5 12-44-.2-15.1-3.9-23.8-13-30.7-4.6-3.5-11.8-3.7-17.8-.5l-4 2.1 6.6.1c8.7 0 12.3 2.4 16.4 10.5 2.9 5.8 3 6.5 3.3 22.2.3 12.3-.1 18.3-1.3 24.5-1.8 8.8-4.7 18.3-6.6 22-.6 1.3-.7 1.9-.1 1.3.6-.5 2.6-3.9 4.5-7.5zm43.7-28.2c1.7-1.9 1.8-2.4.6-4.2-1.8-2.8-4.3-3.2-6.7-1-2.5 2.2-2.4 3.9.3 5.8 2.9 2.1 3.3 2 5.8-.6zm100.4-19.3c1.5-2.3 1.5-2.6-.7-5l-2.2-2.7-2.8 2.2c-3.1 2.5-3.3 3.6-1 6.2 2.2 2.5 4.8 2.3 6.7-.7z" fill="#48fffb"/>
    <!-- 青 -->
    <path d="M481 738.4c-59.9-6.7-108.2-25-152-57.6-18.8-13.9-30.2-24.5-49.5-45.8-11.4-12.6-28.7-38.3-38.5-57.3-4.5-8.6-5.3-10.9-4.4-12.4.6-1 6.7-5.6 13.6-10.3 35.4-24.2 74.8-43.7 115-56.7 14.5-4.7 17.7-6.1 17.2-7.4-.3-1 .2-1.8 1.3-2.1 17.5-4.9 42.9-10.5 57.8-12.7 30.2-4.4 46.1-5.3 88.1-5 35.7.3 39.2.2 41.7-1.4 1.4-.9 4.4-1.7 6.7-1.7 3.7 0 4 .2 4 2.9 0 2.1.6 3 2.3 3.5 4.8 1.3 8.3.6 10.8-2 5.3-5.8 9.8-7.7 18.1-7.8 6.2-.1 8.2.3 10.4 2 3 2.2 5.2 7.2 5.3 12 .1 3 .4 3.2 5.9 4.5 4.4 1.1 5.8 1.9 6 3.4.2 1.6 2.2 2.5 11 4.9 15.9 4.3 41.9 13.1 56.7 19.3C737.7 523 782 547 782 550.5c0 3.4-12.2 28.9-20.5 43-4.1 7-12.7 19.6-19.8 29-4.4 5.9-15 18.1-22.6 25.9-8.2 8.6-29.2 27.3-33.8 30.3-1.5 1-5.5 3.8-8.8 6.4-16.9 12.9-51.9 30.6-76.5 38.7-15.3 5-37.4 10.3-53.5 12.8-9.5 1.4-56.9 2.8-65.5 1.8zm-47.3-165.6c6-2.2 12.9-8.5 15.8-14.3 1.5-2.9 2-6 2-11.6 0-10.4-2.3-13.7-17.1-23.5-8.1-5.4-11.6-8.4-12.8-10.8-2.1-4.4-2-5.4.4-9.4 6.2-10.2 20.8-9.5 26.3 1.2l2 3.9 2.4-2.7c5.1-6 1.4-14.3-7.3-16.5-12.1-3.1-27.3 6-31.5 18.6-1.7 5.3-.7 12.6 2.4 16.6 1.4 1.9 7.7 6.9 14 11.2 6.3 4.3 12.2 9.1 13.1 10.6 4 6.7.6 15.6-7.4 19.7-8.1 4.1-16.6 2-23.3-5.8-2-2.4-3.8-4.2-4-3.9-.2.2-1.9 2.6-3.7 5.3l-3.3 4.9 2.9 2.4c8.8 7.2 17.3 8.4 29.1 4.1zm66.5-9.9c4.7-2.4 13.1-10.6 15.4-15.1 1.8-3.5 2.6-3 4.3 3.1 1.7 5.7 6 10.1 10 10.1s8.5-4 15-13.4c4.3-6.3 4.8-7.5 3.4-8-1.2-.5-2.8.6-5.6 3.9-4.1 4.8-8.3 7.5-10.5 6.8-.7-.3-2-1.9-2.9-3.6-2.6-4.8-2-15.6 2.2-45 2.1-14.2 3.5-26 3.2-26.3-.3-.3-3.4 1.2-6.8 3.3l-6.4 3.8-1.5 26.6-1.5 26.5-3.5 5.7c-3.9 6.4-9.1 12.1-13.5 14.9-4.3 2.6-10.7 2.4-14.2-.6-2.5-2.2-2.8-3.1-3.1-10.3-.2-4.9 1-18.2 3.3-36.2 1.9-15.6 3.4-28.5 3.2-28.7-.1-.2-3.2 1.4-6.8 3.6l-6.5 3.9-1.7 26.3c-2.1 32.6-2.2 39-.1 43.4 1.9 4 3.3 5.2 8.1 7 4.7 1.8 11 1.1 16.5-1.7zm69.9-10.2c.4-.5 1-2.8 1.3-5.1 1.1-6.6 6.4-26.6 8.6-32.6 3.7-9.6 12.1-24.6 16.6-29.8l4.3-5-3.2-.6c-2.7-.6-3.5-.2-5.3 2-3 3.7-11 19-15 28.7l-3.4 8.2.6-5.5c.3-3 1.3-12.5 2.3-21l1.6-15.5-5.4-.3c-3-.2-5.8.1-6.2.5-.9.9-5.9 66.6-5.9 76.6v4.7l4.3-2.1c2.3-1.2 4.5-2.6 4.8-3.2zm59.7-5.2c1.6-1.3 5.3-5.9 8.2-10 4-5.9 5-7.9 4-8.8-.9-.9-2.2 0-5.8 4-5.1 5.6-8.2 7.6-10.5 6.7-2.1-.8-4.7-7.6-4.7-12.2 0-3 2.5-24.8 4.4-38.7.4-3 .2-3.1-5.3-4.6l-5.8-1.5-1.2 26.1c-1.5 29-1.2 32.1 4 38 3.9 4.4 8.3 4.7 12.7 1z" fill="#1c2173"/>
    <!-- Rising -->
    <g fill="#fe3147">
        <path d="M382.7 491.3c-1-1.6-4.7-21.4-4.7-25v-3.5l4.8 2.8c2.6 1.5 6.1 3.6 7.8 4.6l3 1.8 4.2-6c2.3-3.2 4.2-6.1 4.2-6.4 0-.3-2.2-1.7-4.8-3-2.6-1.3-7.8-4.5-11.6-7s-7-4.6-7.2-4.6c-.2 0-.4 3.8-.4 8.5s-.3 8.5-.6 8.5c-2 0-21-15.3-30.8-24.8-8.6-8.4-19.6-21.6-19.6-23.6 0-.6 2.1-1.8 4.7-2.5 18.2-4.8 37.1-21.7 47.5-42.4 8-16.1 11.1-30.1 10.6-49-.3-12.3-.5-13.6-3.3-19.2-3.5-7.1-8-10.5-13.6-10.5-19.2 0-41 34.4-49.8 78.5-3 15.3-5 51.9-5.1 92.8V481l-2.7 1.1c-1.5.5-4.7 1.3-7.1 1.6l-4.5.6.7-29.4c1-40.2.8-81.8-.4-97.4-1-12.3-1.5-16.9-4-33.2-2.6-16.3-3-14.3 4-19.1 3.4-2.3 6.5-4.2 6.9-4.2.8 0 2.6 9 4.1 20.5 2.6 21.4 3 25.4 3 30.8 0 9.2 1.3 7.7 6-7.3 1.3-4.1 2.7-7.9 3-8.5.4-.5 1.3-2.6 2-4.5 8.1-21.4 24.2-42.9 37.1-49.7 4.6-2.3 6.6-2.8 13.5-2.8 7.3 0 8.4.3 11.8 2.9 5.2 3.9 9.1 9.6 11.3 16.4 2.5 8 2.5 28-.1 37.7-6.5 24.8-21.7 48.6-41 64.2-4.4 3.6-9.6 7.3-11.6 8.3-6.5 3.3-6.5 3.9-.2 10.5 6.4 6.8 20 19 25 22.4l3.2 2.2v-2.4c0-3.9 3.6-20.9 6.1-29 3.2-9.9 12.9-28.7 19.3-37.2 10.5-14 24-26.3 37.5-34.5 30.2-18.1 62.7-23.7 98.6-17.1 14.2 2.6 35.7 12.2 49.3 22.1l8.3 6 3.7-2.9c2-1.6 5.6-3.5 7.9-4.1 3.6-1.1 4.6-1 8 .6 6.1 3 7.3 6.7 7.1 20.7-.2 12.8-.8 14.9-3 12.1-.7-1.1-2.9-3.2-4.7-4.9l-3.3-3 .4 20.5c.5 22.3 1.1 25.5 6.1 30.8 2.4 2.5 3.9 3.2 6.8 3.2 3.2 0 4.3-.7 7.3-4.2 2-2.3 3.6-4.5 3.6-5 0-.4.4-.8.9-.8 1.1 0 3.2 7.1 5.2 17.5 1.9 10 1.7 35.8-.4 46.4-1 4.7-1.9 8.6-2.1 8.9-.3.2-3.6-.4-7.5-1.3-6.9-1.7-7.1-1.9-7.2-4.9-.4-15.7-15.9-18.9-28.3-5.8-2.6 2.8-3.3 3.1-7.5 2.6-11-1.2-11.1-1.3-11.1-4.4 0-3.6-.9-3.7-6-.5-3.8 2.4-4.2 2.5-13.2 1.5-23-2.4-77.3-.9-107.3 3-14.3 1.8-42.8 7.5-55.5 11-10.3 2.8-13.6 3.4-14.3 2.3zm56.2-31.8c3.2-1.6 14.6-18.8 13.6-20.5-1.2-1.9-2.4-1-6.6 4.5-6.7 8.9-11.6 8.3-14-1.8-1.3-5.4-1-13.9 1.6-47.2.7-9.9 1.2-18.2 1-18.4-.2-.2-3 1.4-6.2 3.5l-5.8 3.9-.3 27.5c-.4 36.7 1.2 45.1 9.2 48.6 3.9 1.7 4.1 1.7 7.5-.1zm44.1-7c14.4-7.3 21.7-23.2 16.1-34.9-2.7-5.4-6.7-8.8-18.1-15-4.7-2.6-9.7-6-11.2-7.6-7.1-7.7.3-19 12.2-19 5.3 0 9 2.2 12.1 7.2l2.4 3.9 1.8-2.2c1-1.3 1.7-3.8 1.7-6.3 0-12.3-18.1-14.3-30.6-3.3-8.5 7.5-11.4 17.7-7.5 26.3 2.1 4.6 3.7 5.9 18 14.4 5.7 3.3 11.1 7 12.1 8.3 7.3 8.8-1.8 22.7-14.9 22.7-5.4 0-8.8-1.6-13.8-6.4-4.7-4.4-4.8-4.4-8.4 2.3l-2.4 4.3 3 2.4c1.7 1.3 4.8 3.1 7 3.9 5.1 1.9 15.8 1.4 20.5-1zm56.5-12.4c4.3-2.6 14.2-18.8 12.6-20.4-1-.9-1.9-.3-4.4 2.8-6.9 8.6-9.9 10.2-13 6.7-4.3-4.8-4.4-12.3-.7-60.7.4-6 .7-11.1.5-11.3-.1-.2-3 1.4-6.3 3.5l-6.1 3.8-.1 28.1c0 36.7 1.5 44.5 9.4 48 4.1 1.7 4.6 1.7 8.1-.5zm34.7-11.7c.4-2.2 1.6-9.3 2.7-15.9 3.4-20.2 12.6-43.5 20.8-52.6l3.3-3.6-2.1-1.9c-2.1-1.9-2.1-1.9-5.1 1.6-3.8 4.5-10.9 19.2-14.4 30-1.5 4.7-3 8.8-3.3 9.2-.3.4-.2-9.4.2-21.8.5-12.4.7-22.8.4-23.1-.3-.2-3 1.2-6.1 3.3l-5.6 3.7V437l4.3-2.4c3.5-2 4.3-3.1 4.9-6.2zm38.2-67.7c-.3-2.3-1.4-4.7-2.3-5.4-2.1-1.6-5.4-1.6-6.9-.1-1 1-.2 2.3 3.5 6 2.5 2.6 5 4.5 5.5 4.2.5-.4.6-2.5.2-4.7z"/>
        <path d="M606 480.8c-4.1-.9-4.3-1.1-2.5-2.4 3.1-2.3 7.3-2.1 9.3.4 2.6 3.4 1.3 3.8-6.8 2zM661.1 469.9c-6.4-1.2-6.7-2-3.6-7.7l2.7-5 5.2 2.4c6.7 3.1 14.7 3.2 19.6.3 11.8-7.1 14.3-15.2 15.5-49.9.3-10.7.8-21 1.1-22.8 1.2-7.2-.7-6.7-4 1.1-9.1 20.9-21.4 31-33.6 27.7-5.4-1.5-8.5-4.3-11.6-10.7-2.5-5.1-2.8-6.6-2.7-15.7.2-16 4.9-30.4 13.7-42.2 9.1-12.3 17.1-17.4 26.9-17.4 3.5.1 7.3.7 8.7 1.5 3.5 2 5 1.8 5-.4 0-2 10.5-9.9 11.7-8.8.3.3 0 7.5-.6 15.9s-1.5 23.2-2.1 32.8c-3.1 54.4-3.8 62-5.9 67.5-5.1 13.2-13.4 23.5-22.5 27.9-3 1.5-8.1 3.1-11.3 3.6-6.5 1.1-6.1 1.1-12.2-.1zm16.6-63c8-3 17.1-18.3 21.8-36.4 2-7.8 3.9-24.9 3.1-28.1-.8-2.9-8.8-8.4-12.3-8.4-3.9 0-11.9 4.7-15.2 8.9-3.9 4.9-8.4 14.8-10.1 22.1-.7 3-1.6 6.8-2.1 8.4-1.3 4.2-1.1 20.7.2 24.7 1.8 5.4 6.4 9.6 10.6 9.8.6.1 2.4-.4 4-1zM626.1 413.1c-3.7-3.7-4.7-10.8-3.4-24.4.7-8 .7-8 8.4 7.5 2.8 5.6 5.3 10.5 5.6 10.8.2.2 1.4-.8 2.6-2.3 1.6-1.9 2.6-2.4 3.6-1.8 1.2.7.9 1.8-1.5 5.8-2.8 4.7-2.8 4.8-3.7 2.3l-.9-2.6-3.3 3.3c-3.8 3.8-4.8 4-7.4 1.4zM425.3 336c-2.9-1.7-3.3-2.5-3.3-6.4 0-3.6.5-4.8 2.6-6.5 8.4-6.6 18.3 4.7 10.8 12.3-3.2 3.1-5.8 3.3-10.1.6zM523.7 316.2c-1-1.1-1.7-3.5-1.7-6 0-4.9 3.4-8.2 8.6-8.2 6.1 0 9.5 7.9 5.8 13.5-1.4 2.1-2.4 2.5-6.4 2.5-3.3 0-5.2-.5-6.3-1.8z"/>
    </g>
</svg>